<?xml version="1.0" standalone="no"?>
<!DOCTYPE svg PUBLIC "-//W3C//DTD SVG 1.1//EN" "http://www.w3.org/Graphics/SVG/1.1/DTD/svg11.dtd" >
<svg xmlns="http://www.w3.org/2000/svg">
<metadata></metadata>
<defs>
<font id="ReklameScriptMediumRegular" horiz-adv-x="948" >
<font-face units-per-em="2048" ascent="1556" descent="-492" />
<missing-glyph horiz-adv-x="464" />
<glyph unicode="&#xfb01;" horiz-adv-x="1173" d="M4 -154q0 70 14 185q19 169 71 399.5t58 278.5l-71 57q-25 19 -44.5 62.5t-19.5 74.5v6q0 22 10 29q16 10 146 33l1 1h1h1h1h1l1 1h1h1h1h1h1l1 1h1h1h1h1h1l1 1h1h1h1h1l1 1h1h1h1h1h1l1 1h1h1q19 94 57 309t47 260q29 8 70 8q85 0 133.5 -27.5t48.5 -80.5q0 -24 -5 -60 t-10 -67t-17 -83t-18 -77.5t-20.5 -84t-17.5 -70.5q409 30 475 24q39 -6 85 -24t80 -48t26 -61q-53 -175 -103 -392t-53 -319q-1 -52 13.5 -78t39.5 -26q40 0 73 32.5t52 81.5t29.5 92.5t13.5 78.5q1 -2 13.5 0t32 -3t38 -13t32 -30t13.5 -53q0 -53 -27 -113t-73.5 -113.5 t-120.5 -88.5t-158 -35q-120 0 -185 68t-65 202q0 101 35 283.5t80 347.5q-290 -9 -391 -29l-2 -14q76 -77 114 -133t59 -135.5t21 -194.5q0 -113 -29 -219t-74 -184t-100 -140t-106.5 -97.5t-93.5 -45.5q-38 -6 -66 0q-141 14 -141 221zM279 27q-1 -6 -4 -27t-5.5 -40 t-5.5 -44.5t-3 -45.5t2 -38.5t9.5 -28.5t18.5 -10q9 0 27.5 16.5t42.5 54t46 88.5t38 130t18 168q8 248 -90 379q-6 -47 -41 -257t-53 -345zM909 1280q0 21 5 50t18 65t32.5 66t53 50.5t74.5 20.5q60 0 84 -18t10 -68q40 -17 63 -40.5t23 -64.5q0 -30 -13 -63t-39 -65.5 t-76 -54t-114 -21.5q-42 0 -81.5 37t-39.5 106z" />
<glyph unicode="&#xfb02;" horiz-adv-x="1081" d="M4 -154q0 70 14 185q19 170 71 413.5t58 290.5l-71 58q-25 19 -44.5 62.5t-19.5 74.5v6q0 22 10 29q16 10 146 33l1 1h1h1h1h1l1 1h1h1h1h1h1l1 1h1h1h1h1h1l1 1h1h1h1h1l1 1h1h1h1h1h1l1 1h1h1q17 86 55.5 289t48.5 253q29 8 70 8q85 0 133.5 -27.5t48.5 -80.5 q0 -35 -10 -91t-21 -100.5t-30.5 -119.5t-26.5 -105q62 9 135 21t106 16t66 4q37 0 70 -41q54 301 104 483q7 19 39 19q30 0 81.5 -18.5t90.5 -44t35 -42.5q-170 -799 -213 -1345q-12 -164 -12 -166q-11 -14 -49.5 -7t-81 22.5t-78.5 35.5t-41 33q-4 8 -5.5 22t-0.5 37.5 t2 38t4 46.5t4 40q13 218 90 678q-229 -21 -387 -47l-2 -12q109 -111 155 -217.5t46 -274.5q0 -121 -33.5 -234.5t-84.5 -194t-111.5 -142t-115.5 -91.5t-94 -30q-92 0 -137 61t-45 166zM279 27q-1 -6 -4 -27t-5.5 -40t-5.5 -44.5t-3 -45.5t2 -38.5t9.5 -28.5t18.5 -10 q9 0 27.5 16.5t42.5 54t46 88.5t38 130t18 168q8 248 -90 379q-6 -47 -41 -257t-53 -345z" />
<glyph horiz-adv-x="0" />
<glyph horiz-adv-x="2048" />
<glyph unicode=" "  horiz-adv-x="464" />
<glyph unicode="&#x09;" horiz-adv-x="464" />
<glyph unicode="&#xa0;" horiz-adv-x="464" />
<glyph unicode="!" horiz-adv-x="706" d="M180 80q0 28 13.5 59.5t40.5 63.5t77.5 52.5t114.5 20.5q43 0 82 -35t39 -100q0 -21 -4.5 -49t-17.5 -63t-32 -63.5t-52 -48t-74 -19.5q-66 0 -126.5 62.5t-60.5 119.5zM334 598q0 212 30.5 489.5t79.5 425.5q4 11 16.5 20t22.5 9q32 0 88.5 -11.5t87.5 -31.5 q12 -8 1.5 -36t-1.5 -36q6 -5 16.5 -12.5t18.5 -13t16.5 -14t12.5 -17t3.5 -20t-7.5 -25.5q-17 -60 -73 -237.5t-90.5 -313t-53.5 -274.5q-11 -15 -38.5 -9.5t-56.5 18.5t-51 38.5t-22 50.5z" />
<glyph unicode="&#x22;" horiz-adv-x="1007" d="M158 983q31 316 55 487q10 9 64.5 0t116 -39.5t57.5 -58.5q-30 -207 -37 -237l16 -19q12 -12 -12 -79.5t-53 -114.5q-12 -19 -46 -16.5t-70 14t-64 30.5t-27 33zM543 989q10 96 33.5 274.5t25.5 192.5q3 7 27.5 6t61.5 -11.5t71.5 -24t59 -32.5t22.5 -36q-7 -51 -38 -201 t-40 -229q-12 -24 -62 -17.5t-106 33t-55 45.5z" />
<glyph unicode="#" horiz-adv-x="1323" d="M66 477q132 36 219 55q20 115 55 267l-57 -13q-42 -9 -93 53q-42 51 -41 85q0 15 11 18q121 37 225 57q63 263 125 453q56 3 129 -20.5t74 -53.5q4 -67 -2 -139.5t-29 -69.5l-25 5l-30 -132q128 20 217 31q63 278 88 338q1 4 3.5 18.5t6 20t17 12t38.5 6.5q35 0 91 -18.5 t77 -36.5q-33 -105 -78 -319q68 5 105 -3.5t72 -43.5q23 -23 48 -57.5t17 -43.5q-12 -12 -71.5 -20.5t-184.5 -20.5q-5 0 -8 -0.5t-7.5 -1t-8.5 -0.5q-41 -217 -48 -258h50q20 -1 62 -59q53 -73 44 -106q-4 -15 -24 -15q-111 -4 -166 -10q-54 -307 -64 -392q-3 -24 -41 -24 q-37 0 -111 27t-87 40q12 89 51 314l-221 -39q-42 -262 -48 -461q-8 -37 -117.5 -6t-129.5 53q11 151 49 365l-55 -10q-42 -7 -95 54q-44 52 -43 85q0 13 11 16zM530 586q190 33 222 37q26 142 51 254q-68 -8 -219 -31q-5 -23 -25 -116.5t-29 -143.5z" />
<glyph unicode="$" horiz-adv-x="1263" d="M55 381q0 86 48.5 156.5t123.5 70.5q65 0 118.5 -28t62.5 -62q-38 -34 -72.5 -100.5t-34.5 -126.5q0 -50 38 -96.5t99 -59.5q79 384 154 709q-83 71 -177.5 116.5t-162.5 55.5q-18 3 -47 72.5t-29 85.5q-2 39 82 84t208 81.5t263 61.5q12 47 51 172q84 16 92 -57l-22 -95 q156 20 237 15q30 -3 75.5 -64t45.5 -82q0 -43 -48.5 -95t-106.5 -86t-90 -34q-13 0 -26 9t-13 18q0 8 25.5 49t25.5 51q-3 12 -52.5 10t-125.5 -14l-62 -258q69 -52 126 -109.5t109 -131t81.5 -161t29.5 -180.5t-41 -167.5t-110.5 -120t-157 -69.5t-184.5 -24q-8 0 -23 1.5 t-22 1.5q-10 -59 -11 -68q8 -1 10 -1.5t7.5 -3t7 -7.5t2.5 -13q4 -25 -20 -74.5t-52 -86.5q-38 -49 -116 38q8 55 41 236q-109 28 -192 91.5t-124 139t-41 150.5zM465 1100q59 -23 166 -88q7 31 21 85.5t18 73.5q-145 -35 -205 -71zM569 141q105 24 169.5 100.5t64.5 192.5 q0 165 -113 305q-75 -337 -121 -598z" />
<glyph unicode="%" horiz-adv-x="1906" d="M131 1008q0 123 56 229.5t156 171t220 64.5q86 0 113 -31q2 1 13 8t21.5 12.5t14.5 5.5q16 0 36.5 -18.5t45 -44.5t54.5 -52t75 -44.5t96 -18.5q56 0 107.5 15t74.5 30l23 15q5 5 37 47t59.5 64t57.5 22q26 0 75.5 -35t49.5 -57q0 -34 -42 -94.5t-85 -71.5 q-73 -81 -205.5 -303.5t-251.5 -447t-234 -436t-153 -265.5q-33 0 -77 42t-44 72q41 279 88 279q6 0 17 -3t14 -3q4 0 8 4q374 638 639 1050q-5 -4 -16 -11t-52.5 -18t-91.5 -11t-100.5 18t-75.5 43q16 -33 16 -127q0 -21 -4 -53t-16 -79t-30 -93.5t-49.5 -93.5t-71.5 -83 t-99 -58.5t-129 -22.5q-73 0 -132.5 23.5t-97.5 62t-63.5 89.5t-36 102.5t-10.5 105.5zM373 948q-2 -73 16.5 -117.5t59.5 -44.5q52 0 100 89t73 198t23 184q-4 4 -14 13.5t-12 12t-8.5 10t-8 12.5t-4.5 13.5t-4 18.5q-87 0 -152 -113.5t-69 -275.5zM1042 236 q0 108 47.5 221t122.5 191.5t150 92.5q55 -18 61 -39q37 19 86 19q86 0 146 -28t90 -76.5t42.5 -98.5t12.5 -108q0 -145 -47.5 -265.5t-144.5 -196t-226 -75.5q-87 0 -155 33t-107 87t-58.5 116t-19.5 127zM1284 201q-4 -181 74 -181q48 0 88.5 61.5t62.5 146.5t34 156 t13 108q0 20 -1 33t-5 29t-14 24t-25 8q-38 0 -70 -34.5t-48 -76.5t-23 -84q0 -2 -4 -2q-20 0 -39 14q-41 -81 -43 -202z" />
<glyph unicode="&#x26;" horiz-adv-x="1400" d="M25 354q4 85 102 192t309 261q-167 294 -162 412q3 117 142 198.5t348 81.5q96 0 186.5 -48.5t147.5 -134t53 -183.5q-3 -85 -109.5 -185t-330.5 -241q65 -98 170 -244q100 81 179.5 159t110.5 126q47 10 88.5 -1.5t67 -36.5t40 -55t13.5 -59q-1 -44 -97.5 -140.5 t-240.5 -203.5q68 -85 95 -115q14 23 39 23q13 0 25 -6.5t22 -21.5t17.5 -27.5t15.5 -35.5t12 -33.5t10.5 -34.5t7.5 -26q-6 -23 -59.5 -63.5t-91.5 -46.5q-64 39 -250 278q-305 -198 -451 -198q-67 0 -132.5 27.5t-115.5 72.5t-88 98.5t-57 109t-16 101.5zM264 248 q-1 -42 20 -65t58 -23q113 0 389 190q-109 156 -170 250q-149 -109 -221.5 -189.5t-75.5 -162.5zM510 1120q-3 -62 76 -207q164 116 259 199t99 133q1 35 -24 52.5t-60 17.5q-63 0 -143 -26t-142.5 -72.5t-64.5 -96.5z" />
<glyph unicode="'" horiz-adv-x="606" d="M158 985q15 148 59 467q1 14 62.5 0.5t121.5 -44t56 -58.5q-7 -52 -39 -202.5t-41 -229.5q-12 -24 -61 -16t-104 36t-54 47z" />
<glyph unicode="(" horiz-adv-x="585" d="M25 678q0 138 35.5 265.5t95.5 225.5t132 172.5t152 124.5q25 16 97 -18.5t131 -73.5l-6 -37q-426 -313 -426 -809q0 -80 26 -167t66.5 -160t81.5 -129t79 -95q2 -35 -26 -71.5t-80 -40.5q-55 55 -111 131t-114.5 181.5t-95.5 237.5t-37 263z" />
<glyph unicode=")" horiz-adv-x="741" d="M66 -86l6 35q202 150 314 373t112 479q0 105 -45.5 221t-99 194.5t-109.5 135.5q-2 36 24.5 71t81.5 39q43 -43 86.5 -97.5t94 -136t89 -168t64 -195t25.5 -214.5q0 -138 -36 -272t-95.5 -239.5t-132.5 -187t-152 -130.5q-28 -18 -107 15t-120 77z" />
<glyph unicode="*" horiz-adv-x="1013" d="M115 1188q26 8 62.5 13t90.5 10.5t84 9.5q-23 22 -80 61t-86 70q-15 15 -15 32.5t12 31.5t30.5 26t41 15t42.5 -1l131 -147q3 17 9 96.5t18 120.5q16 48 93.5 38t115.5 -53q-7 -43 -29 -130t-29 -124q14 1 89.5 20.5t131.5 12.5q19 -1 53 -62q47 -82 37 -122 q-4 -19 -24 -19q-31 -1 -107 2t-114 1l155 -138q37 -34 -8 -60q-43 -24 -99 -16l-15 3l-148 157q-4 -39 -2.5 -115.5t-1.5 -107.5q-5 -34 -46 -34t-88.5 23t-76.5 52l33 199q-31 -5 -86.5 -18.5t-67.5 -16.5q-31 -6 -67 35t-46 81t7 54z" />
<glyph unicode="+" horiz-adv-x="1038" d="M109 623q104 31 282 53q24 170 60 289q17 43 110 25t133 -60q-6 -30 -41 -225l88 6q9 0 15 18.5t12 18.5q12 1 32 -7t39 -17.5t23 -10.5q30 -8 68 -74q44 -77 33 -115q-6 -18 -27 -18q-139 -3 -315 -19q-28 -188 -41 -284q-9 -33 -55.5 -27t-103.5 32.5t-87 53.5 q2 12 28 199q-30 -4 -79 -12t-58 -9q-31 -6 -70 39t-51.5 88t5.5 56z" />
<glyph unicode="," horiz-adv-x="632" d="M127 -301q93 53 154.5 133t64.5 133q-28 -5 -61.5 4t-62.5 39t-29 76q0 28 10.5 59t33 63.5t68.5 53.5t107 21q58 0 104.5 -54t46.5 -143q0 -164 -65.5 -292t-165.5 -185q-51 -26 -95.5 -24t-75.5 33.5t-34 82.5z" />
<glyph unicode="-" horiz-adv-x="978" d="M117 633q128 38 349 61.5t318 18.5q19 -1 56 -70q50 -94 41 -140q-5 -21 -25 -22q-353 -6 -625 -55q-32 -6 -70.5 45t-50 99.5t6.5 62.5z" />
<glyph unicode="." horiz-adv-x="632" d="M195 92q0 30 13 63.5t39.5 67.5t76.5 56t114 22q43 0 81 -37t38 -106q0 -30 -8.5 -69.5t-26.5 -84.5t-55.5 -75.5t-87.5 -30.5q-58 0 -84.5 19.5t-22.5 68.5q-77 27 -77 106z" />
<glyph unicode="/" horiz-adv-x="1050" d="M-4 -221q31 213 67 268q10 22 26 25t26.5 -3.5t17.5 1.5q74 126 184 335.5t199.5 380.5t183 336.5t168.5 260t121 94.5q33 0 66.5 -29t27.5 -57q-79 -78 -230.5 -341t-290 -537.5t-269.5 -529t-168 -307.5q-31 -2 -82 37t-47 66z" />
<glyph unicode="0" horiz-adv-x="946" d="M-20 459q0 179 45.5 357t115.5 310t156 219.5t166 102.5q15 -4 25 -9.5t13.5 -9.5t11.5 -15t11 -15q62 35 125 35q157 0 237.5 -115.5t80.5 -308.5q0 -102 -9 -205.5t-30.5 -214.5t-53.5 -210.5t-82 -189.5t-112.5 -155t-147.5 -103t-184 -38q-81 0 -145 32.5t-105 86.5 t-68.5 128.5t-38.5 152.5t-11 165zM227 348q-3 -128 25.5 -186t97.5 -58q79 0 151 99.5t120 250.5t77 320.5t33 319.5q7 178 -76 178q-105 0 -188 -236q0 -2 -4 -2q-11 0 -40 11t-34 20l-19 -45q-97 -260 -131 -522q-10 -79 -12 -150z" />
<glyph unicode="1" horiz-adv-x="808" d="M-25 33q1 18 127 66t191 63q-5 7 -16.5 15.5t-17.5 16t-3 17.5q19 110 77.5 424t76.5 430q-60 -50 -161 -119t-122 -69q-49 0 -95 53.5t-46 81.5q1 12 23.5 27.5t64 37.5t61.5 35q116 73 281.5 203t183.5 143q14 -6 35.5 -16t65.5 -41t61 -60q-1 -19 -12 -41.5t-28.5 -51 t-25.5 -46.5q-16 -35 -74 -364.5t-98 -616.5q185 51 240 51q12 0 55 -81t43 -89q0 -4 -3 -16t-3 -16q-159 -31 -382.5 -85.5t-383.5 -101.5q-20 -6 -69.5 56.5t-45.5 93.5z" />
<glyph unicode="2" horiz-adv-x="962" d="M-47 905q35 141 134.5 265.5t238 200t276.5 75.5q110 0 201.5 -52t139.5 -128t48 -154q0 -86 -36 -180.5t-103 -189.5t-140.5 -178.5t-170.5 -178.5l-174 -182l411 92q22 43 70 43q25 0 66.5 -89.5t41.5 -129.5q0 -34 -61 -43q-72 -14 -256 -44.5t-315.5 -55 t-169.5 -39.5q-45 3 -100 55.5t-58 101.5l37 39q-3 5 -5 20.5t1 18.5l305 338q186 208 260 307q170 227 170 371q0 34 -20.5 51.5t-51.5 17.5q-116 0 -253.5 -92.5t-194.5 -210.5l20 -39q0 -20 -69.5 -68.5t-116.5 -62.5z" />
<glyph unicode="3" horiz-adv-x="937" d="M-37 242q7 10 18 23.5t36.5 32t41.5 9.5q26 -22 84.5 -75t75.5 -68q74 0 159.5 36.5t160.5 97t125.5 150t52.5 185.5q1 37 -20.5 56.5t-59.5 19.5q-44 0 -78 -11q-57 -46 -164 -69q-38 13 -83.5 61.5t-61.5 87.5q15 25 67.5 57t110.5 42q82 62 146 154.5t67 174.5 q0 72 -68 72q-47 0 -99 -26t-94.5 -63.5t-87 -91t-73.5 -95.5t-59 -89q-38 -3 -97 58.5t-59 87.5q1 32 27 82t75 106.5t111.5 106t146 82t168.5 32.5q70 0 129.5 -27t95.5 -66.5t61.5 -86t35 -85t8.5 -64.5q-2 -51 -20.5 -100.5t-44 -84t-51 -61.5t-42.5 -40l-18 -13v-6 q47 -2 96 -22t91.5 -53.5t68.5 -85t23 -110.5q-4 -103 -45 -198.5t-108 -168t-150.5 -127.5t-175.5 -83.5t-181 -28.5q-130 0 -232.5 94t-109.5 191z" />
<glyph unicode="4" horiz-adv-x="964" d="M-18 588q-6 60 86.5 406.5t150.5 457.5q9 14 46.5 6t79 -23.5t76 -37.5t36.5 -37q-161 -475 -213 -721q18 0 145.5 39t151.5 51q103 503 129 717q42 9 134 -26.5t99 -80.5q2 -17 -19.5 -156t-43.5 -269l-23 -130q3 0 31 7.5t33 7.5q23 -6 51.5 -46t47 -85.5t17.5 -69.5 l-235 -59q-3 -18 -38 -241t-62 -333q-6 -14 -15 -18.5t-29 -1.5q-23 2 -112 37t-90 49v6l82 452l-4 3q-25 -6 -100 -26t-139 -35.5t-105 -20.5z" />
<glyph unicode="5" horiz-adv-x="860" d="M-76 260q2 2 4.5 5.5t12 15t18 19.5t21 19.5t21.5 16t20.5 8.5t17.5 -4q28 -22 93.5 -92t96.5 -90q65 17 135 64t132.5 117t102.5 170t40 208q0 66 -29 101.5t-82 35.5q-32 0 -67.5 -8t-73.5 -24.5t-61 -27.5t-59.5 -31t-39.5 -22q-53 30 -107 74.5t-71 79.5 q2 36 16 161.5t15 166.5q2 30 2.5 84.5t1.5 60.5q7 41 82.5 59.5t142.5 18.5v-49q25 7 186.5 45.5t225.5 56.5q42 -23 95.5 -78t66.5 -92l-13 -43q-95 -30 -581 -133l-19 -147q90 51 205 51q105 0 197 -59t147 -159.5t55 -217.5q0 -127 -49.5 -250t-129.5 -213 t-185.5 -145.5t-212.5 -55.5q-119 0 -236.5 102.5t-136.5 200.5z" />
<glyph unicode="6" d="M-20 492q0 171 57 347.5t144 308.5t195.5 216t207.5 84q71 0 156.5 -40.5t150.5 -102t78 -119.5q-3 -5 -8.5 -12.5t-20.5 -25.5t-29 -30.5t-31 -20t-28 -1.5q-33 23 -86 81.5t-82 75.5q-70 -14 -151.5 -97.5t-142 -188t-83.5 -191.5q76 70 140.5 110t134.5 40 q68 0 135.5 -33t115.5 -82t77.5 -106t29.5 -105q0 -108 -38.5 -223t-103 -209t-159 -154.5t-197.5 -60.5q-93 0 -171 32t-131 85t-90 123.5t-53.5 145.5t-16.5 153zM262 348q-3 -110 20.5 -169.5t67.5 -59.5q78 0 153.5 96.5t119.5 225.5t47 237q3 76 -52 76 q-44 0 -86 -21.5t-72 -53t-54 -62.5t-42 -52.5t-26 -21.5q-36 0 -53 14q-19 -68 -23 -209z" />
<glyph unicode="7" horiz-adv-x="985" d="M-37 1280q-22 54 -1.5 79t89.5 25q196 0 467.5 31t382.5 84q53 -23 85 -82t44 -119l-84 -32l39 -52q-148 -220 -246 -401l35 4q41 6 77 5t46 -19q8 -15 31.5 -17t38.5 -14q10 -7 35.5 -49t25.5 -51q0 -31 -39 -31q-129 -3 -358 -35q-156 -313 -328 -743q-18 -14 -76 1.5 t-111.5 47t-58.5 57.5q93 239 283 592l-100 -18q-32 -6 -70 27.5t-56 73.5t-1 52q42 28 344 80q64 114 129.5 227.5t99.5 170.5l33 57q-88 -23 -243.5 -46.5t-242.5 -23.5q48 -168 48 -227v-4q0 -17 -1 -25.5t-8 -17t-22 -8.5q-17 3 -43 9t-75 24.5t-62 35.5 q-42 136 -107 332z" />
<glyph unicode="8" horiz-adv-x="968" d="M-47 354q1 86 98 199t303 272q-57 52 -80 73.5t-66 64t-61 67t-40.5 60t-30.5 66.5t-8 63q2 82 85 146.5t221.5 99t305.5 34.5q17 -4 22 -20.5t2.5 -31t4.5 -22.5q26 11 49 11q50 0 110.5 -49.5t100.5 -116.5t39 -115q-2 -58 -52.5 -132t-115.5 -136t-158 -137 q66 -60 101.5 -93.5t83 -86t71 -91t41 -88t16.5 -98.5q-2 -90 -91.5 -163t-218.5 -110.5t-261 -37.5q-102 0 -193.5 36.5t-150.5 92t-93.5 120t-33.5 123.5zM221 246q-1 -42 20.5 -65t57.5 -23q63 0 158.5 31t174 84t79.5 104q1 49 -37.5 105t-130.5 155 q-322 -265 -322 -391zM334 1126q0 -29 33.5 -72t119.5 -126q274 219 277 307q0 32 -27 51t-63 19q-68 0 -146.5 -24.5t-135.5 -67t-58 -87.5z" />
<glyph unicode="9" horiz-adv-x="958" d="M-20 217q2 2 4.5 6t11.5 15t17.5 20t20.5 21t20.5 17.5t19.5 10t16 -1.5q29 -21 93.5 -80.5t101.5 -81.5q111 25 227 161.5t158 295.5q-169 -154 -303 -154q-64 0 -130 32.5t-114.5 81.5t-79.5 108t-31 110q0 69 15 144.5t42.5 150.5t72 143t98.5 120t126 83t152 31 q82 0 156 -34t128.5 -90.5t95 -128.5t61 -150t20.5 -152q0 -145 -34.5 -289t-94.5 -261.5t-135 -209.5t-161.5 -143t-168.5 -51q-84 0 -174 43.5t-153 107.5t-78 125zM274 702q-2 -42 10 -60.5t42 -18.5q55 0 108.5 35t87 77.5t62.5 77.5t39 35q28 0 53 -21q12 70 14 170 q4 102 -12.5 188.5t-56.5 86.5q-74 0 -140 -58.5t-109.5 -146.5t-69.5 -185t-28 -180z" />
<glyph unicode=":" horiz-adv-x="632" d="M201 137q0 28 13 60t39.5 64.5t75.5 53.5t113 21q41 0 80 -35t39 -100q0 -29 -8.5 -66t-26.5 -80t-55.5 -71.5t-87.5 -28.5q-66 0 -124 62.5t-58 119.5zM301 791q0 28 13 60t39.5 64t76 53t113.5 21q43 0 81 -35t38 -100q0 -29 -8.5 -66t-26.5 -79.5t-55.5 -71.5 t-86.5 -29q-60 0 -85.5 17.5t-12.5 64.5q-86 31 -86 101z" />
<glyph unicode=";" horiz-adv-x="632" d="M131 -301q91 51 151.5 130.5t65.5 131.5q-28 -5 -61 3.5t-61.5 37.5t-28.5 74q0 28 10 58.5t32.5 62.5t67 52.5t105.5 20.5q55 0 100 -53t45 -139q0 -163 -63.5 -288.5t-161.5 -182.5q-70 -40 -133.5 -12t-67.5 104zM299 788q0 28 13 60t39.5 64.5t76 53.5t113.5 21 q41 0 79.5 -35t38.5 -100q0 -29 -8.5 -66t-26.5 -80t-55.5 -71.5t-87.5 -28.5q-59 0 -84 17.5t-12 64.5q-86 29 -86 100z" />
<glyph unicode="&#x3c;" horiz-adv-x="798" d="M102 506l13 102q129 140 293.5 272t207.5 132q29 0 61.5 -39.5t49.5 -85.5t10 -66q-62 -34 -174.5 -131.5t-193.5 -195.5q39 -62 85.5 -118.5t107 -122t83.5 -91.5q18 -26 14 -46t-20 -34l-49 -45q-8 -7 -19 -9t-28 5t-33 24q-22 24 -115 119.5t-168 179t-125 150.5z" />
<glyph unicode="=" horiz-adv-x="1157" d="M219 500q126 41 279.5 68.5t261.5 27.5q18 0 56 -58q51 -78 45 -119q-2 -22 -25 -22q-197 2 -496 -71q-32 -7 -72 35t-53 84t4 55zM248 834q72 25 262.5 58.5t239.5 33.5q14 0 26.5 -1.5t22.5 -2.5t20 -5.5t16 -6t14.5 -9t12 -9.5t12.5 -12t11 -12.5t12 -14.5t12 -15 q9 -12 16 -25t12 -30t-7 -28t-41 -12q-49 -1 -105 -7t-120 -17t-104.5 -19t-110 -23t-84.5 -18q-32 -6 -70.5 36.5t-50.5 84t4 54.5z" />
<glyph unicode="&#x3e;" horiz-adv-x="727" d="M82 236q159 142 326 346q-98 160 -248 307q-35 32 4 82l37 45q12 17 38.5 11t55.5 -32q53 -52 180 -194t199 -232l-19 -108q-4 -4 -40.5 -43.5t-53 -56.5t-56.5 -59t-63.5 -65t-60 -58.5t-61.5 -55.5t-52 -41t-46.5 -29.5t-31.5 -7.5q-33 -1 -63.5 41.5t-42.5 89.5t-2 60 z" />
<glyph unicode="?" horiz-adv-x="1036" d="M129 999q34 141 136 256.5t243 179.5t289 64q75 0 147 -31.5t123 -80t82 -109.5t31 -119q0 -69 -39 -143.5t-103.5 -146.5t-133 -138.5t-144 -145t-119.5 -141.5q-25 -22 -109.5 38t-107.5 110q34 61 102.5 132t138.5 132t136.5 124t108.5 128.5t42 124.5q0 34 -20 54 t-55 20q-124 0 -249.5 -75t-191.5 -196l29 -28q0 -20 -67.5 -74.5t-123.5 -81.5zM322 47q0 22 7.5 51t26 62.5t45 60.5t69.5 45.5t95 18.5q19 0 40 -6.5t42 -20t35 -40.5t14 -62q0 -27 -10 -65.5t-30.5 -80.5t-60 -71t-89.5 -29q-71 0 -127.5 40.5t-56.5 96.5z" />
<glyph unicode="@" horiz-adv-x="1720" d="M51 410q0 156 33.5 304t105.5 280.5t174.5 231.5t250 157.5t323.5 58.5q172 0 312 -59t231 -161.5t139.5 -238.5t48.5 -293q0 -76 -12 -157.5t-40 -167t-69 -153t-105.5 -110.5t-142.5 -43q-69 0 -122.5 20t-83 51.5t-44.5 58t-22 51.5h-10q-34 -60 -99 -105t-147 -45 q-138 0 -233 105.5t-95 279.5q0 175 56.5 322.5t160 235t232.5 87.5q63 0 123 -20t103.5 -63t43.5 -99q0 -22 -3.5 -43.5t-7.5 -32.5l-3 -10q0 -2 27.5 -10t51.5 -27.5t17 -48.5q-16 -79 -53 -224.5t-41 -179.5q-8 -71 21.5 -123.5t89.5 -52.5q67 0 126 84t92 212.5 t33 260.5q0 169 -57.5 298t-176 204.5t-284.5 75.5q-163 0 -296 -55t-222.5 -148.5t-150.5 -222.5t-88 -271.5t-27 -299.5q0 -231 130.5 -374t332.5 -143q69 0 132 17t104 41.5t72.5 49t45.5 41.5l14 17q65 -43 56 -114q-9 -75 -96 -127q-94 -56 -242 -56q-129 0 -243 41 t-198 111.5t-145 163.5t-92 200t-31 218zM700 406q-1 -84 13.5 -120t48.5 -36q36 0 73.5 55.5t63 128.5t41.5 139t16 93q-59 10 -79 39q65 91 69 208q0 62 -33 62q-46 0 -86.5 -61.5t-66.5 -152.5t-42 -185t-18 -170z" />
<glyph unicode="A" horiz-adv-x="1015" d="M-102 -84q21 193 139 490q-36 30 -54 89t5 74q29 20 143 47q95 199 204 372.5t236 311.5t240 191q56 6 120.5 -19.5t92.5 -58.5q-42 -192 -62.5 -419t-20 -426t8.5 -352t21 -257q-3 -16 -29 -19t-62 5.5t-73 21.5t-65.5 30t-36.5 30q-41 70 -37 190l30 6q-5 109 -2 252 q-154 -8 -370 -41q-105 -274 -164 -588q-3 -17 -30 -19.5t-64 6.5t-74.5 23t-65 31t-30.5 29zM428 670l102 10q43 6 98.5 5t63.5 -17q6 -11 13 -15q16 270 69 539l-10 2q-180 -200 -336 -524z" />
<glyph unicode="B" horiz-adv-x="1187" d="M-41 1161q4 7 11 18t33.5 43.5t58.5 62.5t87 66t117 62t149.5 44t184.5 18q250 0 399.5 -115t149.5 -279q0 -107 -75.5 -201.5t-207.5 -162.5q142 -53 226 -148t84 -221q0 -114 -63 -210.5t-167 -159.5t-236 -98.5t-272 -35.5h-37q-4 -16 -4 -26q-7 -30 -21.5 -39.5 t-43.5 -9.5q-48 3 -116.5 31t-80.5 42q0 15 2 21q-67 10 -86 26q-29 25 -36 55t2 58t32 64q5 -1 21 -6t43 -13t51 -14q56 362 122 716.5t99 436.5q18 46 65 59.5t96 0.5t89 -40q-27 -92 -86 -436q33 0 49 -2q140 47 218.5 134.5t78.5 207.5q0 102 -79.5 165.5t-211.5 63.5 q-249 0 -381 -176q-3 -3 2.5 -12t3.5 -12q-13 -14 -64 -50t-65 -36q-39 0 -91.5 41.5t-49.5 66.5zM424 2q94 6 175.5 33t147 74.5t103 121t37.5 164.5q0 74 -47.5 126t-123.5 74t-169 17q-7 0 -27 -4q-57 -356 -96 -606z" />
<glyph unicode="C" horiz-adv-x="1001" d="M25 483q0 98 21 208.5t59 220t96 210t126.5 177.5t157 123t181.5 46q120 0 224.5 -93t104.5 -222q0 -69 -23 -137t-56.5 -116t-72.5 -77.5t-71 -29.5q-52 0 -88.5 35t-52.5 75q5 7 13.5 19t31 50.5t39.5 76t32 90.5t17 100q0 30 -20.5 49t-45.5 19q-52 0 -123.5 -83.5 t-135.5 -210t-109 -294t-45 -318.5q0 -153 49.5 -230t136.5 -77q64 0 117.5 35t87.5 86.5t60.5 121.5t40 128.5t22.5 120.5q43 16 100 16q49 0 82 -39.5t33 -124.5q0 -61 -17 -132t-55.5 -145t-92 -134t-134 -98t-174.5 -38q-237 0 -376.5 161t-139.5 431z" />
<glyph unicode="D" horiz-adv-x="1269" d="M-88 283q26 43 99 79t108 9q33 -27 71 -73.5t41 -72.5q1 -8 -14.5 -14.5t-13.5 -13.5q27 -97 102.5 -160.5t194.5 -63.5q105 0 200.5 64.5t167 178t114 278t42.5 354.5q0 151 -62 253.5t-171 139.5q-50 -227 -112.5 -581t-88.5 -529q-13 -59 -68 -59q-58 0 -122.5 25.5 t-80.5 41.5q32 229 100 555t126 545q-184 -63 -242 -338q0 -2 -10 -2q-21 0 -60 5.5t-87 25t-54 49.5q1 9 4 24t17.5 59t35 84t60.5 89.5t90 85.5t127.5 62t169.5 28q2 14 4.5 23t10 22.5t22.5 20t37 6.5q48 0 98 -16t72 -35l-15 -48q217 -59 344 -229.5t127 -406.5 q0 -215 -57.5 -393.5t-156 -296t-230 -182t-279.5 -64.5q-130 0 -252 43t-209 110.5t-141.5 151.5t-58.5 166z" />
<glyph unicode="E" horiz-adv-x="950" d="M12 106l111 29q14 191 51 430h-6q-19 -3 -41.5 8t-38.5 30t-29 41t-14 39.5t8 25.5q34 21 152 51q45 229 82 366q-10 -2 -44.5 -9.5t-54.5 -10.5q-26 -5 -63.5 32t-52 73.5t1.5 48.5q100 33 280 77q41 98 70 148q153 -17 205 -58l-15 -38q107 19 242 34q9 1 37.5 4.5 t40 4.5t35.5 1t37.5 -3.5t30.5 -11t30 -19.5q8 -8 31.5 -59t23.5 -62q0 -9 -66 -58t-91 -63q-25 -11 -52.5 -16t-45.5 -2t-17 14q0 11 4 27t8 26l4 11q-109 -8 -317 -41q-49 -179 -84 -367l102 10q13 1 39 2.5t37.5 2.5t31 1.5t30 -0.5t22.5 -2t20 -4t13 -8 q27 -25 53.5 -64.5t26.5 -52.5q0 -43 -37 -43q-130 -2 -373 -39q-28 -186 -47 -413q429 103 612 94q20 -1 57 -59q50 -78 43 -118q-4 -20 -26 -20q-228 -5 -702 -96l-5 -82q-1 -17 -26 -18.5t-61 8t-71 22.5t-63 27l-12 -4q-42 -7 -90 53q-41 51 -39 84q1 13 12 16z" />
<glyph unicode="F" horiz-adv-x="1011" d="M18 1260q148 47 418 94q34 81 53 116q53 -6 111 -27t86 -44q-2 -4 -2 -8q206 26 320 34q10 1 46 4.5t54 4t46.5 -4.5t49.5 -18q113 -113 113 -154q0 -19 -15 -31t-41 -12q-321 -9 -636 -49q-47 -175 -95 -403q144 23 219 29q41 6 90 4.5t58 -19.5q8 -15 32 -16.5 t38 -14.5q9 -9 36 -56t27 -58q0 -15 -8.5 -29t-30.5 -14q-180 -3 -504 -47q-54 -292 -102 -695q-2 -17 -27 -19t-59.5 7.5t-70 22.5t-61.5 26t-32 19q48 340 96 598q-3 0 -8.5 -1t-7.5 -1q-19 -3 -42 9.5t-40 33.5t-30.5 44.5t-14.5 42.5t8 27q29 20 174 54q54 255 99 419 q-45 -7 -230 -41q-32 -6 -70.5 36t-50.5 83t4 54z" />
<glyph unicode="G" horiz-adv-x="1048" d="M0 473q0 108 27.5 239t82.5 264.5t128.5 243t175.5 179t213 69.5q140 0 243 -92t103 -223t-62.5 -224t-142.5 -93q-55 0 -104.5 39t-49.5 61q0 5 20.5 29.5t45 57t45 89t20.5 117.5q0 39 -21.5 58.5t-47.5 19.5q-52 0 -124.5 -85t-138.5 -212.5t-112.5 -295t-46.5 -315.5 q0 -150 54.5 -236.5t150.5 -86.5q124 0 204 81t80 212q0 66 -36 118q-95 -22 -134 -26q-37 -5 -78.5 57t-41.5 96q0 46 86 63t155 -3q67 22 154 34.5t143 12.5q42 0 60.5 -5t31.5 -18q28 -27 55 -62.5t27 -47.5q0 -43 -37 -43q-99 -3 -206 -19q73 -77 73 -192 q0 -48 -18.5 -105t-58.5 -117t-95 -109t-137 -80.5t-176 -31.5q-237 0 -373.5 159t-136.5 423z" />
<glyph unicode="H" horiz-adv-x="1138" d="M-92 690q20 14 252 58q97 475 190 716q37 8 123.5 -13t114.5 -44q2 -44 -4 -99t-21 -85l-33 -11q-53 -195 -102 -419q146 23 249.5 32t125.5 0q4 -4 10 -9.5t14 -14t13 -13.5q77 440 145 660q14 35 31.5 53t52.5 19q37 3 102 -16.5t91 -39.5q-97 -382 -179 -849t-82 -672 q-9 -47 -121 -13.5t-135 58.5q-32 43 -41.5 119t9.5 106q5 9 24 0t19 4q33 269 57 414q-160 -11 -426 -56q-76 -435 -82 -731q-9 -32 -63 -25t-119 34t-78 45q5 224 74 632l-94 -18q-31 -6 -66.5 33.5t-51.5 86t1 58.5z" />
<glyph unicode="I" horiz-adv-x="927" d="M-53 111q18 9 51 31.5t54 31.5t38 2q10 -4 17.5 -10.5t12 -9.5t7.5 -2l207 49q-59 22 -62 41q33 232 91.5 508.5t109.5 459.5q-268 -52 -283 -55q-32 -6 -68.5 37t-47 84.5t5.5 54.5q188 61 394 91.5t362 39.5q81 5 132 -3.5t85 -41.5q9 -9 32 -46t23 -48 q0 -10 -45.5 -40t-71.5 -40q-28 -11 -58 8.5t-44 20.5q-67 -5 -156 -19q-49 -183 -109.5 -494t-91.5 -517q229 41 357 35q20 -1 58 -61q51 -79 45 -121q-3 -21 -25 -21q-172 -3 -383 -31.5t-531 -91.5q-32 -6 -68 31t-46 74.5t8 52.5z" />
<glyph unicode="J" horiz-adv-x="1046" d="M-27 264q0 132 54 246q23 26 69 28t96.5 -25.5t79.5 -78.5q15 -25 26.5 -55t6.5 -39q-5 -8 -31 -2t-32 -6q-11 -20 -16.5 -64t-2.5 -82q5 -76 42.5 -128t94.5 -52q62 0 114.5 36t99 123t77.5 221t46 342.5t8 475.5q-230 -40 -347 -67q-26 -6 -60.5 29.5t-57.5 80.5 t-23 68q0 19 35 28q195 53 564.5 96.5t402.5 14.5q14 -14 98 -119l-27 -43q-21 -3 -93 -10t-110 -14l-178 -29q49 -22 70 -43q7 -308 -9.5 -539t-54.5 -386.5t-100 -252.5t-140 -138.5t-181 -41.5q-140 0 -261 59.5t-190.5 157.5t-69.5 209z" />
<glyph unicode="K" horiz-adv-x="1058" d="M10 -8q39 374 109 778t151 619q8 21 13.5 31.5t15.5 22.5t25 17t36 6q57 1 109.5 -17.5t79.5 -41.5q-75 -281 -119 -477q86 71 175.5 138.5t195 138.5t201 114t157.5 43q53 0 82 -33t21 -74q-32 -23 -220 -146.5t-331 -227t-209 -172.5q65 -81 266.5 -281.5t290.5 -314.5 q19 -20 27.5 -35t5.5 -28t-6.5 -18.5t-14.5 -19.5q-15 -19 -61 -51.5t-72 -48.5q-44 -22 -84 20q-106 110 -284 300.5t-226 240.5q-34 -211 -45 -313h5.5t13.5 -2t14.5 -6t8.5 -11.5t-3 -19.5l-68 -191q-19 -25 -75.5 -13t-115 36.5t-69.5 36.5z" />
<glyph unicode="L" horiz-adv-x="808" d="M-35 45q106 28 129 35q51 356 131.5 781t141.5 597q37 22 132 -7.5t132 -59.5q-63 -204 -146 -580.5t-125 -667.5q337 72 533 62q21 -1 65 -64q58 -80 52 -119q-2 -18 -23 -18q-268 -6 -651 -70q-4 -62 -4 -81q-2 -39 -128 -1q-58 18 -102 39l-14 -4q-41 -7 -92 54 q-43 51 -43 86q0 15 12 18z" />
<glyph unicode="M" horiz-adv-x="1503" d="M-29 -82q7 164 64 404.5t142 475t198 430t219 261.5q53 -8 112 -28.5t78 -47.5q-27 -198 -26.5 -473.5t20.5 -394.5h17q44 147 95 300t115 325t123.5 280.5t96.5 108.5q46 0 109 -19.5t81 -40.5q-46 -887 86 -1632q4 -24 -45.5 -30t-117.5 7.5t-113 40.5 q-43 27 -65 454.5t-9 766.5q-289 -680 -315 -1092q-10 -22 -84 -22q-64 0 -113.5 30.5t-58.5 75.5q-14 136 -22.5 234t-15 221t-5 242.5t11.5 242.5l-10 11q-68 -118 -150.5 -376t-128.5 -538q-1 -13 7.5 -17.5t19.5 -3.5t18 -5.5t4 -22.5q-10 -53 -94 -225q-19 -25 -72 -14 t-108.5 35t-63.5 36z" />
<glyph unicode="N" horiz-adv-x="1124" d="M2 -92q10 255 59 575.5t132 612.5t172 389q55 -7 118 -30t92 -52q23 -224 75 -547t89 -432h23q35 175 74.5 349.5t87 362t93 304t75.5 116.5q78 0 149 -17.5t88 -43.5q-94 -228 -165 -449.5t-115 -421.5t-69 -350.5t-46 -322.5q-4 -19 -62 -19q-57 0 -127 26.5t-90 66.5 q-84 302 -206 1011l-15 11q-51 -123 -95.5 -395.5t-47.5 -561.5q0 -13 4 -15.5t15 -3.5t22 -8q16 -10 -0.5 -57.5t-43.5 -101.5t-28 -66q-5 -38 -119 3.5t-139 66.5z" />
<glyph unicode="O" horiz-adv-x="1101" d="M25 555q0 193 69.5 392.5t179.5 337t222 163.5q10 -2 19 -5.5t14 -6t11.5 -8.5t8.5 -8t9 -10t9 -11q68 35 144 35q426 0 426 -506q0 -64 -7.5 -143t-27 -180.5t-49.5 -198t-79 -190.5t-110 -164.5t-148.5 -114t-189.5 -43.5q-104 0 -190 40t-142.5 105.5t-95.5 152.5 t-56 178t-17 185zM291 473q-3 -110 14.5 -196t58.5 -138.5t101 -52.5t112.5 44.5t90 116t68.5 164.5t50.5 186t33 184.5t19.5 155t7 103.5q3 98 -24.5 167t-88.5 69q-178 0 -258 -373q-2 -11 -14.5 -11.5t-27.5 6t-28 15t-18 13.5l-8 -20q-8 -19 -22 -60t-27.5 -92.5 t-24.5 -127t-14 -153.5z" />
<glyph unicode="P" horiz-adv-x="1073" d="M-31 1251q2 5 7 13t24.5 31t45 44.5t72 47t102 44.5t137 31.5t175.5 12.5q130 0 244 -28.5t200 -81t135.5 -133t49.5 -179.5q0 -107 -47.5 -207t-133 -179t-212 -133t-276.5 -69l-60 -348q-3 -12 6 -16t21 -3.5t19 -8t-1 -28.5q-8 -19 -24.5 -64.5t-29.5 -75.5t-26 -48 q-18 -25 -41 -25q-38 0 -123.5 28t-95.5 40q45 303 92 555q-82 9 -135 31q-40 16 -50 54t7 73t47 49q6 -1 25.5 -10.5t56 -22.5t80.5 -20q92 468 125 549q8 24 11 31t12.5 21t25.5 18.5t41 4.5q39 0 92.5 -17t73.5 -40q-37 -110 -121 -565q167 33 269 145.5t102 274.5 q0 130 -100 203t-273 73q-283 0 -389 -203q-1 -1 -3.5 -2t-9 -3t-12.5 -1q-30 5 -81 53.5t-54 83.5z" />
<glyph unicode="Q" horiz-adv-x="1126" d="M43 578q0 174 62.5 367.5t167 335.5t214.5 167q68 -16 99 -47q67 33 143 33q426 0 426 -494q0 -73 -11 -165.5t-34.5 -204t-70 -225t-107.5 -198.5q85 -110 141 -196q50 -63 8 -111q-21 -25 -55.5 -54t-52.5 -40q-10 -9 -38 -6t-46 27l-150 210q-88 -45 -194 -45 q-105 0 -190 33t-142.5 90.5t-96 139.5t-56 177.5t-17.5 205.5zM303 479q-5 -159 51 -263.5t148 -104.5q59 0 114 39l-133 188q-30 43 -6.5 83.5t66 68.5t84.5 38q46 -65 131 -168q59 144 89 329t30 308q0 80 -13 142.5t-42.5 102.5t-71.5 40q-48 0 -89 -22t-68.5 -57 t-45 -72t-25.5 -74q0 -8 -12 -4q-12 0 -35 9t-31 19q-5 -11 -14 -31t-32 -84.5t-41.5 -131.5t-34.5 -164.5t-19 -190.5z" />
<glyph unicode="R" horiz-adv-x="1075" d="M-49 1182q3 7 9 19.5t34.5 46t66.5 61t109.5 56t159.5 40.5q1 5 3 13.5t3.5 14t3.5 9.5q7 21 11.5 32t15 23.5t27.5 17.5t42 5q38 0 92.5 -18t73.5 -40l-16 -55q157 -17 283 -78.5t198 -156.5t72 -207q0 -161 -121.5 -274.5t-323.5 -160.5q178 -178 283 -303l22 9 q23 8 47 -10.5t42 -52t29 -59t18 -46.5q15 -45 0 -68q-13 -22 -81.5 -71t-97.5 -52q-41 42 -254 279.5t-303 320.5l-59 -344q-2 -15 8 -41.5t4 -60.5q-32 -158 -86 -158q-38 0 -126.5 26.5t-98.5 37.5q32 225 109 625.5t139 674.5q-121 -44 -176 -156q-13 -20 -29 -20 q-28 0 -80 46t-53 75zM436 672q198 5 309 84t111 229q0 107 -85 179t-220 93q-40 -182 -115 -585z" />
<glyph unicode="S" horiz-adv-x="1013" d="M-47 305q0 91 48 167.5t122 76.5q66 0 121 -30.5t63 -65.5q-35 -39 -67.5 -110t-32.5 -134q0 -65 42 -114.5t118 -49.5q135 0 221 86.5t86 239.5q0 104 -39 199.5t-98.5 163t-131.5 120t-138.5 81t-119.5 36.5q-18 3 -45.5 84t-27.5 100q-2 62 171.5 133t390.5 113 t345 33q30 -3 74.5 -68t44.5 -88q0 -46 -48 -103.5t-106 -95t-90 -37.5q-14 0 -27.5 9.5t-13.5 19.5q0 8 23.5 51.5t23.5 55.5q-13 17 -93.5 1.5t-196 -56t-171.5 -76.5q30 -13 67 -32.5t94.5 -57.5t111.5 -82.5t110.5 -109t98 -134.5t68 -161.5t26.5 -188.5 q0 -99 -41 -178.5t-110 -128.5t-156.5 -75t-184.5 -26q-121 0 -224 40t-169 103t-102.5 139t-36.5 150z" />
<glyph unicode="T" horiz-adv-x="950" d="M39 1272q194 62 489 94q6 19 39 111q38 19 112.5 -10t111.5 -60l-7 -18l136 8q167 10 198 -21q16 -16 55 -69t39 -70q0 -19 -14.5 -31t-40.5 -12q-166 -3 -424 -31q-82 -375 -172 -1020q4 0 20.5 3t27.5 2t14 -9q6 -21 -19 -82t-54 -112l-28 -51q-9 -21 -49.5 -18.5 t-88 17t-87.5 31.5t-47 25q100 686 215 1179q-162 -25 -305 -59q-31 -6 -70.5 43.5t-53 97.5t2.5 62z" />
<glyph unicode="U" horiz-adv-x="1097" d="M25 391q0 204 68 532t128 517q21 41 82.5 34.5t124 -32t80.5 -43.5q-65 -208 -136 -549.5t-79 -536.5q-9 -135 20.5 -191t92.5 -56q120 0 176.5 206t134.5 760q29 204 45 316q9 50 22.5 70t53.5 20q34 0 113.5 -23.5t99.5 -40.5q-18 -154 -77.5 -520.5t-70.5 -505.5 q-13 -136 5 -186.5t67 -50.5q26 0 48 15t35 32t27 50.5t18 47t13 45.5h11t25.5 -4t32 -12.5t25 -27.5t11.5 -46q0 -44 -15.5 -91t-45 -90t-81 -70.5t-116.5 -27.5q-76 0 -129.5 48t-77.5 118q-19 -40 -47.5 -78t-70.5 -74.5t-100.5 -58.5t-123.5 -22q-184 0 -286.5 134 t-102.5 392z" />
<glyph unicode="V" horiz-adv-x="798" d="M35 1454q4 18 19 31.5t40 13.5q58 0 138.5 -28.5t80.5 -65.5q-15 -325 -6 -609t33 -503h16q40 147 138.5 451.5t187.5 506.5q3 6 -14.5 26.5t-8.5 35.5q29 55 88 113.5t95 58.5q54 0 102.5 -26t48.5 -48q-92 -168 -217 -476t-225 -627t-111 -474q-22 -29 -71 -29 q-47 0 -104.5 22t-106.5 70t-54 109q-3 42 -12.5 173.5t-19.5 264t-21 307t-16.5 302.5t-7.5 250t8 151z" />
<glyph unicode="W" horiz-adv-x="1425" d="M197 1470q9 21 46 25.5t79 -5t82 -32t55 -51.5q-46 -362 -53 -664.5t28 -431.5l12 6q37 246 119 520.5t174 481.5q15 27 57.5 24.5t88.5 -18.5t82.5 -37.5t40.5 -32.5q-57 -475 36 -958q32 207 98.5 478.5t146 488t130.5 229.5q68 9 139 -30t62 -74 q-159 -330 -266.5 -708t-190.5 -859q-26 -2 -61 -4t-92 10t-107 37q-32 18 -66.5 194.5t-56 366.5t-37.5 389h-18q-54 -127 -112.5 -427.5t-77.5 -506.5q-14 -10 -52 -9.5t-95 15.5t-95 37q-68 81 -107 281.5t-44 431.5t9.5 456.5t45.5 376.5z" />
<glyph unicode="X" horiz-adv-x="1060" d="M-35 129q37 47 198.5 254.5t266.5 341.5q-184 282 -276 387q-1 1 -20.5 21t-36.5 39.5t-36.5 45t-29.5 50t-6 41.5q6 25 39.5 64t52.5 42q51 10 92 -33q95 -100 354 -491q436 545 512 545q30 0 77 -34t79.5 -75.5t25.5 -60.5q-94 -100 -526 -635l248 -389q2 -3 18.5 -0.5 t20.5 0.5q18 -10 41.5 -55t39.5 -94.5t22.5 -91.5t-9.5 -48l-100 -74q-60 -20 -82 21q-123 230 -334 565l-246 -305h3.5t9.5 0.5t14 0.5t16.5 -1t17.5 -2t16 -3.5t13 -6t8.5 -8.5t2.5 -11q-1 -17 -76 -62t-150 -81l-75 -37q-20 -1 -71 36t-89 82t-25 62z" />
<glyph unicode="Y" horiz-adv-x="1013" d="M-45 1317q19 32 55 59t74 35t66 -20q74 -77 378 -623q67 129 116.5 220t108.5 190t104.5 159.5t90.5 100t80 39.5q51 0 118.5 -56.5t61.5 -87.5q-73 -61 -186.5 -237.5t-229.5 -394t-223.5 -429.5t-195.5 -383t-119 -215q-35 -2 -141.5 44t-102.5 71q9 63 33 144.5 t51 138.5q11 22 28.5 25t29 -3t18.5 2q92 156 240 445q-212 402 -301 542q-6 10 -26.5 3.5t-29.5 0.5q-26 33 -67 123.5t-31 106.5z" />
<glyph unicode="Z" horiz-adv-x="899" d="M-86 59q-1 58 90.5 212t235.5 350l-103 -17q-21 -3 -43 8t-36.5 29.5t-25 39.5t-10 37.5t10.5 24.5q60 32 362 82q201 260 310 365q-115 -2 -324.5 -37t-290.5 -70q-13 -6 -27.5 20.5t-25.5 65t-18 74.5t-7 51q-1 25 62.5 50.5t161.5 45.5t214.5 38t222.5 29.5t184 18 t101 5.5q29 -1 55.5 -70t26.5 -100q-57 -49 -372 -451q54 4 69 4q46 1 62.5 -5.5t29.5 -27.5q8 -16 27 -18.5t33 -15.5l7 -7q6 -8 10.5 -13t12 -15t11.5 -17.5t8 -17t2.5 -16t-6 -12.5t-16 -9t-29.5 -2q-143 5 -371 -24q-292 -385 -315 -455q163 40 355.5 66.5t338.5 19.5 q28 -4 50 -38t32.5 -76.5t16 -73.5t5.5 -41q0 -17 -86 -29t-257 -29t-289 -37q-198 -29 -349 -82q-31 -2 -53 16t-32.5 48.5t-15 55.5t-5.5 50z" />
<glyph unicode="[" horiz-adv-x="860" d="M102 -317q7 286 88 767t170 799q-17 11 -18 38.5t9.5 55.5t26.5 50.5t30 25.5q131 30 266 46t221 16q23 0 64 -63q46 -72 41 -106q-3 -14 -17 -14q-71 0 -131.5 -4t-89 -7.5t-85.5 -13.5t-79 -13q-189 -838 -229 -1407q172 28 266 28q19 0 57 -56q49 -73 40 -109 q-4 -17 -25 -17q-152 0 -396 -41q-14 -2 -45 -9t-48.5 -9.5t-41.5 -1.5t-42 12t-32 33z" />
<glyph unicode="\" horiz-adv-x="1050" d="M178 1391q0 29 38 57.5t73 28.5q45 0 100 -97t115 -265t116 -343t124 -385t118 -338q2 -4 9 -3t14.5 5t15.5 -1.5t12 -22.5q24 -54 19 -248q-1 -27 -53 -66t-82 -37q-27 53 -107.5 307.5t-165 529t-184 537.5t-162.5 341z" />
<glyph unicode="]" horiz-adv-x="856" d="M-123 -211q85 12 150.5 18.5t130 11.5t102.5 9q171 760 229 1407q-84 -2 -258 -25q-18 -2 -58 50q-52 68 -46 106q5 19 23 23q51 9 133 19t193.5 22t148.5 16q86 9 125 -62q-6 -38 -36.5 -253.5t-64 -443t-72 -467.5t-72.5 -395t-54 -157q-61 -7 -174 -19t-185 -21.5 t-121 -20.5q-20 -5 -62 54q-50 70 -48 108q1 18 16 20z" />
<glyph unicode="^" horiz-adv-x="727" d="M12 1137q209 259 328 338l131 -25q95 -56 200.5 -166t143.5 -170q16 -21 0.5 -60.5t-43.5 -64t-45 -8.5q-47 45 -140.5 148t-142.5 143q-168 -178 -239 -277q-34 -43 -92 -6l-82 55q-14 11 -22.5 23.5t-11.5 32t15 37.5z" />
<glyph unicode="_" horiz-adv-x="995" d="M80 -82q123 34 419.5 51t409.5 11q20 -1 59 -57q50 -72 41 -107q-4 -17 -26 -17q-568 -10 -784 -37q-42 -5 -92 56q-42 52 -39 84q1 13 12 16z" />
<glyph unicode="`" horiz-adv-x="1126" d="M391 1485q-14 20 -8.5 41t29.5 28q25 6 54.5 10t68 -0.5t51.5 -23.5q12 -21 145 -276q10 -17 3 -35t-25 -23q-98 -30 -127 11z" />
<glyph unicode="a" d="M25 356q0 110 20.5 216.5t60.5 199.5t95.5 164.5t130.5 112.5t160 41q133 0 214.5 -53t81.5 -119l-4 -27q3 -1 39.5 -6.5t57 -17t14.5 -31.5q-106 -361 -109 -572q-7 -153 70 -153q34 0 58.5 20.5t39.5 59.5t23 79t14 95q5 1 13.5 1t30 -3t38 -11.5t30 -29.5t13.5 -52 q0 -37 -11.5 -79.5t-36 -86.5t-58 -79t-83.5 -57.5t-106 -22.5q-49 0 -87 16t-58.5 40.5t-31 48t-13.5 44.5h-13q-34 -61 -100.5 -105t-146.5 -44q-155 0 -250.5 110t-95.5 301zM291 279q-3 -90 10.5 -128t48.5 -38q47 0 100.5 119.5t84.5 240.5t34 166q-57 12 -82 43 q62 86 68 190q0 64 -33 64q-45 0 -88.5 -73.5t-72.5 -180t-48 -215t-22 -188.5z" />
<glyph unicode="b" horiz-adv-x="851" d="M33 358q0 160 57 443t121 496.5t88 215.5q37 4 87 -10.5t86 -37.5t36 -42q-127 -395 -158 -551q100 185 217 185q75 0 145.5 -54.5t112 -138.5t41.5 -168q0 -38 -6.5 -94.5t-22 -129.5t-38.5 -146.5t-58.5 -145t-78 -126.5t-102 -88.5t-126.5 -33.5q-194 0 -297.5 110.5 t-103.5 315.5zM272 256q-2 -58 22 -97.5t64 -39.5q59 0 108 67.5t76.5 159.5t46.5 194.5t25.5 165t6.5 78.5v56t-11 43.5t-35 17.5q-40 0 -81 -51t-71.5 -123.5t-52 -141.5t-28.5 -116q0 -4 -10 -4l-33 10l-5 -24q-5 -24 -12.5 -79.5t-9.5 -115.5z" />
<glyph unicode="c" horiz-adv-x="761" d="M23 350q0 106 27.5 220.5t79 220t139 173.5t194.5 68q106 0 197.5 -68.5t91.5 -166.5q0 -136 -52 -214.5t-125 -78.5q-51 0 -80 25t-34 69q-2 4 -2 12q8 11 20 31.5t33 79.5t23 115q3 47 -31 47q-48 0 -96.5 -80.5t-79.5 -217t-31 -282.5q0 -246 156 -246 q76 0 142.5 61.5t102.5 141t45 152.5q31 12 66 12q42 0 71 -33t29 -100q0 -34 -14 -81t-48 -103.5t-83 -104t-128 -79.5t-173 -32q-123 0 -222.5 55.5t-158.5 161t-59 242.5z" />
<glyph unicode="d" horiz-adv-x="942" d="M31 311q0 88 16.5 186t53 199t87.5 182t127.5 132t165.5 51q46 0 89.5 -17.5t63.5 -35.5l21 -17q12 65 25.5 152.5t27 183.5t15.5 109q18 100 59 100q42 0 91 -10t87.5 -33.5t32.5 -54.5q-7 -45 -62 -360t-93.5 -560.5t-38.5 -308.5q0 -92 59 -92q36 0 66 44t46.5 101.5 t24.5 120.5q5 1 12.5 2t27.5 -1t35 -9.5t27.5 -27t12.5 -50.5q0 -38 -15.5 -84t-45 -92t-69 -83.5t-92.5 -61t-110 -23.5q-80 0 -126 49t-46 115h-8q-14 -34 -35.5 -68t-52.5 -70t-73.5 -58.5t-88.5 -22.5q-81 0 -144 38t-99.5 100t-55 132.5t-18.5 142.5zM272 201 q-2 -44 5.5 -84.5t31.5 -40.5q34 0 80.5 72.5t84.5 166.5t65.5 182t29.5 121q-36 8 -55 39q1 5 18.5 53.5t25.5 82t9 61.5q0 68 -32 68q-63 0 -124.5 -125t-98 -291t-40.5 -305z" />
<glyph unicode="e" horiz-adv-x="684" d="M-6 240q0 135 32.5 286.5t86.5 281.5t135 215t168 85q40 0 81.5 -16t81.5 -47.5t65.5 -89t25.5 -130.5q0 -128 -35 -239.5t-95.5 -177.5t-131.5 -66q-31 0 -57 9.5t-42 23t-28 27t-17 22.5l-4 10q-41 -106 -41 -260q0 -75 32 -116.5t97 -41.5q62 0 120.5 39t97 97t63 119 t28.5 110q10 20 41 20q50 0 82.5 -29t32.5 -81q0 -53 -15.5 -113t-50 -121t-82.5 -109.5t-119 -79t-153 -30.5q-103 0 -192.5 46t-148 139.5t-58.5 216.5zM285 547q1 -5 3.5 -13.5t15 -22t30.5 -13.5q32 0 62 59.5t47 145.5t18 169q0 91 -23 91q-12 0 -30 -35 q-89 -193 -123 -381z" />
<glyph unicode="f" horiz-adv-x="671" d="M4 -154q0 70 14 185q19 170 71 413.5t58 290.5l-71 58q-25 19 -44.5 62.5t-19.5 74.5v6q0 22 10 29q16 10 146 33l1 1h1h1h1h1l1 1h1h1h1h1h1l1 1h1h1h1h1h1l1 1h1h1h1h1l1 1h1h1h1h1h1l1 1h1h1q17 86 55.5 289t48.5 253q29 8 70 8q85 0 133.5 -27.5t48.5 -80.5 q0 -35 -10 -91t-21 -100.5t-30.5 -119.5t-26.5 -105q65 9 151 24t136.5 22t83.5 7q49 0 86 -65t37 -109q0 -3 -1.5 -7.5t-14 -12.5t-34.5 -10q-188 -16 -485 -60l-2 -10q108 -113 154.5 -221.5t46.5 -276.5q0 -121 -33.5 -234.5t-84.5 -194t-111.5 -142t-115.5 -91.5 t-94 -30q-92 0 -137 61t-45 166zM279 27q-1 -6 -4 -27t-5.5 -40t-5.5 -44.5t-3 -45.5t2 -38.5t9.5 -28.5t18.5 -10q9 0 27.5 16.5t42.5 54t46 88.5t38 130t18 168q8 248 -90 379q-6 -47 -41 -257t-53 -345z" />
<glyph unicode="g" horiz-adv-x="884" d="M18 -356q-28 28 -30.5 63.5t14.5 64t53 45.5t80 11q22 -40 74 -86t86 -64q82 29 146.5 151.5t101.5 287.5q-25 -28 -39 -43t-42 -40.5t-55 -37.5t-53 -12q-152 0 -232 106.5t-85 298.5q-4 186 50.5 342t163.5 251t251 95q121 0 204.5 -50.5t84.5 -141.5v-29q9 0 24.5 -2 t37.5 -7.5t36 -17.5t12 -28q-6 -34 -26 -181.5t-45.5 -290t-61.5 -282.5q-65 -260 -170.5 -391t-243.5 -131q-112 0 -208 37.5t-128 81.5zM295 315q-1 -85 24 -129.5t64 -44.5q46 0 96 81.5t83 193t40 207.5q-24 -3 -49 28q27 64 33 195q0 32 -15.5 55t-40.5 23 q-48 0 -93 -66.5t-75 -163t-48 -199t-19 -180.5z" />
<glyph unicode="h" horiz-adv-x="958" d="M41 104q0 111 31.5 431t84 639.5t97.5 359.5q15 13 52.5 9.5t77.5 -14.5t70.5 -30.5t30.5 -38.5q0 -50 -9.5 -97.5t-26.5 -104t-23 -80.5q-24 -88 -69.5 -372.5t-45.5 -348.5l19 -4q24 70 56.5 153t82 199.5t98 192t80.5 75.5q89 0 168.5 -39.5t79.5 -75.5 q0 -40 -32.5 -177.5t-64.5 -299t-32 -260.5q0 -62 21 -99.5t65 -37.5q49 0 92 71t62 164q1 -1 12 0.5t28.5 -2.5t34.5 -11t29 -26.5t12 -46.5q0 -111 -106 -200.5t-246 -89.5q-68 0 -119.5 27.5t-80.5 74t-43.5 102t-14.5 117.5q0 82 22.5 208.5t38.5 186.5l-22 5 q-40 -53 -123.5 -293.5t-95.5 -411.5q-27 -22 -80 -22q-83 0 -147 50t-64 117z" />
<glyph unicode="i" horiz-adv-x="501" d="M29 186q0 132 59.5 398t106.5 399q9 27 47 27q15 0 50.5 -6.5t78.5 -19t71 -36.5t19 -53q-57 -196 -106 -404t-50 -307q-1 -52 13.5 -78t39.5 -26q40 0 73 32.5t52 81.5t29.5 92.5t13.5 78.5q1 -2 13.5 0t32 -3t38 -13t32 -30t13.5 -53q0 -53 -27 -113t-73.5 -113.5 t-120.5 -88.5t-158 -35q-119 0 -183 68t-64 202zM238 1280q0 28 8.5 66t27.5 82t57 74t89 30q60 0 84 -18t10 -68q40 -17 63 -40.5t23 -64.5q0 -30 -13 -63t-39 -65.5t-76 -54t-114 -21.5q-42 0 -81 37t-39 106z" />
<glyph unicode="j" horiz-adv-x="428" d="M-252 -444q-54 19 -68.5 64t9 84.5t67.5 47.5q97 -54 215 -82q39 39 78.5 248.5t65 444t45.5 495.5q4 38 7.5 60t12.5 45.5t24.5 34t39.5 10.5q67 0 125.5 -21t91.5 -55q-16 -98 -33 -232.5t-28.5 -243.5t-29 -234.5t-36 -222.5t-49 -190.5t-67.5 -154.5t-91.5 -98 t-122.5 -37q-65 0 -138.5 11t-117.5 26zM193 1303q-1 26 7 61.5t26 76t55.5 68t87.5 27.5q59 0 98.5 -25t42.5 -75q31 -11 36 -19.5t5 -43.5v-13q1 -27 -11.5 -57.5t-38.5 -61t-76 -50.5t-114 -20q-40 0 -79 34.5t-39 97.5z" />
<glyph unicode="k" horiz-adv-x="858" d="M35 12q-6 160 8.5 352t48 408t59.5 358.5t68 350.5q9 55 47 55q35 0 92 -14.5t93 -30.5q27 -12 30.5 -28.5t-4.5 -39.5q-30 -129 -82 -397t-61 -307q146 149 223 212q169 138 281 138q68 0 95.5 -37.5t16.5 -73.5q-286 -169 -497 -391q28 -35 135.5 -161.5t187.5 -227 t146 -196.5q28 -36 31 -57.5t-17 -33.5q-28 -20 -152 -71q-54 -18 -84 20q-19 26 -62.5 86.5t-67 93t-62 86t-64 87t-55.5 72.5t-53.5 66.5t-42.5 47.5q-18 -175 -6 -402q0 -35 -11 -51t-26 -14q-62 10 -156 33q-36 10 -45 21t-14 46z" />
<glyph unicode="l" horiz-adv-x="409" d="M49 0q-6 10 -7 33t0.5 44t4.5 56t4 51q17 238 87.5 652.5t137.5 676.5q7 19 39 19q30 0 81.5 -18.5t90.5 -44t35 -42.5q-170 -799 -213 -1345q-12 -164 -12 -166q-21 -25 -129.5 15.5t-118.5 68.5z" />
<glyph unicode="m" horiz-adv-x="1280" d="M20 201q0 168 32.5 375t75 346t71.5 139q61 0 120.5 -29.5t53.5 -54.5q-3 -14 -17 -71.5t-19 -79t-17.5 -74.5t-18 -79.5t-14 -70.5t-13 -71t-8 -58t-4.5 -53h8q29 76 73.5 200.5t79 216t62.5 154.5q11 21 68 21q81 0 145 -34t58 -79q-3 -31 -28 -221t-30 -279h9 q19 51 70.5 204.5t94 261t93.5 200.5q13 25 73 25q80 0 154 -38t68 -85q-11 -79 -48.5 -224t-66.5 -279.5t-29 -227.5q0 -146 78 -146q31 0 60.5 36t44.5 72t24 70q1 -1 10.5 0.5t24.5 -2.5t29.5 -10.5t25 -23.5t10.5 -42q0 -39 -18.5 -83.5t-52.5 -86t-91.5 -69 t-125.5 -27.5q-71 0 -122.5 24t-79 67.5t-39 97t-9.5 118.5q1 56 21.5 172.5t41.5 204.5h-22q-64 -130 -123 -351.5t-62 -352.5q-39 -29 -94 -29q-185 0 -182 236q3 226 31 493h-17q-159 -430 -164 -637q-41 -33 -92 -33q-98 0 -150.5 70t-52.5 197z" />
<glyph unicode="n" horiz-adv-x="845" d="M25 176q0 222 25 418t74.5 323t113.5 127q43 0 86 -19.5t38 -51.5q-9 -45 -28.5 -134t-31 -142.5t-22 -130.5t-12.5 -144h8q4 10 24 63t25 67.5t24 63t26.5 67.5t25.5 63.5t28.5 68t27.5 62.5t31 67t31 61.5t34 63.5q11 29 63 29q64 0 142 -36t73 -81q-9 -82 -46 -222 t-68 -278t-31 -243q0 -146 80 -146q30 0 60.5 38t45.5 73t27 71h10.5t23.5 -4t30 -12t23.5 -25.5t10.5 -42.5q0 -34 -21 -78.5t-57.5 -87t-95 -71.5t-123.5 -29q-58 0 -102.5 17.5t-72 46t-45 69.5t-24 83.5t-5.5 92.5q3 58 22.5 175.5t38.5 197.5h-25q-71 -140 -132 -338 t-63 -325q-45 -33 -116 -33q-84 0 -117.5 69t-33.5 197z" />
<glyph unicode="o" horiz-adv-x="833" d="M23 434q6 133 56.5 276.5t130 248.5t159.5 124q58 -23 67 -51q39 25 94 25q80 0 139 -23.5t93.5 -60.5t54 -93t25.5 -112.5t4 -126.5q-3 -63 -14.5 -133t-32.5 -154t-57 -158.5t-83 -137t-116 -99.5t-150 -37q-100 0 -176 47.5t-117.5 124.5t-60.5 163.5t-16 176.5z M254 362q-6 -114 21 -189t83 -75q51 0 95.5 54.5t72.5 132.5t49.5 170t31 160t11.5 110q0 4 1 13q2 22 2.5 35t0.5 38t-3 40.5t-9.5 32.5t-19 25.5t-29.5 8.5q-39 0 -80 -53t-71.5 -131.5t-50.5 -145t-31 -117.5q-1 -6 -24.5 1.5t-31.5 14.5q-14 -53 -18 -125z" />
<glyph unicode="p" horiz-adv-x="862" d="M-70 -414q-10 4 -12.5 28t2.5 70.5t12.5 97.5t22 128t27.5 141.5t31.5 159t31.5 160.5q5 139 22.5 293t48 277.5t64.5 123.5q45 0 118 -34t71 -52q-10 -63 -11 -74q102 146 213 146q80 0 140.5 -33.5t95.5 -91.5t52 -129t15 -152q-2 -85 -20 -179.5t-55 -190 t-87.5 -171.5t-124 -124t-157.5 -48q-151 0 -209 113q-14 -90 -33 -265t-24 -204q-5 -20 -14 -30.5t-15 -12t-20 -2.5q-17 -1 -86 19.5t-99 35.5zM301 369q-5 -116 19.5 -190.5t78.5 -74.5q49 0 91.5 54.5t70 132t48.5 169t30.5 159t11.5 108.5q8 108 -4 147q-14 46 -51 46 q-38 0 -77.5 -52.5t-69 -131t-49.5 -144.5t-31 -117q-1 -3 -10.5 0t-20.5 8.5t-16 10.5q-17 -62 -21 -125z" />
<glyph unicode="q" horiz-adv-x="862" d="M25 332q0 197 57 365t170.5 274t261.5 106q66 0 124 -17t100 -59t42 -102l-2 -29q9 0 26 -2t41 -7.5t39.5 -17.5t12.5 -28q-24 -125 -61 -278t-66 -240q-42 -218 -90 -520q-1 -7 9 -10l20 -6t10 -9q2 -35 -16.5 -96t-38.5 -104l-19 -44q-151 9 -223 46q-20 7 -13 91.5 t25 185t43 202.5q-81 -88 -164 -88q-139 0 -213.5 104.5t-74.5 282.5zM291 276q-3 -87 11.5 -125t49.5 -38q39 0 81.5 70t73 162t50.5 172.5t21 109.5q-35 6 -60 37q18 30 36.5 89.5t15.5 115t-42 55.5q-48 0 -93 -72.5t-74.5 -177t-48.5 -212t-21 -186.5z" />
<glyph unicode="r" horiz-adv-x="700" d="M33 59q0 23 6 83t20 203.5t27 318.5q15 219 37 294q27 93 78 93q29 0 70 -14.5t67 -28.5l27 -15q-4 -50 -23 -174.5t-23 -183.5l13 -6q23 55 44.5 123.5t47.5 162.5t29 103q12 41 54.5 55t106.5 0q91 -20 88 -88q-1 -27 -25.5 -83t-49.5 -125.5t-27 -129.5 q0 -21 15.5 -39t37.5 -18q32 0 60 23t43 50.5t26.5 50.5t14.5 23q12 0 26 -2.5t32.5 -17.5t18.5 -41q-2 -82 -65.5 -158t-157.5 -76q-55 0 -93 18t-57 50.5t-27 64t-11 72.5q-32 -75 -61 -160.5t-60.5 -233.5t-36.5 -282q-36 -11 -96.5 0t-118 38.5t-57.5 49.5z" />
<glyph unicode="s" horiz-adv-x="733" d="M-51 250q0 50 18.5 105.5t55 97t79.5 41.5q48 0 98 -35t50 -51q-1 -36 -46.5 -134.5t-45.5 -101.5q-1 -8 5.5 -24t20 -34.5t42 -32t65.5 -13.5q86 0 131 58.5t45 158.5q0 70 -35.5 136t-90 111.5t-115.5 75.5t-115 37q-25 22 -47 89.5t-17 107.5q3 30 101.5 73.5 t219 79.5t222.5 62t119 26q19 0 58.5 -55t39.5 -82q0 -55 -83 -122.5t-136 -67.5q-14 0 -30 27.5t-30 27.5q-46 -1 -130 -32t-101 -46l2 -8q9 -3 24 -10t58.5 -30.5t83 -51t87.5 -73t82.5 -95t58.5 -117.5t24 -141q0 -85 -27 -149.5t-74.5 -101.5t-106.5 -55t-128 -18 q-104 0 -206 58t-164 143.5t-62 165.5z" />
<glyph unicode="t" horiz-adv-x="763" d="M18 969q45 28 256 63q76 235 121 260q21 11 72.5 -6.5t92.5 -43.5t38 -36l-41 -135l80 6q41 6 77 5t46 -19q6 -13 17 -20t31.5 -14t31.5 -13q10 -6 31.5 -47t21.5 -51q0 -31 -39 -31q-116 -2 -358 -29q-129 -463 -129 -663q0 -42 17 -65.5t46 -23.5q99 0 190 94.5 t99 178.5q5 1 13.5 1.5t30.5 -3.5t39 -15.5t30.5 -40t13.5 -71.5q0 -84 -66.5 -160.5t-165 -120t-196.5 -43.5q-134 0 -221.5 99t-87.5 258q0 169 102 536l-94 -16q-24 -4 -49.5 17.5t-39.5 51.5t-19.5 58.5t9.5 38.5z" />
<glyph unicode="u" horiz-adv-x="897" d="M12 250q0 120 35.5 302t89.5 324t99 142q58 0 109 -22.5t65 -45.5q-67 -207 -109.5 -414t-32.5 -348l27 -8q93 123 183.5 388t121.5 446q3 26 59 26q36 0 80.5 -17t74 -40.5t28.5 -40.5q-2 -21 -48.5 -290.5t-48.5 -352.5q-2 -34 4 -67t25.5 -59t48.5 -26q24 0 46.5 20.5 t37 50.5t26 59.5t16.5 50.5l5 20q107 0 107 -80q0 -50 -38 -114.5t-108.5 -115t-148.5 -50.5q-56 0 -97.5 18t-65 45.5t-36.5 65.5t-16 73t0 74l-16 2q-15 -44 -36 -88t-52 -96t-71.5 -84.5t-82.5 -32.5q-57 0 -123 41.5t-112 109.5t-46 134z" />
<glyph unicode="v" horiz-adv-x="647" d="M63 578q0 78 4.5 201t8.5 207l4 83q6 45 59 45q42 0 122.5 -30.5t80.5 -63.5q-31 -156 -39 -432q-2 -52 0.5 -104t7 -97t4.5 -49h15q23 120 74 311t122 372t117 181q16 0 48 -8.5t63.5 -28.5t31.5 -45q0 -34 -42.5 -109t-47.5 -87q-242 -638 -262 -1028q-31 -29 -80 -29 q-103 0 -165.5 47t-71.5 123q-1 10 -12 73t-19 118.5t-15.5 153t-7.5 196.5z" />
<glyph unicode="w" horiz-adv-x="1003" d="M63 518q0 90 10.5 206t41 225.5t73.5 109.5q59 0 125 -34.5t59 -63.5q-59 -235 -61 -441q0 -22 2 -53t2 -39h13q127 328 192 612q11 29 27.5 40.5t50.5 11.5q57 0 112.5 -32t49.5 -59q-75 -369 -64 -643h15q9 42 18 80t30.5 123t42 155t50 156t57.5 146.5t61 106.5t64 55 q17 2 49 -5.5t61.5 -27t29.5 -45.5q0 -21 -14.5 -49t-39 -67.5t-37.5 -70.5q-108 -245 -185.5 -514t-88.5 -503q-29 -29 -80 -29q-69 0 -120 35t-74 83t-25 101q-3 49 -9 228t-5 204h-13q-49 -116 -85 -261t-48 -275q-17 -23 -74 -23q-46 -1 -81.5 23t-58 69t-38 97 t-22.5 120t-10 125t-3 123z" />
<glyph unicode="x" horiz-adv-x="798" d="M-70 121q29 36 152.5 191.5t202.5 250.5q-133 202 -236 303q-16 14 -16.5 29.5t4 21t16.5 19.5l64 76q9 11 38.5 2t55.5 -35q90 -96 199 -266q273 313 342 313q34 0 99.5 -74.5t55.5 -103.5q-86 -47 -348 -375q138 -237 236 -428q39 -76 8 -102l-58 -45 q-16 -15 -43 -13.5t-43 29.5q-29 49 -104.5 186.5t-120.5 216.5q-99 -126 -151 -184l12 -39q-62 -62 -117.5 -98t-80.5 -42l-25 -5q-20 -1 -60.5 34.5t-68 78.5t-13.5 59z" />
<glyph unicode="y" horiz-adv-x="788" d="M12 287q0 336 146 706q24 47 96 47q57 0 108 -29t54 -65q-45 -142 -70.5 -233t-50.5 -221t-29 -238q0 -98 41 -98t92.5 96t73.5 178q2 9 31 182.5t61 305t58 131.5q76 0 145.5 -29t69.5 -62q0 -85 -26 -194t-59.5 -217t-41.5 -160q-34 -182 -72.5 -436.5t-48.5 -388.5 q-4 -29 -14 -37t-31 -8q-22 0 -85 20.5t-100 36.5q-16 8 -21 17.5t-5 33.5q0 40 39.5 230t48.5 266q-28 -54 -75.5 -91.5t-108.5 -37.5q-66 0 -113 28t-70 75t-33 94t-10 98z" />
<glyph unicode="z" horiz-adv-x="743" d="M-33 90q0 157 498 649q-66 -6 -215.5 -48.5t-173.5 -47.5q-13 -3 -40.5 74.5t-27.5 107.5q0 35 100.5 71t231.5 59.5t244 38t151 14.5q28 0 56 -61.5t28 -90.5q-82 -77 -285 -314t-247 -315q301 66 424 64q23 -3 42.5 -33t30.5 -67.5t17 -67t6 -37.5q0 -17 -76.5 -30 t-186 -23t-136.5 -15q-209 -39 -361 -98q-20 -3 -34.5 3.5t-22.5 19.5t-14 30.5t-7 36t-2 36.5t0 32v12z" />
<glyph unicode="{" horiz-adv-x="860" d="M150 668q8 0 21.5 -0.5t52 1.5t73.5 6.5t78 16t74 28.5t52 45t21 64q0 64 -31.5 201t-31.5 203q0 61 19 107t48 75t76.5 46.5t90.5 25t106 7.5t107.5 -3t107.5 -10q23 -2 57 -68q40 -74 30 -106q-4 -13 -18 -11q-25 3 -72 8q-90 10 -155 13t-101 -27t-36 -102 q0 -70 27.5 -210.5t27.5 -221.5q0 -47 -19 -85t-48 -62t-68.5 -41.5t-75 -26t-74.5 -13.5l3 -12q94 -13 144 -49.5t50 -108.5q0 -56 -26 -134t-52 -149t-26 -108q0 -61 35 -93t90.5 -31t123.5 22q15 4 45.5 -36t42.5 -78t-10 -52q-38 -12 -93.5 -20t-124.5 -10t-136 13 t-123.5 43.5t-91.5 86t-35 137.5q0 51 18.5 113.5t40 110t40 99t18.5 84.5q0 109 -184 109q-20 0 -43.5 25.5t-38.5 59t-19.5 67.5t13.5 51z" />
<glyph unicode="|" horiz-adv-x="716" d="M281 4q-1 22 7 27t16 0t11 4q9 153 10 417t0 458t15 362t53 205q22 19 57 2t44 -47q-22 -112 -28 -498.5t-6 -767t-7 -449.5q-24 -7 -61.5 3.5t-47.5 35.5q-69 194 -63 248z" />
<glyph unicode="}" horiz-adv-x="860" d="M-14 -152l10 17q54 -12 95.5 -19t91.5 -10.5t86 5.5t67.5 28t48 57.5t16.5 93.5q0 44 -19.5 161.5t-19.5 178.5q0 121 62 172.5t192 67.5l2 8q-253 29 -253 174q0 54 21.5 115.5t47 109t47 113.5t21.5 129q0 64 -47 79t-189 -5q-36 0 -70 53.5t-34 89.5q0 17 75 26t142 9 q108 0 199.5 -30t153 -95.5t61.5 -156.5q0 -49 -25.5 -109.5t-56.5 -108.5t-56.5 -104.5t-25.5 -97.5q0 -35 17.5 -60.5t41.5 -38.5t58 -21t56 -9.5t46 -1.5h20q32 -17 65.5 -89t33.5 -102q0 -8 -35.5 -11t-86 -8t-101 -16.5t-86 -43t-35.5 -81.5q0 -36 19.5 -140.5 t19.5 -174.5q0 -189 -154 -280.5t-430 -43.5q-30 5 -61 74.5t-31 95.5z" />
<glyph unicode="~" horiz-adv-x="1019" d="M135 596q22 29 53.5 61.5t84.5 66.5t98 34q51 0 99 -20t77 -43.5t62.5 -43.5t60.5 -20q35 0 67 23t56.5 46t42.5 23q17 0 31.5 -29t14.5 -69t-20 -66q-126 -147 -258 -147q-44 0 -91.5 21.5t-80.5 47t-68.5 47t-58.5 21.5q-20 0 -61 -49t-58 -49q-21 0 -39 29.5t-21 61.5 t9 54z" />
<glyph unicode="&#xa1;" horiz-adv-x="706" d="M135 -324q11 38 72 232.5t93.5 324t51.5 269.5q11 15 38.5 9.5t56.5 -19t51.5 -39t23.5 -50.5q-2 -215 -32.5 -491.5t-79.5 -423.5q-3 -11 -15.5 -20t-23.5 -9q-31 0 -87 11.5t-87 31.5q-14 7 -3 36t3 36q-6 6 -16.5 13t-18.5 12.5t-16.5 14t-13 17t-4 20t6.5 25.5z M307 860q0 21 4.5 49t17.5 63t32.5 64t52 48.5t73.5 19.5q67 0 127 -62.5t60 -119.5q0 -28 -13.5 -60t-40.5 -63.5t-77.5 -52.5t-114.5 -21q-43 0 -82 35t-39 100z" />
<glyph unicode="&#xa2;" horiz-adv-x="761" d="M23 350q0 83 20 173t64 181t107 163t157.5 118t206.5 47q30 115 55 187q85 17 90 -58q-16 -64 -33 -139q108 -22 177 -83.5t69 -143.5q0 -83 -51 -116.5t-140 9.5q-1 5 1 29.5t1 49t-7 52t-27 49t-54 29.5q-121 -524 -176 -838q68 12 127 74t91.5 136t41.5 143 q31 12 66 12q42 0 71 -33t29 -100q0 -34 -14 -81t-48 -103.5t-83 -104t-128 -79.5t-173 -32h-8l-6 -47q18 -15 10 -59q-20 -78 -53 -127q-38 -49 -117 39q12 80 37 215q-137 41 -220 156.5t-83 281.5zM250 303q0 -166 108 -223q83 422 181 809q-124 -47 -206.5 -217 t-82.5 -369z" />
<glyph unicode="&#xa3;" horiz-adv-x="1245" d="M80 608q56 34 192 56q8 94 17.5 168t27.5 161t42 151.5t62 128.5t86.5 104.5t116.5 65.5t150 25q106 0 199.5 -40t153 -120t57.5 -182q-2 -64 -28.5 -126.5t-64.5 -107t-81.5 -72t-79.5 -27.5q-91 0 -139 110q7 6 18 17t39.5 45t50.5 68.5t41 83t21 93.5q0 42 -25.5 71.5 t-69.5 29.5q-50 0 -93.5 -24t-77.5 -69t-62 -101t-50 -129t-38.5 -143t-30.5 -153q55 3 92 -5t72 -34q9 -6 32 -42.5t23 -45.5q0 -12 -7.5 -17t-31.5 -5q-58 -2 -207 -11q-40 -288 -47 -327q65 6 309 54.5t275 53.5q27 6 68.5 -45t65.5 -107t9 -65q-36 -22 -208.5 -45.5 t-310.5 -35t-257 -19.5q-58 -74 -103.5 -108t-75 -33t-56.5 26q-35 29 -52.5 67t-16 77t35 74t96.5 55q21 81 41 348l-78 -15q-19 -3 -40 6t-36 24.5t-26 33.5t-10.5 33.5t10.5 23.5z" />
<glyph unicode="&#xa4;" horiz-adv-x="1282" d="M127 270q21 22 79 74.5t79 71.5q-11 51 -11 93t14.5 85.5t35 79t49.5 74.5q-44 50 -119 118q-15 11 -16.5 25.5t4 23.5t14.5 17l51 49q27 27 90 -25q51 -47 95 -102q36 22 69 27q52 -7 66 -19q18 6 65 6q53 0 101 -10q138 115 184 115q31 0 82 -58t41 -81 q-60 -29 -156 -113q9 -44 6 -92q-3 -60 -25 -133t-63 -134q90 -118 117 -159q22 -40 -6 -62l-51 -39q-9 -11 -34.5 -8t-41.5 25l-92 137q-73 -45 -174 -45q-102 0 -174 43q-54 -46 -94.5 -78.5t-53.5 -41.5l-14 -9q-32 0 -84 61.5t-33 83.5zM483 477q-1 -37 7 -66t26 -47 t45 -18q37 0 69 27t51.5 65.5t34.5 84.5t21.5 79.5t7.5 54.5q7 95 -53 95q-30 0 -60 -13t-56 -37.5t-46.5 -57.5t-33 -76.5t-13.5 -90.5z" />
<glyph unicode="&#xa5;" horiz-adv-x="1306" d="M31 1317q20 32 52 57t67.5 31.5t62.5 -21.5q85 -85 383 -618q59 114 100 189.5t92.5 166t90 147.5t80 108.5t77 75.5t66.5 24q52 0 117 -55.5t59 -86.5q-127 -108 -461 -725l68 6q41 6 77 5t46 -19q7 -15 30.5 -17t38.5 -14q10 -8 33 -41t23 -41q0 -30 -39 -30 q-130 -3 -346 -27l-9 -90q46 4 66 4q56 3 96 -6.5t76 -38.5q11 -8 33 -39.5t22 -40.5q0 -31 -39 -31q-117 -3 -272 -16l-41 -401q-35 -2 -149 42.5t-111 69.5l26 256q-105 -16 -122 -20q-19 -3 -40.5 6.5t-37 26t-27.5 35.5t-12 35t10 24q44 27 246 59l10 88 q-123 -19 -149 -24q-19 -3 -41 7t-38.5 27.5t-29 37.5t-13.5 36.5t9 24.5q38 25 262 61q-203 383 -289 518q-7 10 -27.5 3.5t-27.5 0.5q-27 32 -67.5 123t-30.5 107z" />
<glyph unicode="&#xa6;" horiz-adv-x="716" d="M274 4q-1 22 7 27t16 0t10 4q8 117 8 389q90 60 148 20q0 -62 0.5 -191t0 -191.5t-1 -146.5t-3 -130t-6.5 -68q-36 -2 -71 6t-46 33q-62 175 -62 248zM315 768q2 300 21.5 483.5t71.5 225.5q24 18 57.5 1.5t42.5 -46.5q-37 -121 -41 -644q-6 -19 -61 -25t-91 5z" />
<glyph unicode="&#xa7;" horiz-adv-x="1300" d="M66 -115q-7 79 31.5 141t111.5 62q61 0 115 -25.5t67 -56.5q-33 -26 -56 -79t-20 -107q7 -55 52.5 -95t121.5 -40q139 0 215.5 65.5t63.5 190.5q-9 85 -55 161.5t-109.5 130t-138.5 95t-141 64t-119 28.5q-16 3 -51 70t-37 83q-7 42 42 92t122 88t143 56 q-133 149 -152 315q-10 81 22.5 146.5t95.5 105.5t145.5 61t175.5 21q117 0 220.5 -32.5t173.5 -84.5t113 -114t50 -123q8 -76 -32 -139.5t-112 -63.5q-62 0 -115.5 25.5t-66.5 56.5q32 28 55.5 83t16.5 108q-7 55 -51.5 95t-120.5 40q-138 0 -214 -67.5t-63 -192.5 q9 -81 56 -157t112.5 -131.5t141 -99.5t144 -68t120.5 -30q16 -3 45.5 -66t32.5 -81q8 -61 -89 -136.5t-204 -109.5q118 -144 137 -303q10 -82 -22.5 -147.5t-95.5 -106t-144.5 -61.5t-175.5 -21q-116 0 -220 32.5t-173.5 84.5t-112.5 114t-51 123zM385 555 q60 -24 173 -91.5t216 -154.5q155 42 197 129q-63 22 -181 87t-223 151q-144 -49 -182 -121z" />
<glyph unicode="&#xa8;" horiz-adv-x="1126" d="M205 1393q0 25 11.5 53t35.5 56.5t68.5 47.5t101.5 19q37 0 71.5 -31.5t34.5 -89.5q0 -26 -6.5 -56.5t-23 -67.5t-52 -61t-84.5 -24q-42 0 -61 13.5t-18 50.5q-78 27 -78 90zM596 1368q0 24 11 51.5t33 56.5t65.5 47.5t99.5 18.5q39 0 77 -30.5t38 -88.5q0 -25 -7.5 -58 t-24 -71t-50.5 -64t-78 -26q-59 0 -111.5 56t-52.5 108z" />
<glyph unicode="&#xa9;" horiz-adv-x="1658" d="M129 657q0 107 30 216t93.5 211.5t152.5 182t217 127.5t277 48q116 0 218 -41t149 -109q42 17 61 -2q203 -188 203 -526q0 -160 -56 -300t-154.5 -241.5t-240 -160t-305.5 -58.5q-154 0 -278 52.5t-203.5 142.5t-121.5 207.5t-42 250.5zM266 571q0 -198 130 -329 t317 -131q318 0 501 185t183 533q0 110 -29 204t-78 143q-53 -13 -73 22q-34 57 -107.5 96t-163.5 39q-141 0 -255.5 -40.5t-192.5 -110.5t-131 -167.5t-77 -208t-24 -235.5zM477 647q1 58 13.5 120t40 126t66.5 114t98 81.5t130 31.5q76 0 142 -51t65 -121 q-3 -93 -40 -139.5t-91 -46.5q-47 0 -70.5 23t-21.5 55v8q6 4 15 13t23.5 39.5t14.5 66.5q0 30 -31 30q-40 0 -77 -62.5t-58.5 -153t-23.5 -179.5q-1 -80 22.5 -112.5t73.5 -32.5q53 0 102 40t76.5 90t34.5 91q43 10 68 10q34 0 57 -21t22 -69q-1 -23 -12 -55t-36 -70 t-59 -70t-87.5 -53.5t-116.5 -21.5q-156 0 -250 87.5t-90 231.5z" />
<glyph unicode="&#xaa;" horiz-adv-x="888" d="M117 891q0 89 22.5 172.5t63.5 151t106.5 108.5t143.5 41q101 0 171 -44t70 -106l-6 -36l28 -4q29 -3 46.5 -10.5t13.5 -20.5q-22 -87 -43 -185t-24 -127q-7 -96 39 -96q36 0 53 43t24 119q5 1 13 1.5t28.5 -2.5t36 -10t28.5 -26t13 -47q0 -72 -58.5 -136.5t-162.5 -64.5 q-41 0 -71.5 11.5t-46 29.5t-23 33.5t-9.5 30.5h-10q-27 -40 -73 -69.5t-103 -29.5q-122 0 -196 75t-74 198zM170 475q104 27 286.5 44t260.5 13q17 0 48 -54q40 -72 29 -103q-6 -12 -20 -13q-334 -11 -512 -43q-26 -4 -57 34.5t-40.5 75t5.5 46.5zM332 844q-3 -37 -1 -59.5 t9.5 -33t21.5 -10.5q28 0 64 74t58 147.5t26 102.5q-39 9 -51 25q38 54 47 118q0 37 -19 37q-37 0 -73 -76t-57 -166.5t-25 -158.5z" />
<glyph unicode="&#xab;" horiz-adv-x="1105" d="M102 506l17 96q130 124 259 225t165 101q38 0 81.5 -60.5t32.5 -85.5q-184 -134 -319 -284q38 -53 81.5 -100.5t98.5 -99.5t78 -77q16 -19 14 -38t-18 -29l-41 -31q-35 -32 -80 8q-252 231 -369 375zM541 489l16 82q319 303 377 303q36 0 73.5 -60t26.5 -85 q-6 -6 -64 -58t-103 -97t-93 -99q66 -91 98.5 -132t88.5 -103q18 -18 22 -44t-8 -38l-37 -41q-30 -34 -80 10q-92 84 -317 362z" />
<glyph unicode="&#xac;" horiz-adv-x="995" d="M137 768q145 33 352.5 56.5t356.5 23.5q38 -1 53.5 -47.5t10.5 -115t-19.5 -143.5t-34.5 -137.5t-37 -91.5q-3 -6 -19.5 -7t-39.5 7t-44 18.5t-34 27t-10 32.5q30 142 37 219q-314 -23 -457 -47q-31 -6 -70 45.5t-51 99.5t6 60z" />
<glyph unicode="&#xad;" horiz-adv-x="978" d="M117 633q128 38 349 61.5t318 18.5q19 -1 56 -70q50 -94 41 -140q-5 -21 -25 -22q-353 -6 -625 -55q-32 -6 -70.5 45t-50 99.5t6.5 62.5z" />
<glyph unicode="&#xae;" horiz-adv-x="1230" d="M170 1083q0 79 32.5 158.5t93.5 148t161 111.5t223 43q75 0 143 -24t101 -64q28 10 43 -2q133 -106 133 -307q0 -192 -141.5 -320.5t-360.5 -128.5q-203 0 -315.5 110.5t-112.5 274.5zM291 1022q0 -112 77.5 -176t186.5 -64q195 0 318.5 109.5t123.5 306.5q0 114 -69 176 q-32 -7 -43 10q-19 30 -63 50t-95 20q-113 0 -198 -33t-136.5 -92t-76.5 -136t-25 -171zM434 1260l3 6t12 14.5t23 19.5t37.5 18t55.5 13l10 37q2 2 3 6.5t5.5 7t14.5 2.5q24 0 84 -20q-2 -5 -5.5 -17t-4.5 -16q70 -12 117 -49t47 -82q0 -97 -138 -119q27 -26 57 -58t49 -55 t15 -24q-10 -10 -39.5 -29t-42.5 -16q-128 137 -135 143q-13 -76 -14 -86q0 -1 0.5 -11.5t0.5 -18t-2 -16.5t-7 -14t-13 -5q-14 0 -52.5 8.5t-39.5 13.5q9 86 72 340q-40 -10 -53 -36h-5q-6 0 -30.5 18.5t-24.5 24.5zM623 1130q96 13 96 78q0 21 -17 35.5t-49 18.5z" />
<glyph unicode="&#xaf;" horiz-adv-x="1126" d="M264 1399q95 26 272 33.5t248 -0.5q20 -1 55 -55q45 -68 33 -99q-6 -15 -26 -14q-35 0 -127 0.5t-135 0.5t-106 -2.5t-107 -7.5q-42 -5 -87 51q-38 48 -33 78q2 12 13 15z" />
<glyph unicode="&#xb0;" d="M129 1161q0 66 24.5 131t71.5 122t126 92.5t177 35.5q155 0 242.5 -90.5t87.5 -239.5q0 -160 -109 -265t-286 -105q-153 0 -243.5 93t-90.5 226zM346 1159q0 -65 35 -100t88 -35q79 0 130.5 54.5t51.5 146.5q0 61 -35 100t-88 39q-88 0 -135 -59t-47 -146z" />
<glyph unicode="&#xb1;" horiz-adv-x="1075" d="M135 930q106 30 293 53q25 164 61 291q17 43 104 25t128 -60l-41 -227l90 6q7 0 13 18.5t12 18.5q12 1 32 -7t39 -17.5t23 -10.5q30 -8 68 -73q45 -76 35 -114q-6 -18 -27 -18q-157 -3 -322 -18l-29 -197q-17 -44 -99 -16t-134 75q12 74 16 113l-143 -22q-32 -6 -71.5 38 t-52.5 86.5t5 55.5zM143 401q126 37 357.5 72.5t320.5 18.5q30 -6 67 -69q45 -74 37 -116q-5 -22 -28 -22q-296 -5 -635 -66q-32 -6 -71.5 38.5t-52.5 87.5t5 56z" />
<glyph unicode="&#xb2;" horiz-adv-x="780" d="M336 1481q39 117 174 207t281 90q131 0 213.5 -66t82.5 -145q0 -83 -81 -169t-226 -181l-127 -87l277 58q16 24 53 24q16 0 50 -70t34 -93q0 -16 -45 -25q-53 -8 -185 -26t-230 -32.5t-126 -21.5q-32 3 -73.5 48t-42.5 81l26 21q-3 3 -4.5 19t0.5 17l225 179 q67 53 101.5 82t81 72.5t67.5 75.5t21 58q0 31 -39 31q-63 0 -152 -45t-119 -90l5 -25q0 -13 -57.5 -51t-90.5 -35z" />
<glyph unicode="&#xb3;" horiz-adv-x="753" d="M334 1137q4 7 11.5 17.5t26 27t31.5 12.5q19 -7 57 -33.5t62 -46.5q113 0 215 54.5t109 134.5q1 17 -10.5 26.5t-30.5 9.5q-25 0 -49 -8q-51 -37 -123 -45q-30 8 -57 44.5t-35 70.5q12 14 49.5 31.5t79.5 21.5q42 22 96 79.5t55 90.5q0 31 -35 31q-61 0 -154 -67 t-153 -134q-27 -1 -70.5 50t-41.5 65q5 23 37 59t82 73t124.5 63t151.5 26q63 0 113 -24.5t76 -58.5t38.5 -65t9.5 -49q-4 -44 -37 -86t-64 -62l-32 -20v-4q67 -9 129.5 -58.5t57.5 -115.5q-7 -90 -74.5 -157.5t-163 -99.5t-201.5 -32q-120 0 -198 60t-82 119z" />
<glyph unicode="&#xb4;" horiz-adv-x="1126" d="M348 1272q22 26 68.5 90t81.5 103t65 53q60 25 144 -17q58 -29 70 -61q5 -14 -5 -23q-188 -153 -260 -223q-16 -14 -61.5 0t-79.5 39.5t-23 38.5z" />
<glyph unicode="&#xb6;" horiz-adv-x="1253" d="M262 772q-2 41 79 88.5t203 87.5t261 68q44 141 63 188q44 8 73 -5t32 -52q-6 -23 -77.5 -311.5t-98.5 -405t-71.5 -337.5t-66.5 -386q31 6 31 -20q0 -32 -24 -80.5t-52 -85.5q-14 -18 -34 -18.5t-39.5 11.5t-33.5 24t-22 22q47 347 172 884q-91 67 -182 108t-149 44 q-15 1 -39.5 79t-24.5 97zM768 -217q9 49 46.5 266t55.5 308.5t51.5 255t65 276t66.5 201.5q34 -6 49 -9t37.5 -13t34.5 -24q-104 -341 -156 -605.5t-103 -696.5q-1 -41 -78 -6q-53 27 -69 47z" />
<glyph unicode="&#xb7;" horiz-adv-x="632" d="M201 721q0 29 12.5 62.5t38.5 67t74.5 55.5t111.5 22q40 0 77.5 -37.5t37.5 -106.5q0 -29 -8 -67.5t-26 -83t-54.5 -75t-85.5 -30.5q-59 0 -83 18.5t-11 67.5q-84 30 -84 107z" />
<glyph unicode="&#xb8;" horiz-adv-x="1126" d="M340 -393q0 30 18.5 46.5t47.5 16.5q11 0 22 -2.5t16 -5.5l5 -2q8 -54 34.5 -93.5t77.5 -39.5q33 0 53.5 18t20.5 54q0 42 -28 74t-61.5 46t-66 26t-37.5 17q-23 23 49.5 108.5t112.5 111.5q38 30 71.5 17.5t33.5 -42.5q0 -16 -22.5 -38.5t-55 -47.5t-43.5 -37 q47 -13 88.5 -36t75.5 -67t34 -98q0 -87 -66 -140.5t-165 -53.5q-103 0 -159 54t-56 114z" />
<glyph unicode="&#xb9;" horiz-adv-x="671" d="M348 1040q1 11 82 34.5t133 33.5q-5 7 -13 14.5t-10.5 12t-0.5 10.5q15 60 56 202t54 195q-35 -31 -97.5 -64.5t-80.5 -33.5q-37 0 -75 38t-38 66q0 5 6.5 10.5t19 11.5t24.5 11.5t29.5 12.5t27.5 12q82 39 179.5 99t135.5 81q123 -35 148 -72q-6 -33 -43 -98 q-5 -10 -24 -75t-46 -173.5t-49 -210.5q143 31 158 31q8 0 39.5 -66.5t31.5 -70.5q0 -2 -3 -11.5t-3 -11.5q-219 -33 -557 -108q-12 -4 -49 49t-35 71z" />
<glyph unicode="&#xba;" horiz-adv-x="706" d="M119 934q5 87 44 181.5t101 163.5t125 81q45 -17 51 -35q31 16 72 16q63 0 109.5 -15t73 -39.5t42 -61t19.5 -73t2 -81.5q-2 -41 -10.5 -87t-25 -101t-44 -104t-64 -90t-90 -65t-116.5 -24q-78 0 -137 31t-91.5 81.5t-47.5 107t-13 114.5zM131 481q86 27 236.5 43.5 t216.5 12.5q16 -1 43 -58q36 -74 20 -98q-5 -6 -14 -6q-246 -6 -424 -39q-22 -4 -48.5 32t-34.5 70t5 43zM328 893q-6 -71 9 -116.5t50 -45.5q39 0 72 49t53 118.5t31 125.5t14 90q0 3 1 18l1.5 22.5t0.5 22t-2.5 23t-6 17.5t-10.5 13.5t-17 4.5q-24 0 -49.5 -32.5 t-46 -80.5t-34.5 -89.5t-21 -71.5q-1 -2 -7 -0.5t-14.5 4.5t-11.5 6q-10 -33 -12 -78z" />
<glyph unicode="&#xbb;" horiz-adv-x="1173" d="M186 299q9 8 65.5 58.5t102 96t92.5 99.5q-65 92 -97 133t-87 102q-18 18 -22 44t8 38l35 41q13 16 34.5 13.5t44.5 -23.5q98 -88 320 -362l-16 -82q-319 -303 -377 -303q-37 0 -75 59.5t-28 85.5zM565 246q191 143 320 284q-38 53 -81.5 100.5t-98.5 99.5t-78 77 q-16 19 -14.5 38t16.5 29l43 31q35 32 78 -8q86 -77 194 -184.5t176 -190.5l-18 -96q-128 -123 -257 -224.5t-167 -101.5q-36 0 -80 60.5t-33 85.5z" />
<glyph unicode="&#xbc;" horiz-adv-x="1980" d="M131 778q1 11 82.5 35t132.5 33q-5 8 -13.5 15t-12 11.5t-1.5 10.5q16 62 58 203.5t55 193.5q-37 -31 -99.5 -64.5t-80.5 -33.5q-38 0 -75.5 38t-37.5 66q0 7 15.5 16t49 22.5t44.5 18.5q80 38 176 98.5t137 82.5q125 -35 148 -72q-3 -38 -43 -98q-9 -16 -47 -161.5 t-70 -297.5q139 31 156 31q9 0 40 -66.5t31 -71.5q0 -2 -3 -11t-3 -11q-199 -30 -555 -109q-13 -4 -50 49.5t-34 71.5zM461 -121q1 3 4.5 24.5t4.5 27t4.5 26t5 28t5.5 25.5t6.5 27.5t7 24.5t8 24.5t8 20.5t9.5 20q11 20 27 26t26 3t17 6q69 118 183 325t199.5 359.5 t179 307.5t163.5 239t111 84q35 0 64.5 -26.5t23.5 -55.5q-79 -78 -228.5 -324.5t-286 -500.5t-266 -492.5t-166.5 -290.5q-30 -2 -71.5 31.5t-38.5 60.5zM1112 324q-5 33 63 223.5t111 251.5q16 22 108 -5t95 -46q-128 -273 -154 -367q13 0 83 19.5t85 27.5q73 238 96 367 q33 6 110.5 -17.5t82.5 -52.5q2 -9 -14 -77t-32 -132l-17 -63q3 0 18.5 4t19.5 4q37 -4 62.5 -58t21.5 -84l-157 -32q-3 -13 -28 -128.5t-42 -174.5q-5 -14 -13 -19t-28 -2q-25 6 -97 30t-73 30v4l62 231l-5 2q-166 -45 -233 -51z" />
<glyph unicode="&#xbd;" horiz-adv-x="1980" d="M133 778q1 11 82 34.5t133 33.5q-5 7 -13 14.5t-10.5 12t-0.5 10.5q15 60 56 202t54 195q-35 -31 -97.5 -64.5t-80.5 -33.5q-38 0 -75.5 38t-37.5 66q0 5 6.5 10t19 11t25 11.5t29.5 12.5t27 12q81 39 178.5 99.5t136.5 81.5q123 -35 148 -72q-6 -33 -43 -98 q-5 -10 -24 -75t-46 -173.5t-49 -210.5q143 31 158 31q8 0 39.5 -67t31.5 -71q0 -2 -3 -11t-3 -11q-205 -31 -557 -109q-12 -4 -49 49.5t-35 71.5zM465 -121q26 180 61 248q12 20 28 26t25.5 3t16.5 6q70 119 184 325t200 359t179.5 308t163.5 239t111 84q33 0 63.5 -27 t24.5 -55q-79 -78 -228.5 -324.5t-286.5 -500.5t-266.5 -492t-167.5 -291q-30 -2 -70.5 31.5t-37.5 60.5zM1096 500q39 117 173.5 207t280.5 90q132 0 214.5 -65.5t82.5 -145.5q0 -83 -81 -169t-226 -181l-127 -84l277 55q16 24 53 24q17 0 50.5 -70t33.5 -93q0 -15 -43 -25 q-58 -9 -187 -26.5t-229 -31.5t-127 -20q-31 2 -73.5 46.5t-43.5 80.5l27 21q-3 3 -4.5 20.5t0.5 18.5l225 178q66 52 101.5 81t82 71.5t68 75t21.5 58.5q0 16 -12.5 24.5t-28.5 8.5q-62 0 -151.5 -45t-119.5 -90l4 -27q0 -13 -57 -50t-90 -36z" />
<glyph unicode="&#xbe;" horiz-adv-x="1980" d="M121 829q4 7 11.5 18t25.5 27.5t32 12.5q18 -7 55 -33t62 -47q73 0 145 23t123.5 67t57.5 98q0 17 -11 27t-30 10q-23 0 -51 -8q-51 -37 -121 -45q-31 8 -57 44t-35 71q12 14 49.5 31.5t79.5 21.5q42 22 96 79.5t55 90.5q0 31 -35 31q-60 0 -152 -66t-157 -135 q-27 -1 -69.5 50t-40.5 65q4 23 36 59t82 72.5t125 63t152 26.5q63 0 113 -24.5t76 -58.5t38.5 -65t9.5 -49q-4 -44 -37 -86t-65 -62l-31 -20v-4q67 -9 129.5 -58.5t57.5 -115.5q-7 -90 -74.5 -157.5t-163 -99.5t-201.5 -32q-122 0 -199 59.5t-81 118.5zM469 -121 q27 185 61 248q12 20 28 26t25.5 3t16.5 6q68 117 183 325t200.5 359.5t179.5 307t164 239.5t111 84q33 0 62.5 -26.5t23.5 -55.5q-79 -78 -228 -324t-285 -500.5t-265.5 -492.5t-167.5 -291q-30 -2 -71.5 31.5t-37.5 60.5zM1118 324q-3 34 64 224.5t110 250.5 q17 22 108.5 -5t94.5 -46q-128 -281 -152 -367q13 0 81 19.5t87 27.5q86 307 97 367q31 6 108 -17.5t84 -52.5q1 -9 -15.5 -77t-32.5 -132l-17 -63q3 0 20 4t21 4q37 -4 61.5 -57.5t20.5 -84.5l-158 -32q-52 -242 -70 -303q-5 -14 -12.5 -19t-26.5 -2q-23 5 -96.5 29.5 t-73.5 30.5v4l60 231l-4 2q-167 -45 -232 -51z" />
<glyph unicode="&#xbf;" horiz-adv-x="1036" d="M-53 -168q0 69 38.5 143t103.5 146t133 138t143.5 144.5t119.5 141.5q25 22 110.5 -37.5t106.5 -108.5q-34 -61 -102.5 -132.5t-138.5 -132.5t-136.5 -124.5t-108.5 -129t-42 -124.5q0 -34 20.5 -53.5t55.5 -19.5q124 0 249 74.5t191 195.5l-28 31q0 20 67 73t123 80 l145 -147q-34 -141 -136 -256.5t-242.5 -179.5t-288.5 -64q-74 0 -146 31.5t-123 80.5t-82.5 110t-31.5 120zM430 834q0 27 10.5 65.5t31 80t60 70.5t89.5 29q71 0 128.5 -40t57.5 -95q0 -22 -8 -51t-26.5 -62.5t-45.5 -61t-70.5 -46t-95.5 -18.5q-45 0 -88 32t-43 97z" />
<glyph unicode="&#xc0;" horiz-adv-x="1015" d="M-102 -84q21 193 139 490q-36 30 -54 89t5 74q29 20 143 47q95 199 204 372.5t236 311.5t240 191q56 6 120.5 -19.5t92.5 -58.5q-42 -192 -62.5 -419t-20 -426t8.5 -352t21 -257q-3 -16 -29 -19t-62 5.5t-73 21.5t-65.5 30t-36.5 30q-41 70 -37 190l30 6q-5 109 -2 252 q-154 -8 -370 -41q-105 -274 -164 -588q-3 -17 -30 -19.5t-64 6.5t-74.5 23t-65 31t-30.5 29zM428 670l102 10q43 6 98.5 5.5t63.5 -17.5q6 -11 13 -15q16 270 69 539l-10 2q-180 -200 -336 -524zM709 1837q-14 20 -9 41.5t29 28.5q25 6 54.5 10t68 -1t51.5 -24 q24 -42 146 -276q10 -17 2.5 -34.5t-25.5 -22.5q-99 -30 -127 10z" />
<glyph unicode="&#xc1;" horiz-adv-x="1015" d="M-102 -84q21 193 139 490q-36 30 -54 89t5 74q29 20 143 47q95 199 204 372.5t236 311.5t240 191q56 6 120.5 -19.5t92.5 -58.5q-42 -192 -62.5 -419t-20 -426t8.5 -352t21 -257q-3 -16 -29 -19t-62 5.5t-73 21.5t-65.5 30t-36.5 30q-41 70 -37 190l30 6q-5 109 -2 252 q-154 -8 -370 -41q-105 -274 -164 -588q-3 -17 -30 -19.5t-64 6.5t-74.5 23t-65 31t-30.5 29zM428 670l102 10q43 6 98.5 5.5t63.5 -17.5q6 -11 13 -15q16 270 69 539l-10 2q-180 -200 -336 -524zM813 1626q22 26 68.5 90t81.5 103t65 53q60 25 144 -16q58 -29 70 -61 q5 -14 -5 -23q-181 -148 -260 -224q-16 -14 -61.5 0t-79.5 39.5t-23 38.5z" />
<glyph unicode="&#xc2;" horiz-adv-x="1015" d="M-102 -84q21 193 139 490q-36 30 -54 89t5 74q29 20 143 47q95 199 204 372.5t236 311.5t240 191q56 6 120.5 -19.5t92.5 -58.5q-42 -192 -62.5 -419t-20 -426t8.5 -352t21 -257q-3 -16 -29 -19t-62 5.5t-73 21.5t-65.5 30t-36.5 30q-41 70 -37 190l30 6q-5 109 -2 252 q-154 -8 -370 -41q-105 -274 -164 -588q-3 -17 -30 -19.5t-64 6.5t-74.5 23t-65 31t-30.5 29zM428 670l102 10q43 6 98.5 5.5t63.5 -17.5q6 -11 13 -15q16 270 69 539l-10 2q-180 -200 -336 -524zM639 1628q-51 29 8 76q220 170 256 194l101 -14q25 -32 69 -95t80 -117 t39 -58q9 -18 1 -34t-24 -21q-79 -19 -108 10q-15 17 -59 77t-56 74q-14 -12 -65 -53.5t-82 -67.5q-42 -38 -80 -16z" />
<glyph unicode="&#xc3;" horiz-adv-x="1015" d="M-102 -84q21 193 139 490q-36 30 -54 89t5 74q29 20 143 47q95 199 204 372.5t236 311.5t240 191q56 6 120.5 -19.5t92.5 -58.5q-42 -192 -62.5 -419t-20 -426t8.5 -352t21 -257q-3 -16 -29 -19t-62 5.5t-73 21.5t-65.5 30t-36.5 30q-41 70 -37 190l30 6q-5 109 -2 252 q-154 -8 -370 -41q-105 -274 -164 -588q-3 -17 -30 -19.5t-64 6.5t-74.5 23t-65 31t-30.5 29zM428 670l102 10q43 6 98.5 5.5t63.5 -17.5q6 -11 13 -15q16 270 69 539l-10 2q-180 -200 -336 -524zM637 1667q19 36 71.5 77.5t102.5 41.5q49 0 91 -20t74 -40t56 -20 q30 0 71.5 29.5t55.5 29.5q22 0 36.5 -37t0.5 -69q-15 -36 -73 -76.5t-122 -40.5q-41 0 -84 19.5t-79 39t-60 19.5q-21 0 -52 -27.5t-42 -27.5q-25 0 -43 39.5t-4 62.5z" />
<glyph unicode="&#xc4;" horiz-adv-x="1015" d="M-102 -84q21 193 139 490q-36 30 -54 89t5 74q29 20 143 47q95 199 204 372.5t236 311.5t240 191q56 6 120.5 -19.5t92.5 -58.5q-42 -192 -62.5 -419t-20 -426t8.5 -352t21 -257q-3 -16 -29 -19t-62 5.5t-73 21.5t-65.5 30t-36.5 30q-41 70 -37 190l30 6q-5 109 -2 252 q-154 -8 -370 -41q-105 -274 -164 -588q-3 -17 -30 -19.5t-64 6.5t-74.5 23t-65 31t-30.5 29zM428 670l102 10q43 6 98.5 5.5t63.5 -17.5q6 -11 13 -15q16 270 69 539l-10 2q-180 -200 -336 -524zM553 1700q0 25 11.5 53t35.5 56.5t68.5 47.5t101.5 19q38 0 72.5 -31.5 t34.5 -89.5q0 -26 -6.5 -56.5t-23 -67.5t-52 -61t-84.5 -24q-42 0 -61.5 13.5t-18.5 50.5q-78 27 -78 90zM944 1675q0 24 11 51.5t33 56.5t65.5 47.5t99.5 18.5q39 0 77 -30t38 -88q0 -25 -7.5 -58.5t-24 -71.5t-50.5 -64t-78 -26q-59 0 -111.5 56t-52.5 108z" />
<glyph unicode="&#xc5;" horiz-adv-x="1015" d="M-102 -84q21 193 139 490q-36 30 -54 89t5 74q29 20 143 47q134 280 296 508t318 330q-26 39 -26 92q0 81 70 149t192 68q217 0 217 -188q0 -73 -49.5 -127.5t-132.5 -73.5q-38 -190 -57 -411.5t-18 -414t9 -340.5t21 -249q-3 -16 -29 -19t-62 5.5t-73 21.5t-65.5 30 t-36.5 30q-41 70 -37 190l30 6q-5 109 -2 252q-154 -8 -370 -41q-105 -274 -164 -588q-3 -17 -30 -19.5t-64 6.5t-74.5 23t-65 31t-30.5 29zM428 670l102 10q43 6 98.5 5.5t63.5 -17.5q6 -11 13 -15q16 270 69 539l-10 2q-180 -200 -336 -524zM891 1544q0 -22 15 -35.5 t36 -13.5q42 0 67 22.5t25 63.5q0 24 -14.5 39.5t-38.5 15.5q-90 0 -90 -92z" />
<glyph unicode="&#xc6;" horiz-adv-x="1484" d="M-102 -98q24 193 145 489q-38 25 -61 84t0 74q24 14 149 45q97 205 208 382t240 319.5t244 195.5q125 -14 165 -30q28 -11 42 -27l-18 -82q222 49 379 59q69 8 125.5 0.5t89.5 -39.5q9 -9 32 -52t23 -54q0 -9 -67.5 -58.5t-92.5 -62.5q-29 -14 -72 -12q-22 1 -20 10 q2 11 8.5 29t12.5 30l6 12q-66 -8 -131.5 -16.5t-76 -9.5t-44 -6t-40 -7t-59.5 -12.5t-108 -21.5q-28 -218 -33 -375q165 32 223 35q43 6 91.5 4.5t56.5 -19.5q6 -15 30 -16t37 -14q10 -12 32.5 -52.5t21.5 -50.5q0 -14 -9.5 -28t-31.5 -15q-127 -12 -457 -71q0 -134 8 -326 q414 94 578 86q19 -1 58 -61q53 -81 47 -121q-3 -21 -25 -21q-120 -3 -267.5 -25t-373.5 -67l8 -65q-16 -19 -95.5 -10.5t-140.5 32.5l-65 -14q-41 -7 -92 58q-43 56 -43 93q0 16 12 19q77 21 133 33l-2 53q-6 139 0 291l-348 -64q-105 -279 -164 -590q-3 -17 -30 -18.5 t-64.5 9t-75.5 24t-66 27.5t-32 20zM426 662q255 53 264 55q18 231 64 454l-11 3q-75 -78 -157.5 -209.5t-159.5 -302.5z" />
<glyph unicode="&#xc7;" horiz-adv-x="1001" d="M25 483q0 98 21 208.5t59 220t96 210t126.5 177.5t157 123t181.5 46q120 0 224.5 -93t104.5 -222q0 -69 -23 -137t-56.5 -116t-72.5 -77.5t-71 -29.5q-52 0 -88.5 35t-52.5 75q5 7 13.5 19t31 50.5t39.5 76t32 90.5t17 100q0 30 -20.5 49t-45.5 19q-52 0 -123.5 -83.5 t-135.5 -210t-109 -294t-45 -318.5q0 -153 49.5 -230t136.5 -77q64 0 117.5 35t87.5 86.5t60.5 121.5t40 128.5t22.5 120.5q43 16 100 16q49 0 82 -39.5t33 -124.5q0 -61 -17 -132t-55.5 -145t-92 -134t-134 -98t-174.5 -38q-7 0 -21.5 1.5t-21.5 1.5q-55 -41 -70 -60 q34 -10 66 -25.5t63.5 -40t50.5 -59.5t19 -76q0 -87 -66.5 -140.5t-165.5 -53.5q-103 0 -159 54t-56 114q0 30 18.5 46.5t47.5 16.5q11 0 22 -2.5t16 -5.5l5 -2q8 -54 34.5 -93.5t77.5 -39.5q33 0 53.5 18t20.5 54q0 42 -28 74t-61 46t-65.5 26t-37.5 17q-16 16 13 61t77 93 q-165 53 -256.5 201.5t-91.5 365.5z" />
<glyph unicode="&#xc8;" horiz-adv-x="950" d="M12 106l111 29q14 191 51 430h-6q-19 -3 -41.5 8t-38.5 30t-29 41t-14 39.5t8 25.5q34 21 152 51q45 229 82 366q-10 -2 -44.5 -9.5t-54.5 -10.5q-26 -5 -63.5 32t-52 73.5t1.5 48.5q100 33 280 77q41 98 70 148q153 -17 205 -58l-15 -38q107 19 242 34q9 1 37.5 4.5 t40 4.5t35.5 1t37.5 -3.5t30.5 -11t30 -19.5q8 -8 31.5 -59t23.5 -62q0 -9 -66 -58t-91 -63q-25 -11 -52.5 -16t-45.5 -2t-17 14q0 11 4 27t8 26l4 11q-109 -8 -317 -41q-49 -179 -84 -367l102 10q13 1 39 2.5t37.5 2.5t31 1.5t30 0t22.5 -2t20 -4.5t13 -8 q27 -25 53.5 -64.5t26.5 -52.5q0 -43 -37 -43q-130 -2 -373 -39q-28 -186 -47 -413q429 103 612 94q20 -1 57 -59q50 -78 43 -118q-4 -20 -26 -20q-228 -5 -702 -96l-5 -82q-1 -17 -26 -18.5t-61 8t-71 22.5t-63 27l-12 -4q-42 -7 -90 53q-41 51 -39 84q1 13 12 16z M422 1827q-14 20 -9 41t29 28q25 6 54.5 10t68 -0.5t51.5 -23.5q24 -42 146 -276q10 -17 2.5 -35t-25.5 -23q-98 -30 -127 11z" />
<glyph unicode="&#xc9;" horiz-adv-x="950" d="M12 106l111 29q14 191 51 430h-6q-19 -3 -41.5 8t-38.5 30t-29 41t-14 39.5t8 25.5q34 21 152 51q45 229 82 366q-10 -2 -44.5 -9.5t-54.5 -10.5q-26 -5 -63.5 32t-52 73.5t1.5 48.5q100 33 280 77q41 98 70 148q153 -17 205 -58l-15 -38q107 19 242 34q9 1 37.5 4.5 t40 4.5t35.5 1t37.5 -3.5t30.5 -11t30 -19.5q8 -8 31.5 -59t23.5 -62q0 -9 -66 -58t-91 -63q-25 -11 -52.5 -16t-45.5 -2t-17 14q0 11 4 27t8 26l4 11q-109 -8 -317 -41q-49 -179 -84 -367l102 10q13 1 39 2.5t37.5 2.5t31 1.5t30 0t22.5 -2t20 -4.5t13 -8 q27 -25 53.5 -64.5t26.5 -52.5q0 -43 -37 -43q-130 -2 -373 -39q-28 -186 -47 -413q429 103 612 94q20 -1 57 -59q50 -78 43 -118q-4 -20 -26 -20q-228 -5 -702 -96l-5 -82q-1 -17 -26 -18.5t-61 8t-71 22.5t-63 27l-12 -4q-42 -7 -90 53q-41 51 -39 84q1 13 12 16z M524 1618q22 26 68.5 90t81.5 103t65 53q60 25 144 -17q58 -29 70 -61q5 -14 -5 -23q-188 -153 -260 -223q-16 -14 -61.5 0t-79.5 39.5t-23 38.5z" />
<glyph unicode="&#xca;" horiz-adv-x="950" d="M12 106l111 29q14 191 51 430h-6q-19 -3 -41.5 8t-38.5 30t-29 41t-14 39.5t8 25.5q34 21 152 51q45 229 82 366q-10 -2 -44.5 -9.5t-54.5 -10.5q-26 -5 -63.5 32t-52 73.5t1.5 48.5q100 33 280 77q41 98 70 148q153 -17 205 -58l-15 -38q107 19 242 34q9 1 37.5 4.5 t40 4.5t35.5 1t37.5 -3.5t30.5 -11t30 -19.5q8 -8 31.5 -59t23.5 -62q0 -9 -66 -58t-91 -63q-25 -11 -52.5 -16t-45.5 -2t-17 14q0 11 4 27t8 26l4 11q-109 -8 -317 -41q-49 -179 -84 -367l102 10q13 1 39 2.5t37.5 2.5t31 1.5t30 0t22.5 -2t20 -4.5t13 -8 q27 -25 53.5 -64.5t26.5 -52.5q0 -43 -37 -43q-130 -2 -373 -39q-28 -186 -47 -413q429 103 612 94q20 -1 57 -59q50 -78 43 -118q-4 -20 -26 -20q-228 -5 -702 -96l-5 -82q-1 -17 -26 -18.5t-61 8t-71 22.5t-63 27l-12 -4q-42 -7 -90 53q-41 51 -39 84q1 13 12 16z M348 1610q-51 29 8 76q220 170 256 194l101 -14q25 -32 69 -95.5t80 -117.5t39 -58q9 -18 1.5 -34t-23.5 -21q-80 -19 -109 10q-15 17 -59 77.5t-56 74.5q-14 -12 -65 -53.5t-82 -67.5q-42 -38 -80 -16z" />
<glyph unicode="&#xcb;" horiz-adv-x="950" d="M12 106l111 29q14 191 51 430h-6q-19 -3 -41.5 8t-38.5 30t-29 41t-14 39.5t8 25.5q34 21 152 51q45 229 82 366q-10 -2 -44.5 -9.5t-54.5 -10.5q-26 -5 -63.5 32t-52 73.5t1.5 48.5q100 33 280 77q41 98 70 148q153 -17 205 -58l-15 -38q107 19 242 34q9 1 37.5 4.5 t40 4.5t35.5 1t37.5 -3.5t30.5 -11t30 -19.5q8 -8 31.5 -59t23.5 -62q0 -9 -66 -58t-91 -63q-25 -11 -52.5 -16t-45.5 -2t-17 14q0 11 4 27t8 26l4 11q-109 -8 -317 -41q-49 -179 -84 -367l102 10q13 1 39 2.5t37.5 2.5t31 1.5t30 0t22.5 -2t20 -4.5t13 -8 q27 -25 53.5 -64.5t26.5 -52.5q0 -43 -37 -43q-130 -2 -373 -39q-28 -186 -47 -413q429 103 612 94q20 -1 57 -59q50 -78 43 -118q-4 -20 -26 -20q-228 -5 -702 -96l-5 -82q-1 -17 -26 -18.5t-61 8t-71 22.5t-63 27l-12 -4q-42 -7 -90 53q-41 51 -39 84q1 13 12 16z M236 1706q0 25 11.5 53t35.5 56.5t68.5 47.5t101.5 19q37 0 71.5 -31.5t34.5 -89.5q0 -26 -6.5 -56.5t-23 -67.5t-52 -61t-84.5 -24q-42 0 -61.5 13.5t-18.5 50.5q-77 26 -77 90zM627 1681q0 24 11 51.5t33 56.5t65.5 47.5t99.5 18.5q39 0 76.5 -30t37.5 -88q0 -25 -7.5 -58 t-24 -71.5t-50 -64t-77.5 -25.5q-59 0 -111.5 55.5t-52.5 107.5z" />
<glyph unicode="&#xcc;" horiz-adv-x="927" d="M-53 111q18 9 51 31.5t54 31.5t38 2q10 -4 17.5 -10.5t12 -9.5t7.5 -2l207 49q-59 22 -62 41q33 232 91.5 508.5t109.5 459.5q-268 -52 -283 -55q-32 -6 -68.5 37t-47 84.5t5.5 54.5q188 61 394 91.5t362 39.5q81 5 132 -3.5t85 -41.5q9 -9 32 -46t23 -48 q0 -10 -45.5 -40t-71.5 -40q-28 -11 -58 8.5t-44 20.5q-67 -5 -156 -19q-49 -183 -109.5 -494t-91.5 -517q229 41 357 35q20 -1 58 -61q51 -79 45 -121q-3 -21 -25 -21q-172 -3 -383 -31.5t-531 -91.5q-32 -6 -68 31t-46 74.5t8 52.5zM358 1821q-14 20 -8.5 41t29.5 28 q25 6 54.5 10t68 -0.5t51.5 -23.5q6 -10 145 -277q10 -17 3 -34.5t-25 -22.5q-99 -30 -127 10z" />
<glyph unicode="&#xcd;" horiz-adv-x="927" d="M-53 111q18 9 51 31.5t54 31.5t38 2q10 -4 17.5 -10.5t12 -9.5t7.5 -2l207 49q-59 22 -62 41q33 232 91.5 508.5t109.5 459.5q-268 -52 -283 -55q-32 -6 -68.5 37t-47 84.5t5.5 54.5q188 61 394 91.5t362 39.5q81 5 132 -3.5t85 -41.5q9 -9 32 -46t23 -48 q0 -10 -45.5 -40t-71.5 -40q-28 -11 -58 8.5t-44 20.5q-67 -5 -156 -19q-49 -183 -109.5 -494t-91.5 -517q229 41 357 35q20 -1 58 -61q51 -79 45 -121q-3 -21 -25 -21q-172 -3 -383 -31.5t-531 -91.5q-32 -6 -68 31t-46 74.5t8 52.5zM569 1614q22 26 68.5 90t81.5 103 t65 53q60 25 144 -17q58 -29 70 -61q5 -14 -5 -23q-188 -153 -260 -223q-16 -14 -61.5 0t-79.5 39.5t-23 38.5z" />
<glyph unicode="&#xce;" horiz-adv-x="927" d="M-53 111q18 9 51 31.5t54 31.5t38 2q10 -4 17.5 -10.5t12 -9.5t7.5 -2l207 49q-59 22 -62 41q33 232 91.5 508.5t109.5 459.5q-268 -52 -283 -55q-32 -6 -68.5 37t-47 84.5t5.5 54.5q188 61 394 91.5t362 39.5q81 5 132 -3.5t85 -41.5q9 -9 32 -46t23 -48 q0 -10 -45.5 -40t-71.5 -40q-28 -11 -58 8.5t-44 20.5q-67 -5 -156 -19q-49 -183 -109.5 -494t-91.5 -517q229 41 357 35q20 -1 58 -61q51 -79 45 -121q-3 -21 -25 -21q-172 -3 -383 -31.5t-531 -91.5q-32 -6 -68 31t-46 74.5t8 52.5zM401 1618q-51 29 9 76q220 170 256 194 l100 -14q25 -32 69 -95t80 -117t39 -58q9 -18 1.5 -34.5t-23.5 -21.5q-79 -19 -109 11q-15 17 -58.5 77t-55.5 74q-17 -14 -67.5 -55t-80.5 -66q-42 -38 -80 -16z" />
<glyph unicode="&#xcf;" horiz-adv-x="927" d="M-53 111q18 9 51 31.5t54 31.5t38 2q10 -4 17.5 -10.5t12 -9.5t7.5 -2l207 49q-59 22 -62 41q33 232 91.5 508.5t109.5 459.5q-268 -52 -283 -55q-32 -6 -68.5 37t-47 84.5t5.5 54.5q188 61 394 91.5t362 39.5q81 5 132 -3.5t85 -41.5q9 -9 32 -46t23 -48 q0 -10 -45.5 -40t-71.5 -40q-28 -11 -58 8.5t-44 20.5q-67 -5 -156 -19q-49 -183 -109.5 -494t-91.5 -517q229 41 357 35q20 -1 58 -61q51 -79 45 -121q-3 -21 -25 -21q-172 -3 -383 -31.5t-531 -91.5q-32 -6 -68 31t-46 74.5t8 52.5zM313 1706q0 25 11.5 53t35.5 56.5 t68.5 47.5t101.5 19q38 0 72.5 -31.5t34.5 -89.5q0 -26 -6.5 -56.5t-23 -67.5t-52 -61t-84.5 -24q-42 0 -61.5 13.5t-18.5 50.5q-78 27 -78 90zM705 1681q0 24 10.5 51.5t33 56.5t65.5 47.5t99 18.5q39 0 77 -30t38 -88q0 -25 -7.5 -58t-24 -71t-50.5 -64t-78 -26 q-59 0 -111 55.5t-52 107.5z" />
<glyph unicode="&#xd0;" horiz-adv-x="1269" d="M-88 283q26 43 99 79t108 9q33 -27 71 -73.5t41 -72.5q1 -8 -14.5 -14.5t-13.5 -13.5q27 -97 102.5 -160.5t194.5 -63.5q105 0 200.5 64.5t167 178t114 278t42.5 354.5q0 151 -62 253.5t-171 139.5q-38 -164 -101 -516q13 0 35.5 -1t30.5 -1q19 -1 53 -53q46 -69 34 -101 q-5 -15 -26 -14h-158q-31 -172 -69 -424q-13 -59 -68 -59q-58 0 -122.5 25.5t-80.5 41.5q24 180 70 412q-19 0 -47 -4q-42 -5 -87 52q-38 47 -32 77q2 11 13 14q76 21 188 27q58 280 121 522q-184 -63 -242 -338q0 -2 -10 -2q-21 0 -60 5.5t-87 25t-54 49.5q1 9 4 24 t17.5 59t35 84t60.5 89.5t90 85.5t127.5 62t169.5 28q2 14 4.5 23t10 22.5t22.5 20t37 6.5q48 0 98 -16t72 -35l-15 -48q217 -59 344 -229.5t127 -406.5q0 -215 -57.5 -393.5t-156 -296t-230 -182t-279.5 -64.5q-130 0 -252 43t-209 110.5t-141.5 151.5t-58.5 166z" />
<glyph unicode="&#xd1;" horiz-adv-x="1124" d="M2 -92q10 255 59 575.5t132 612.5t172 389q55 -7 118 -30t92 -52q23 -224 75 -547t89 -432h23q35 175 74.5 349.5t87 362t93 304t75.5 116.5q78 0 149 -17.5t88 -43.5q-94 -228 -165 -449.5t-115 -421.5t-69 -350.5t-46 -322.5q-4 -19 -62 -19q-57 0 -127 26.5t-90 66.5 q-84 302 -206 1011l-15 11q-51 -123 -95.5 -395.5t-47.5 -561.5q0 -13 4 -15.5t15 -3.5t22 -8q16 -10 -0.5 -57.5t-43.5 -101.5t-28 -66q-5 -38 -119 3.5t-139 66.5zM530 1688q19 36 72 77t103 41q49 0 91 -20t74 -40t56 -20q30 0 71.5 30t55.5 30q22 0 36.5 -37.5 t0.5 -69.5q-15 -36 -73 -76t-122 -40q-41 0 -84 19.5t-79 38.5t-60 19q-21 0 -52 -27.5t-42 -27.5q-25 0 -43.5 40t-4.5 63z" />
<glyph unicode="&#xd2;" horiz-adv-x="1101" d="M25 555q0 193 69.5 392.5t179.5 337t222 163.5q10 -2 19 -5.5t14 -6t11.5 -8.5t8.5 -8t9 -10t9 -11q68 35 144 35q426 0 426 -506q0 -64 -7.5 -143t-27 -180.5t-49.5 -198t-79 -190.5t-110 -164.5t-148.5 -114t-189.5 -43.5q-104 0 -190 40t-142.5 105.5t-95.5 152.5 t-56 178t-17 185zM291 473q-3 -110 14.5 -196t58.5 -138.5t101 -52.5t112.5 44.5t90 116t68.5 164.5t50.5 186t33 184.5t19.5 155t7 103.5q3 98 -24.5 167t-88.5 69q-178 0 -258 -373q-2 -11 -14.5 -11.5t-27.5 6t-28 15t-18 13.5l-8 -20q-8 -19 -22 -60t-27.5 -92.5 t-24.5 -127t-14 -153.5zM471 1833q-14 20 -8.5 41.5t29.5 28.5q25 6 54.5 10t68 -1t51.5 -24q12 -21 145 -276q10 -17 2.5 -35t-25.5 -23q-97 -30 -126 11z" />
<glyph unicode="&#xd3;" horiz-adv-x="1101" d="M25 555q0 193 69.5 392.5t179.5 337t222 163.5q10 -2 19 -5.5t14 -6t11.5 -8.5t8.5 -8t9 -10t9 -11q68 35 144 35q426 0 426 -506q0 -64 -7.5 -143t-27 -180.5t-49.5 -198t-79 -190.5t-110 -164.5t-148.5 -114t-189.5 -43.5q-104 0 -190 40t-142.5 105.5t-95.5 152.5 t-56 178t-17 185zM291 473q-3 -110 14.5 -196t58.5 -138.5t101 -52.5t112.5 44.5t90 116t68.5 164.5t50.5 186t33 184.5t19.5 155t7 103.5q3 98 -24.5 167t-88.5 69q-178 0 -258 -373q-2 -11 -14.5 -11.5t-27.5 6t-28 15t-18 13.5l-8 -20q-8 -19 -22 -60t-27.5 -92.5 t-24.5 -127t-14 -153.5zM602 1618q22 26 68.5 90t81.5 103t65 53q60 25 144 -17q58 -29 70 -61q5 -14 -5 -23q-188 -153 -260 -223q-16 -14 -61.5 0t-79.5 39.5t-23 38.5z" />
<glyph unicode="&#xd4;" horiz-adv-x="1101" d="M25 555q0 193 69.5 392.5t179.5 337t222 163.5q10 -2 19 -5.5t14 -6t11.5 -8.5t8.5 -8t9 -10t9 -11q68 35 144 35q426 0 426 -506q0 -64 -7.5 -143t-27 -180.5t-49.5 -198t-79 -190.5t-110 -164.5t-148.5 -114t-189.5 -43.5q-104 0 -190 40t-142.5 105.5t-95.5 152.5 t-56 178t-17 185zM291 473q-3 -110 14.5 -196t58.5 -138.5t101 -52.5t112.5 44.5t90 116t68.5 164.5t50.5 186t33 184.5t19.5 155t7 103.5q3 98 -24.5 167t-88.5 69q-178 0 -258 -373q-2 -11 -14.5 -11.5t-27.5 6t-28 15t-18 13.5l-8 -20q-8 -19 -22 -60t-27.5 -92.5 t-24.5 -127t-14 -153.5zM502 1606q-51 29 8 75q12 9 70 55t104.5 81t81.5 59l100 -14q25 -32 69 -95.5t80.5 -117.5t39.5 -58q9 -18 1 -34t-24 -21q-79 -19 -108 10q-15 17 -59 77.5t-56 74.5q-14 -12 -65 -53.5t-82 -67.5q-42 -38 -80 -16z" />
<glyph unicode="&#xd5;" horiz-adv-x="1101" d="M25 555q0 193 69.5 392.5t179.5 337t222 163.5q10 -2 19 -5.5t14 -6t11.5 -8.5t8.5 -8t9 -10t9 -11q68 35 144 35q426 0 426 -506q0 -64 -7.5 -143t-27 -180.5t-49.5 -198t-79 -190.5t-110 -164.5t-148.5 -114t-189.5 -43.5q-104 0 -190 40t-142.5 105.5t-95.5 152.5 t-56 178t-17 185zM291 473q-3 -110 14.5 -196t58.5 -138.5t101 -52.5t112.5 44.5t90 116t68.5 164.5t50.5 186t33 184.5t19.5 155t7 103.5q3 98 -24.5 167t-88.5 69q-178 0 -258 -373q-2 -11 -14.5 -11.5t-27.5 6t-28 15t-18 13.5l-8 -20q-8 -19 -22 -60t-27.5 -92.5 t-24.5 -127t-14 -153.5zM498 1659q19 36 71.5 77.5t102.5 41.5q49 0 91 -20t74 -40t56 -20q30 0 71.5 29.5t55.5 29.5q22 0 36.5 -37t0.5 -69q-15 -36 -73 -76.5t-122 -40.5q-41 0 -84 19.5t-79 39t-60 19.5q-21 0 -52 -28t-42 -28q-25 0 -43 40t-4 63z" />
<glyph unicode="&#xd6;" horiz-adv-x="1101" d="M25 555q0 193 69.5 392.5t179.5 337t222 163.5q10 -2 19 -5.5t14 -6t11.5 -8.5t8.5 -8t9 -10t9 -11q68 35 144 35q426 0 426 -506q0 -64 -7.5 -143t-27 -180.5t-49.5 -198t-79 -190.5t-110 -164.5t-148.5 -114t-189.5 -43.5q-104 0 -190 40t-142.5 105.5t-95.5 152.5 t-56 178t-17 185zM291 473q-3 -110 14.5 -196t58.5 -138.5t101 -52.5t112.5 44.5t90 116t68.5 164.5t50.5 186t33 184.5t19.5 155t7 103.5q3 98 -24.5 167t-88.5 69q-178 0 -258 -373q-2 -11 -14.5 -11.5t-27.5 6t-28 15t-18 13.5l-8 -20q-8 -19 -22 -60t-27.5 -92.5 t-24.5 -127t-14 -153.5zM397 1698q0 25 11.5 53t35.5 56.5t68.5 47.5t101.5 19q38 0 72.5 -31.5t34.5 -89.5q0 -26 -6.5 -56.5t-23 -67.5t-52 -61t-84.5 -24q-42 0 -61.5 13.5t-18.5 50.5q-78 27 -78 90zM788 1673q0 24 11 51.5t33 56.5t65.5 47.5t99.5 18.5q39 0 77 -30 t38 -88q0 -25 -7.5 -58.5t-24 -71.5t-50.5 -64t-78 -26q-59 0 -111.5 56t-52.5 108z" />
<glyph unicode="&#xd7;" horiz-adv-x="1036" d="M121 403q238 252 297 312q-110 140 -199 215q-13 11 -13.5 22t3.5 15t14 12l49 53q6 8 30.5 2t45.5 -24q75 -69 172 -193q229 225 291 225q27 0 89.5 -65.5t53.5 -85.5q-74 -35 -295 -264q90 -128 185 -277q31 -55 4 -74l-47 -30q-10 -10 -33.5 -9t-36.5 19q-4 6 -68 105 t-104 157q-105 -109 -131 -133l12 -27q-52 -44 -98.5 -69.5t-67.5 -28.5l-20 -4q-16 -1 -53.5 30t-64.5 67.5t-15 49.5z" />
<glyph unicode="&#xd8;" horiz-adv-x="1101" d="M25 555q0 193 69.5 392.5t179.5 337t222 163.5q10 -2 19 -5.5t14 -6t11.5 -8.5t8.5 -8t9 -10t9 -11q68 35 144 35q118 0 204 -39q81 108 132 108q32 0 48.5 -20.5t10.5 -50.5q-33 -30 -88 -109q119 -124 119 -395q0 -64 -7.5 -143t-27 -180.5t-49.5 -198t-79 -190.5 t-110 -164.5t-148.5 -114t-189.5 -43.5q-143 0 -252 75q-81 -153 -114 -200q-31 -2 -61 17.5t-27 45.5q7 41 27 95.5t36 80.5q17 34 39 53q-75 95 -112 226t-37 268zM291 473q-3 -113 14 -194q50 93 233 449t271 503q-27 45 -76 45q-178 0 -258 -373q-2 -11 -14.5 -11.5 t-27.5 6t-28 15t-18 13.5l-8 -20q-8 -19 -22 -60t-27.5 -92.5t-24.5 -127t-14 -153.5zM362 139q41 -53 103 -53q60 0 112.5 44.5t90 116t68.5 164.5t50.5 186t33 184.5t19.5 155t7 103.5v4q-56 -97 -130 -233t-112.5 -209t-135.5 -259.5t-106 -203.5z" />
<glyph unicode="&#xd9;" horiz-adv-x="1097" d="M25 391q0 204 68 532t128 517q21 41 82.5 34.5t124 -32t80.5 -43.5q-65 -208 -136 -549.5t-79 -536.5q-9 -135 20.5 -191t92.5 -56q120 0 176.5 206t134.5 760q29 204 45 316q9 50 22.5 70t53.5 20q34 0 113.5 -23.5t99.5 -40.5q-18 -154 -77.5 -520.5t-70.5 -505.5 q-13 -136 5 -186.5t67 -50.5q26 0 48 15t35 32t27 50.5t18 47t13 45.5h11t25.5 -4t32 -12.5t25 -27.5t11.5 -46q0 -44 -15.5 -91t-45 -90t-81 -70.5t-116.5 -27.5q-76 0 -129.5 48t-77.5 118q-19 -40 -47.5 -78t-70.5 -74.5t-100.5 -58.5t-123.5 -22q-184 0 -286.5 134 t-102.5 392zM387 1829q-14 20 -8.5 41t29.5 28q25 6 54.5 10t68 -0.5t51.5 -23.5q12 -21 145 -276q10 -17 3 -35t-25 -23q-98 -30 -127 11z" />
<glyph unicode="&#xda;" horiz-adv-x="1097" d="M25 391q0 204 68 532t128 517q21 41 82.5 34.5t124 -32t80.5 -43.5q-65 -208 -136 -549.5t-79 -536.5q-9 -135 20.5 -191t92.5 -56q120 0 176.5 206t134.5 760q29 204 45 316q9 50 22.5 70t53.5 20q34 0 113.5 -23.5t99.5 -40.5q-18 -154 -77.5 -520.5t-70.5 -505.5 q-13 -136 5 -186.5t67 -50.5q26 0 48 15t35 32t27 50.5t18 47t13 45.5h11t25.5 -4t32 -12.5t25 -27.5t11.5 -46q0 -44 -15.5 -91t-45 -90t-81 -70.5t-116.5 -27.5q-76 0 -129.5 48t-77.5 118q-19 -40 -47.5 -78t-70.5 -74.5t-100.5 -58.5t-123.5 -22q-184 0 -286.5 134 t-102.5 392zM539 1622q22 26 68.5 90t81.5 103t65 53q60 25 144 -17q58 -29 70 -61q5 -14 -5 -23q-194 -159 -261 -223q-16 -14 -61 0t-79 39.5t-23 38.5z" />
<glyph unicode="&#xdb;" horiz-adv-x="1097" d="M25 391q0 204 68 532t128 517q21 41 82.5 34.5t124 -32t80.5 -43.5q-65 -208 -136 -549.5t-79 -536.5q-9 -135 20.5 -191t92.5 -56q120 0 176.5 206t134.5 760q29 204 45 316q9 50 22.5 70t53.5 20q34 0 113.5 -23.5t99.5 -40.5q-18 -154 -77.5 -520.5t-70.5 -505.5 q-13 -136 5 -186.5t67 -50.5q26 0 48 15t35 32t27 50.5t18 47t13 45.5h11t25.5 -4t32 -12.5t25 -27.5t11.5 -46q0 -44 -15.5 -91t-45 -90t-81 -70.5t-116.5 -27.5q-76 0 -129.5 48t-77.5 118q-19 -40 -47.5 -78t-70.5 -74.5t-100.5 -58.5t-123.5 -22q-184 0 -286.5 134 t-102.5 392zM391 1604q-51 29 8 75q12 9 70 55t104.5 81t81.5 59l101 -14q25 -32 69 -95.5t80 -117.5t39 -58q9 -18 1.5 -34t-23.5 -21q-80 -19 -109 10q-15 17 -59 77.5t-56 74.5q-14 -12 -65 -53.5t-82 -67.5q-42 -38 -80 -16z" />
<glyph unicode="&#xdc;" horiz-adv-x="1097" d="M25 391q0 204 68 532t128 517q21 41 82.5 34.5t124 -32t80.5 -43.5q-65 -208 -136 -549.5t-79 -536.5q-9 -135 20.5 -191t92.5 -56q120 0 176.5 206t134.5 760q29 204 45 316q9 50 22.5 70t53.5 20q34 0 113.5 -23.5t99.5 -40.5q-18 -154 -77.5 -520.5t-70.5 -505.5 q-13 -136 5 -186.5t67 -50.5q26 0 48 15t35 32t27 50.5t18 47t13 45.5h11t25.5 -4t32 -12.5t25 -27.5t11.5 -46q0 -44 -15.5 -91t-45 -90t-81 -70.5t-116.5 -27.5q-76 0 -129.5 48t-77.5 118q-19 -40 -47.5 -78t-70.5 -74.5t-100.5 -58.5t-123.5 -22q-184 0 -286.5 134 t-102.5 392zM315 1714q0 25 11.5 53t35.5 56.5t68.5 47.5t101.5 19q38 0 72.5 -31.5t34.5 -89.5q0 -26 -6.5 -56.5t-23 -67t-52 -60.5t-84.5 -24q-42 0 -61.5 13t-18.5 50q-78 27 -78 90zM707 1690q0 24 10.5 51.5t33 56.5t65.5 47.5t99 18.5q39 0 77 -30.5t38 -88.5 q0 -25 -7.5 -58t-24 -71t-50.5 -64t-78 -26q-59 0 -111 56t-52 108z" />
<glyph unicode="&#xdd;" horiz-adv-x="1013" d="M-45 1317q19 32 55 59t74 35t66 -20q74 -77 378 -623q67 129 116.5 220t108.5 190t104.5 159.5t90.5 100t80 39.5q51 0 118.5 -56.5t61.5 -87.5q-73 -61 -186.5 -237.5t-229.5 -394t-223.5 -429.5t-195.5 -383t-119 -215q-35 -2 -141.5 44t-102.5 71q9 63 33 144.5 t51 138.5q11 22 28.5 25t29 -3t18.5 2q92 156 240 445q-212 402 -301 542q-6 10 -26.5 3.5t-29.5 0.5q-26 33 -67 123.5t-31 106.5zM485 1618q22 26 68.5 90t81.5 103t65 53q60 25 144 -17q58 -29 70 -61q5 -14 -5 -23q-188 -153 -260 -223q-16 -14 -61.5 0t-79.5 39.5 t-23 38.5z" />
<glyph unicode="&#xde;" horiz-adv-x="1073" d="M-47 965q3 7 11 19t40.5 44.5t75.5 59.5t121.5 54t173.5 38q27 130 51 196q15 45 26 57q20 19 64 19q39 0 93 -17t73 -40q-25 -81 -51 -213q148 -16 262.5 -68t183 -142t68.5 -206q0 -225 -191.5 -394.5t-500.5 -195.5q-18 -105 -23 -153q-1 -3 -6 -30.5t-7 -37.5 t-7.5 -30t-10.5 -33t-12 -23q-15 -21 -43 -21q-38 0 -117.5 28t-89.5 40q4 34 11 77t16.5 100.5t15.5 94.5q-62 9 -104 27q-39 16 -48.5 54t7.5 73t47 49q6 -1 21.5 -8.5t44 -19t61.5 -19.5q72 401 131 672q-154 -46 -229 -182q-1 -1 -3 -2.5t-8 -3.5t-12 -1q-30 5 -81 54 t-54 84zM479 336q176 28 284.5 142t108.5 282q0 108 -71 178t-199 90q-122 -689 -123 -692z" />
<glyph unicode="&#xdf;" horiz-adv-x="989" d="M-53 -557q1 26 3.5 71t13 184t24.5 273.5t41.5 317.5t60.5 340t83.5 317.5t109.5 273.5t139.5 184t171.5 71q162 0 283.5 -105.5t121.5 -236.5q0 -151 -61.5 -268.5t-165.5 -186.5q86 -38 147.5 -129t61.5 -221q0 -89 -24 -168.5t-63 -136t-88 -98t-100.5 -61.5 t-99.5 -20q-63 0 -119.5 20.5t-85.5 49.5q-37 35 -44 77.5t9 74.5t42 49q4 -1 34 -25t69 -47t67 -23q71 0 122.5 93t51.5 231q0 101 -49.5 176t-137.5 88q-46 -10 -76 -10l-43 6q-13 35 -12 91t17 87q68 9 143 2q89 37 140.5 167.5t51.5 258.5q0 115 -84 115 q-68 0 -127.5 -68t-103 -177t-81.5 -256t-62.5 -295t-45.5 -304.5t-32 -273.5t-20 -214t-11 -114q0 -4 11 -11t22 -13.5t10 -8.5q-1 -4 -16.5 -73.5t-31 -125t-24.5 -55.5q-44 0 -136.5 38t-106.5 69z" />
<glyph unicode="&#xe0;" d="M25 356q0 110 20.5 216.5t60.5 199.5t95.5 164.5t130.5 112.5t160 41q133 0 214.5 -53t81.5 -119l-4 -27q3 -1 39.5 -6.5t57 -17t14.5 -31.5q-106 -361 -109 -572q-7 -153 70 -153q34 0 58.5 20.5t39.5 59.5t23 79t14 95q5 1 13.5 1t30 -3t38 -11.5t30 -29.5t13.5 -52 q0 -37 -11.5 -79.5t-36 -86.5t-58 -79t-83.5 -57.5t-106 -22.5q-49 0 -87 16t-58.5 40.5t-31 48t-13.5 44.5h-13q-34 -61 -100.5 -105t-146.5 -44q-155 0 -250.5 110t-95.5 301zM291 279q-3 -90 10.5 -128t48.5 -38q47 0 100.5 119.5t84.5 240.5t34 166q-57 12 -82 43 q62 86 68 190q0 64 -33 64q-45 0 -88.5 -73.5t-72.5 -180t-48 -215t-22 -188.5zM305 1483q-14 20 -8.5 41t29.5 28q25 6 54.5 10t68 -0.5t51.5 -23.5q12 -21 145 -276q10 -17 3 -35t-25 -23q-99 -30 -127 10z" />
<glyph unicode="&#xe1;" d="M25 356q0 110 20.5 216.5t60.5 199.5t95.5 164.5t130.5 112.5t160 41q133 0 214.5 -53t81.5 -119l-4 -27q3 -1 39.5 -6.5t57 -17t14.5 -31.5q-106 -361 -109 -572q-7 -153 70 -153q34 0 58.5 20.5t39.5 59.5t23 79t14 95q5 1 13.5 1t30 -3t38 -11.5t30 -29.5t13.5 -52 q0 -37 -11.5 -79.5t-36 -86.5t-58 -79t-83.5 -57.5t-106 -22.5q-49 0 -87 16t-58.5 40.5t-31 48t-13.5 44.5h-13q-34 -61 -100.5 -105t-146.5 -44q-155 0 -250.5 110t-95.5 301zM291 279q-3 -90 10.5 -128t48.5 -38q47 0 100.5 119.5t84.5 240.5t34 166q-57 12 -82 43 q62 86 68 190q0 64 -33 64q-45 0 -88.5 -73.5t-72.5 -180t-48 -215t-22 -188.5zM471 1268q21 25 68 89t82 103t65 53q60 25 144 -16q58 -29 70 -61q5 -14 -5 -23q-188 -153 -260 -223q-16 -14 -61.5 0t-79.5 39.5t-23 38.5z" />
<glyph unicode="&#xe2;" d="M25 356q0 110 20.5 216.5t60.5 199.5t95.5 164.5t130.5 112.5t160 41q133 0 214.5 -53t81.5 -119l-4 -27q3 -1 39.5 -6.5t57 -17t14.5 -31.5q-106 -361 -109 -572q-7 -153 70 -153q34 0 58.5 20.5t39.5 59.5t23 79t14 95q5 1 13.5 1t30 -3t38 -11.5t30 -29.5t13.5 -52 q0 -37 -11.5 -79.5t-36 -86.5t-58 -79t-83.5 -57.5t-106 -22.5q-49 0 -87 16t-58.5 40.5t-31 48t-13.5 44.5h-13q-34 -61 -100.5 -105t-146.5 -44q-155 0 -250.5 110t-95.5 301zM291 279q-3 -90 10.5 -128t48.5 -38q47 0 100.5 119.5t84.5 240.5t34 166q-57 12 -82 43 q62 86 68 190q0 64 -33 64q-45 0 -88.5 -73.5t-72.5 -180t-48 -215t-22 -188.5zM317 1260q-50 29 9 75q12 9 70 55t104.5 81t81.5 59l100 -14q25 -32 69 -95.5t80 -117.5t39 -58q9 -18 1.5 -34t-23.5 -21q-80 -19 -109 10q-15 17 -58.5 77t-55.5 75q-17 -14 -67.5 -55 t-80.5 -66q-43 -39 -80 -17z" />
<glyph unicode="&#xe3;" d="M25 356q0 110 20.5 216.5t60.5 199.5t95.5 164.5t130.5 112.5t160 41q133 0 214.5 -53t81.5 -119l-4 -27q3 -1 39.5 -6.5t57 -17t14.5 -31.5q-106 -361 -109 -572q-7 -153 70 -153q34 0 58.5 20.5t39.5 59.5t23 79t14 95q5 1 13.5 1t30 -3t38 -11.5t30 -29.5t13.5 -52 q0 -37 -11.5 -79.5t-36 -86.5t-58 -79t-83.5 -57.5t-106 -22.5q-49 0 -87 16t-58.5 40.5t-31 48t-13.5 44.5h-13q-34 -61 -100.5 -105t-146.5 -44q-155 0 -250.5 110t-95.5 301zM291 279q-3 -90 10.5 -128t48.5 -38q47 0 100.5 119.5t84.5 240.5t34 166q-57 12 -82 43 q62 86 68 190q0 64 -33 64q-45 0 -88.5 -73.5t-72.5 -180t-48 -215t-22 -188.5zM328 1319q19 36 71.5 77.5t102.5 41.5q49 0 91 -20t74 -40t56 -20q30 0 71.5 29.5t55.5 29.5q22 0 36.5 -37t0.5 -69q-15 -36 -73 -76.5t-122 -40.5q-41 0 -84 19.5t-79 39t-60 19.5 q-21 0 -52 -27.5t-42 -27.5q-25 0 -43 39.5t-4 62.5z" />
<glyph unicode="&#xe4;" d="M25 356q0 110 20.5 216.5t60.5 199.5t95.5 164.5t130.5 112.5t160 41q133 0 214.5 -53t81.5 -119l-4 -27q3 -1 39.5 -6.5t57 -17t14.5 -31.5q-106 -361 -109 -572q-7 -153 70 -153q34 0 58.5 20.5t39.5 59.5t23 79t14 95q5 1 13.5 1t30 -3t38 -11.5t30 -29.5t13.5 -52 q0 -37 -11.5 -79.5t-36 -86.5t-58 -79t-83.5 -57.5t-106 -22.5q-49 0 -87 16t-58.5 40.5t-31 48t-13.5 44.5h-13q-34 -61 -100.5 -105t-146.5 -44q-155 0 -250.5 110t-95.5 301zM254 1362q0 25 11.5 53t35.5 56.5t68.5 47.5t101.5 19q38 0 72.5 -31.5t34.5 -89.5 q0 -26 -6.5 -56.5t-23 -67.5t-52 -61t-84.5 -24q-42 0 -61.5 13.5t-18.5 50.5q-78 27 -78 90zM291 279q-3 -90 10.5 -128t48.5 -38q47 0 100.5 119.5t84.5 240.5t34 166q-57 12 -82 43q62 86 68 190q0 64 -33 64q-45 0 -88.5 -73.5t-72.5 -180t-48 -215t-22 -188.5z M645 1337q0 24 11 51.5t33 56.5t65.5 47.5t99.5 18.5q39 0 77 -30t38 -88q0 -25 -7.5 -58t-24 -71t-50.5 -64t-78 -26q-59 0 -111.5 55.5t-52.5 107.5z" />
<glyph unicode="&#xe5;" d="M25 356q0 110 20.5 216.5t60.5 199.5t95.5 164.5t130.5 112.5t160 41q133 0 214.5 -53t81.5 -119l-4 -27q3 -1 39.5 -6.5t57 -17t14.5 -31.5q-106 -361 -109 -572q-7 -153 70 -153q34 0 58.5 20.5t39.5 59.5t23 79t14 95q5 1 13.5 1t30 -3t38 -11.5t30 -29.5t13.5 -52 q0 -37 -11.5 -79.5t-36 -86.5t-58 -79t-83.5 -57.5t-106 -22.5q-49 0 -87 16t-58.5 40.5t-31 48t-13.5 44.5h-13q-34 -61 -100.5 -105t-146.5 -44q-155 0 -250.5 110t-95.5 301zM291 279q-3 -90 10.5 -128t48.5 -38q47 0 100.5 119.5t84.5 240.5t34 166q-57 12 -82 43 q62 86 68 190q0 64 -33 64q-45 0 -88.5 -73.5t-72.5 -180t-48 -215t-22 -188.5zM381 1364q0 81 70 149t192 68q217 0 217 -188q0 -90 -73 -149.5t-187 -59.5q-103 0 -161 52t-58 128zM553 1362q0 -22 15 -35.5t36 -13.5q42 0 67 22.5t25 63.5q0 24 -14.5 39.5t-38.5 15.5 q-90 0 -90 -92z" />
<glyph unicode="&#xe6;" horiz-adv-x="1234" d="M63 287q0 102 27.5 186t70.5 133.5t91 76t94 26.5q73 0 130 -36t71 -89q18 102 14.5 183.5t-38.5 132t-97 50.5q-95 0 -172 -186q-23 0 -49 10.5t-50 32.5t-29 57t15 84q31 69 114.5 112.5t203.5 43.5q111 0 174 -65t78 -165q118 234 254 234q40 0 81.5 -16t81.5 -47.5 t65.5 -89t25.5 -130.5q0 -128 -35 -239.5t-96 -177.5t-132 -66q-36 0 -66.5 12.5t-49 30.5t-27 29t-12.5 18q-3 -5 -10 -34t-15 -93t-8 -131q0 -75 32 -116.5t97 -41.5q62 0 120.5 39t97 97t63 119t28.5 110q10 20 41 20q50 0 83.5 -29t33.5 -81q0 -53 -15.5 -113t-50 -121 t-82.5 -109.5t-119.5 -79t-154.5 -30.5q-110 0 -202 55t-138 154q-35 -54 -95 -91.5t-147 -37.5q-133 0 -215 102t-82 267zM244 166q5 -57 20 -81t49 -24q46 0 90.5 63t69 135t27.5 118q-31 -2 -49 12q24 66 24 109q0 27 -11.5 46t-35.5 19q-55 0 -101 -74t-66.5 -165.5 t-16.5 -157.5zM827 547q2 -5 5.5 -13.5t18 -22t32.5 -13.5q32 0 62 59.5t47 145.5t18 169q0 91 -23 91q-19 0 -37 -35q-39 -77 -73.5 -182.5t-49.5 -198.5z" />
<glyph unicode="&#xe7;" horiz-adv-x="761" d="M23 350q0 106 27.5 220.5t79 220t139 173.5t194.5 68q106 0 197.5 -68.5t91.5 -166.5q0 -136 -52 -214.5t-125 -78.5q-51 0 -80 25t-34 69q-2 4 -2 12q8 11 20 31.5t33 79.5t23 115q3 47 -31 47q-48 0 -96.5 -80.5t-79.5 -217t-31 -282.5q0 -246 156 -246 q76 0 142.5 61.5t102.5 141t45 152.5q31 12 66 12q42 0 71 -33t29 -100q0 -34 -14 -81t-48 -103.5t-83 -104t-128 -79.5t-173 -32h-29q-57 -46 -67 -57q47 -13 88.5 -36t75.5 -67t34 -98q0 -87 -66 -140.5t-165 -53.5q-103 0 -159 54t-56 114q0 30 18 46.5t47 16.5 q11 0 22 -2.5t16 -5.5l5 -2q7 -53 34.5 -93t78.5 -40q33 0 53.5 18t20.5 54q0 42 -28 74t-61.5 46t-66 26t-37.5 17q-16 16 13 61t77 93q-131 45 -209.5 159.5t-78.5 274.5z" />
<glyph unicode="&#xe8;" horiz-adv-x="684" d="M-6 240q0 135 32.5 286.5t86.5 281.5t135 215t168 85q40 0 81.5 -16t81.5 -47.5t65.5 -89t25.5 -130.5q0 -128 -35 -239.5t-95.5 -177.5t-131.5 -66q-31 0 -57 9.5t-42 23t-28 27t-17 22.5l-4 10q-41 -106 -41 -260q0 -75 32 -116.5t97 -41.5q62 0 120.5 39t97 97t63 119 t28.5 110q10 20 41 20q50 0 82.5 -29t32.5 -81q0 -53 -15.5 -113t-50 -121t-82.5 -109.5t-119 -79t-153 -30.5q-103 0 -192.5 46t-148 139.5t-58.5 216.5zM285 547q1 -5 3.5 -13.5t15 -22t30.5 -13.5q32 0 62 59.5t47 145.5t18 169q0 91 -23 91q-12 0 -30 -35 q-89 -193 -123 -381zM297 1483q-14 20 -9 41t29 28q25 6 54.5 10t68.5 -0.5t52 -23.5q12 -21 145 -276q10 -17 2.5 -35t-25.5 -23q-99 -30 -127 10z" />
<glyph unicode="&#xe9;" horiz-adv-x="684" d="M-6 240q0 135 32.5 286.5t86.5 281.5t135 215t168 85q40 0 81.5 -16t81.5 -47.5t65.5 -89t25.5 -130.5q0 -128 -35 -239.5t-95.5 -177.5t-131.5 -66q-31 0 -57 9.5t-42 23t-28 27t-17 22.5l-4 10q-41 -106 -41 -260q0 -75 32 -116.5t97 -41.5q62 0 120.5 39t97 97t63 119 t28.5 110q10 20 41 20q50 0 82.5 -29t32.5 -81q0 -53 -15.5 -113t-50 -121t-82.5 -109.5t-119 -79t-153 -30.5q-103 0 -192.5 46t-148 139.5t-58.5 216.5zM285 547q1 -5 3.5 -13.5t15 -22t30.5 -13.5q32 0 62 59.5t47 145.5t18 169q0 91 -23 91q-12 0 -30 -35 q-89 -193 -123 -381zM352 1268q21 25 68 89t82 103t65 53q60 25 144 -16q58 -29 70 -61q5 -14 -5 -23q-188 -153 -260 -223q-16 -14 -61.5 0t-79.5 39.5t-23 38.5z" />
<glyph unicode="&#xea;" horiz-adv-x="684" d="M-6 240q0 135 32.5 286.5t86.5 281.5t135 215t168 85q40 0 81.5 -16t81.5 -47.5t65.5 -89t25.5 -130.5q0 -128 -35 -239.5t-95.5 -177.5t-131.5 -66q-31 0 -57 9.5t-42 23t-28 27t-17 22.5l-4 10q-41 -106 -41 -260q0 -75 32 -116.5t97 -41.5q62 0 120.5 39t97 97t63 119 t28.5 110q10 20 41 20q50 0 82.5 -29t32.5 -81q0 -53 -15.5 -113t-50 -121t-82.5 -109.5t-119 -79t-153 -30.5q-103 0 -192.5 46t-148 139.5t-58.5 216.5zM213 1255q-51 29 8 76q12 9 70 55t104.5 81t81.5 59l101 -15q25 -32 69 -95t80 -117t39 -58q9 -18 1 -34t-24 -21 q-79 -19 -108 10q-15 17 -59 77.5t-56 74.5q-14 -12 -65 -53.5t-82 -67.5q-43 -39 -80 -17zM285 547q1 -5 3.5 -13.5t15 -22t30.5 -13.5q32 0 62 59.5t47 145.5t18 169q0 91 -23 91q-12 0 -30 -35q-89 -193 -123 -381z" />
<glyph unicode="&#xeb;" horiz-adv-x="684" d="M-6 240q0 135 32.5 286.5t86.5 281.5t135 215t168 85q40 0 81.5 -16t81.5 -47.5t65.5 -89t25.5 -130.5q0 -128 -35 -239.5t-95.5 -177.5t-131.5 -66q-31 0 -57 9.5t-42 23t-28 27t-17 22.5l-4 10q-41 -106 -41 -260q0 -75 32 -116.5t97 -41.5q62 0 120.5 39t97 97t63 119 t28.5 110q10 20 41 20q50 0 82.5 -29t32.5 -81q0 -53 -15.5 -113t-50 -121t-82.5 -109.5t-119 -79t-153 -30.5q-103 0 -192.5 46t-148 139.5t-58.5 216.5zM145 1362q0 25 11.5 53t35.5 56.5t68.5 47.5t101.5 19q38 0 72.5 -31.5t34.5 -89.5q0 -26 -6.5 -56.5t-23 -67.5 t-52 -61t-84.5 -24q-42 0 -61.5 13.5t-18.5 50.5q-78 27 -78 90zM285 547q1 -5 3.5 -13.5t15 -22t30.5 -13.5q32 0 62 59.5t47 145.5t18 169q0 91 -23 91q-12 0 -30 -35q-89 -193 -123 -381zM537 1337q0 24 10.5 51.5t33 56.5t65.5 47.5t99 18.5q39 0 77 -30t38 -88 q0 -25 -7.5 -58t-24 -71t-50.5 -64t-78 -26q-59 0 -111 55.5t-52 107.5z" />
<glyph unicode="&#xec;" horiz-adv-x="501" d="M29 186q0 132 59.5 398t106.5 399q9 27 47 27q15 0 50.5 -6.5t78.5 -19t71 -36.5t19 -53q-57 -196 -106 -404t-50 -307q-1 -52 13.5 -78t39.5 -26q40 0 73 32.5t52 81.5t29.5 92.5t13.5 78.5q1 -2 13.5 0t32 -3t38 -13t32 -30t13.5 -53q0 -53 -27 -113t-73.5 -113.5 t-120.5 -88.5t-158 -35q-119 0 -183 68t-64 202zM150 1477q-14 20 -9 41t29 28q25 6 54.5 10t68 -0.5t51.5 -23.5q6 -10 145 -277q10 -17 3 -34.5t-25 -22.5q-99 -30 -127 10z" />
<glyph unicode="&#xed;" horiz-adv-x="501" d="M29 186q0 132 59.5 398t106.5 399q9 27 47 27q15 0 50.5 -6.5t78.5 -19t71 -36.5t19 -53q-57 -196 -106 -404t-50 -307q-1 -52 13.5 -78t39.5 -26q40 0 73 32.5t52 81.5t29.5 92.5t13.5 78.5q1 -2 13.5 0t32 -3t38 -13t32 -30t13.5 -53q0 -53 -27 -113t-73.5 -113.5 t-120.5 -88.5t-158 -35q-119 0 -183 68t-64 202zM279 1272q22 26 68.5 90t81.5 103t65 53q61 25 144 -17q58 -29 69 -61q5 -14 -5 -23q-188 -153 -260 -223q-16 -14 -61 0t-79 39.5t-23 38.5z" />
<glyph unicode="&#xee;" horiz-adv-x="501" d="M29 186q0 132 59.5 398t106.5 399q9 27 47 27q15 0 50.5 -6.5t78.5 -19t71 -36.5t19 -53q-57 -196 -106 -404t-50 -307q-1 -52 13.5 -78t39.5 -26q40 0 73 32.5t52 81.5t29.5 92.5t13.5 78.5q1 -2 13.5 0t32 -3t38 -13t32 -30t13.5 -53q0 -53 -27 -113t-73.5 -113.5 t-120.5 -88.5t-158 -35q-119 0 -183 68t-64 202zM113 1239q-51 29 8 76q220 170 256 194l100 -14q25 -32 69 -95t80.5 -117t39.5 -58q9 -18 1 -34.5t-24 -21.5q-78 -19 -108 11q-15 17 -59 77t-56 74q-17 -14 -67.5 -55t-80.5 -66q-42 -38 -79 -16z" />
<glyph unicode="&#xef;" horiz-adv-x="501" d="M29 186q0 132 59.5 398t106.5 399q9 27 47 27q15 0 50.5 -6.5t78.5 -19t71 -36.5t19 -53q-57 -196 -106 -404t-50 -307q-1 -52 13.5 -78t39.5 -26q40 0 73 32.5t52 81.5t29.5 92.5t13.5 78.5q1 -2 13.5 0t32 -3t38 -13t32 -30t13.5 -53q0 -53 -27 -113t-73.5 -113.5 t-120.5 -88.5t-158 -35q-119 0 -183 68t-64 202zM37 1358q0 25 11.5 53t35.5 56.5t68.5 47.5t101.5 19q37 0 71.5 -31.5t34.5 -89.5q0 -26 -6.5 -56.5t-22.5 -67.5t-51.5 -61t-84.5 -24q-42 0 -61.5 13.5t-18.5 50.5q-78 27 -78 90zM428 1333q0 24 11 51.5t33 56.5 t65.5 47.5t99.5 18.5q39 0 77 -30t38 -88q0 -25 -7.5 -58.5t-24 -71.5t-50.5 -64t-78 -26q-59 0 -111.5 56t-52.5 108z" />
<glyph unicode="&#xf0;" horiz-adv-x="946" d="M123 860q63 107 182 151t234 -5q51 -24 97 -79.5t73 -110t45 -109.5q34 279 -142 514l-125 -58q-35 -15 -86 25q-40 32 -39 56q2 7 7 11q49 29 145 76q-48 43 -111 90q9 59 84 99.5t144 23.5q71 -48 123 -108q104 39 125 45q17 6 60 -33q50 -44 43 -70q-2 -10 -17 -14 q-50 -17 -123 -47q76 -126 118.5 -279.5t41.5 -337t-56 -356.5q-53 -148 -156.5 -252t-226.5 -132.5t-250 32.5q-89 48 -151.5 158t-86 236.5t-12 256t59.5 217.5zM385 811q-30 -53 -49 -156.5t-21 -211.5t25.5 -200t81.5 -118q50 -23 108.5 28t102.5 141.5t63 186.5 q-28 -4 -51 11q-7 5 -15 37.5t-17.5 78.5t-24 94t-41.5 90.5t-64 61.5q-54 34 -98 -43z" />
<glyph unicode="&#xf1;" horiz-adv-x="845" d="M25 176q0 222 25 418t74.5 323t113.5 127q43 0 86 -19.5t38 -51.5q-9 -45 -28.5 -134t-31 -142.5t-22 -130.5t-12.5 -144h8q4 10 24 63t25 67.5t24 63t26.5 67.5t25.5 63.5t28.5 68t27.5 62.5t31 67t31 61.5t34 63.5q11 29 63 29q64 0 142 -36t73 -81q-9 -82 -46 -222 t-68 -278t-31 -243q0 -146 80 -146q30 0 60.5 38t45.5 73t27 71h10.5t23.5 -4t30 -12t23.5 -25.5t10.5 -42.5q0 -34 -21 -78.5t-57.5 -87t-95 -71.5t-123.5 -29q-58 0 -102.5 17.5t-72 46t-45 69.5t-24 83.5t-5.5 92.5q3 58 22.5 175.5t38.5 197.5h-25q-71 -140 -132 -338 t-62 -325q-45 -33 -117 -33q-84 0 -117.5 69t-33.5 197zM262 1323q19 36 71.5 77.5t102.5 41.5q49 0 91 -20t74 -40t56 -20q30 0 71.5 29.5t55.5 29.5q22 0 36.5 -37t0.5 -69q-15 -36 -72.5 -76.5t-121.5 -40.5q-41 0 -84.5 19.5t-79.5 39t-60 19.5q-21 0 -52 -27.5 t-42 -27.5q-25 0 -43 39.5t-4 62.5z" />
<glyph unicode="&#xf2;" horiz-adv-x="833" d="M23 434q6 133 56.5 276.5t130 248.5t159.5 124q58 -23 67 -51q39 25 94 25q80 0 139 -23.5t93.5 -60.5t54 -93t25.5 -112.5t4 -126.5q-3 -63 -14.5 -133t-32.5 -154t-57 -158.5t-83 -137t-116 -99.5t-150 -37q-100 0 -176 47.5t-117.5 124.5t-60.5 163.5t-16 176.5z M254 362q-6 -114 21 -189t83 -75q51 0 95.5 54.5t72.5 132.5t49.5 170t31 160t11.5 110q0 4 1 13q2 22 2.5 35t0.5 38t-3 40.5t-9.5 32.5t-19 25.5t-29.5 8.5q-39 0 -80 -53t-71.5 -131.5t-50.5 -145t-31 -117.5q-1 -6 -24.5 1.5t-31.5 14.5q-14 -53 -18 -125zM338 1481 q-14 20 -9 41t29 28q25 6 54.5 10t68 -0.5t51.5 -23.5q24 -42 146 -276q10 -17 2.5 -35t-25.5 -23q-99 -30 -127 10z" />
<glyph unicode="&#xf3;" horiz-adv-x="833" d="M23 434q6 133 56.5 276.5t130 248.5t159.5 124q58 -23 67 -51q39 25 94 25q80 0 139 -23.5t93.5 -60.5t54 -93t25.5 -112.5t4 -126.5q-3 -63 -14.5 -133t-32.5 -154t-57 -158.5t-83 -137t-116 -99.5t-150 -37q-100 0 -176 47.5t-117.5 124.5t-60.5 163.5t-16 176.5z M254 362q-6 -114 21 -189t83 -75q51 0 95.5 54.5t72.5 132.5t49.5 170t31 160t11.5 110q0 4 1 13q2 22 2.5 35t0.5 38t-3 40.5t-9.5 32.5t-19 25.5t-29.5 8.5q-39 0 -80 -53t-71.5 -131.5t-50.5 -145t-31 -117.5q-1 -6 -24.5 1.5t-31.5 14.5q-14 -53 -18 -125zM453 1270 q22 26 68.5 90t81.5 103t65 53q60 25 144 -17q58 -29 70 -61q5 -14 -5 -23q-194 -159 -261 -223q-16 -14 -61 0t-79 39.5t-23 38.5z" />
<glyph unicode="&#xf4;" horiz-adv-x="833" d="M23 434q6 133 56.5 276.5t130 248.5t159.5 124q58 -23 67 -51q39 25 94 25q80 0 139 -23.5t93.5 -60.5t54 -93t25.5 -112.5t4 -126.5q-3 -63 -14.5 -133t-32.5 -154t-57 -158.5t-83 -137t-116 -99.5t-150 -37q-100 0 -176 47.5t-117.5 124.5t-60.5 163.5t-16 176.5z M254 362q-6 -114 21 -189t83 -75q51 0 95.5 54.5t72.5 132.5t49.5 170t31 160t11.5 110q0 4 1 13q2 22 2.5 35t0.5 38t-3 40.5t-9.5 32.5t-19 25.5t-29.5 8.5q-39 0 -80 -53t-71.5 -131.5t-50.5 -145t-31 -117.5q-1 -6 -24.5 1.5t-31.5 14.5q-14 -53 -18 -125zM309 1257 q-51 29 8 76q12 9 70 55t104.5 81t81.5 59l101 -15q25 -32 69 -95t80 -117t39 -58q9 -18 1.5 -34t-23.5 -21q-80 -19 -109 10q-15 17 -59 77.5t-56 74.5q-14 -12 -65 -53.5t-82 -67.5q-43 -39 -80 -17z" />
<glyph unicode="&#xf5;" horiz-adv-x="833" d="M23 434q6 133 56.5 276.5t130 248.5t159.5 124q58 -23 67 -51q39 25 94 25q80 0 139 -23.5t93.5 -60.5t54 -93t25.5 -112.5t4 -126.5q-3 -63 -14.5 -133t-32.5 -154t-57 -158.5t-83 -137t-116 -99.5t-150 -37q-100 0 -176 47.5t-117.5 124.5t-60.5 163.5t-16 176.5z M254 362q-6 -114 21 -189t83 -75q51 0 95.5 54.5t72.5 132.5t49.5 170t31 160t11.5 110q0 4 1 13q2 22 2.5 35t0.5 38t-3 40.5t-9.5 32.5t-19 25.5t-29.5 8.5q-39 0 -80 -53t-71.5 -131.5t-50.5 -145t-31 -117.5q-1 -6 -24.5 1.5t-31.5 14.5q-14 -53 -18 -125zM303 1315 q19 36 71.5 77.5t102.5 41.5q49 0 91 -20t74 -40t56 -20q30 0 71.5 29.5t55.5 29.5q22 0 36.5 -37t0.5 -69q-15 -36 -72.5 -76.5t-121.5 -40.5q-41 0 -84.5 19.5t-79.5 39t-60 19.5q-21 0 -52 -28t-42 -28q-25 0 -43 40t-4 63z" />
<glyph unicode="&#xf6;" horiz-adv-x="833" d="M23 434q6 133 56.5 276.5t130 248.5t159.5 124q58 -23 67 -51q39 25 94 25q80 0 139 -23.5t93.5 -60.5t54 -93t25.5 -112.5t4 -126.5q-3 -63 -14.5 -133t-32.5 -154t-57 -158.5t-83 -137t-116 -99.5t-150 -37q-100 0 -176 47.5t-117.5 124.5t-60.5 163.5t-16 176.5z M217 1360q0 25 11.5 53t35.5 56.5t68.5 47.5t101.5 19q38 0 72.5 -31.5t34.5 -89.5q0 -26 -6.5 -56.5t-23 -67.5t-52 -61t-84.5 -24q-42 0 -61.5 13.5t-18.5 50.5q-78 27 -78 90zM254 362q-6 -114 21 -189t83 -75q51 0 95.5 54.5t72.5 132.5t49.5 170t31 160t11.5 110 q0 4 1 13q2 22 2.5 35t0.5 38t-3 40.5t-9.5 32.5t-19 25.5t-29.5 8.5q-39 0 -80 -53t-71.5 -131.5t-50.5 -145t-31 -117.5q-1 -6 -24.5 1.5t-31.5 14.5q-14 -53 -18 -125zM608 1335q0 24 11 51.5t33 56.5t65.5 47.5t99.5 18.5q39 0 77 -30t38 -88q0 -25 -7.5 -58.5 t-24 -71.5t-50.5 -64t-78 -26q-59 0 -111.5 56t-52.5 108z" />
<glyph unicode="&#xf7;" horiz-adv-x="985" d="M135 707q129 38 350.5 61t317.5 18q20 -1 56 -69q48 -91 41 -138q-5 -23 -26 -24q-350 -6 -622 -55q-32 -6 -71 45t-51 99.5t5 62.5zM260 219q0 27 13.5 59t40.5 64t77 53t113 21q41 0 80 -35t39 -100q0 -28 -8.5 -65t-27.5 -80t-56.5 -72t-86.5 -29q-66 0 -125 62.5 t-59 121.5zM350 1073q0 27 13.5 59t40.5 64t77 53t113 21q41 0 80 -35t39 -100q0 -28 -8.5 -65t-27 -80t-56 -72t-86.5 -29q-60 0 -85.5 18t-11.5 66q-41 14 -64.5 36.5t-23.5 63.5z" />
<glyph unicode="&#xf8;" horiz-adv-x="833" d="M23 434q6 133 56.5 276.5t130 248.5t159.5 124q58 -23 67 -51q39 25 94 25q77 0 138 -23q82 125 145 125q33 0 49 -21t10 -51q-38 -36 -100 -126q78 -99 74 -320q-3 -63 -14.5 -133t-32.5 -154t-57 -158.5t-83 -137t-116 -99.5t-150 -37q-69 0 -135 27q-71 -143 -98 -180 q-31 -2 -61 17.5t-27 45.5q7 41 27 95.5t36 80.5l10 21q-66 74 -96.5 184t-25.5 221zM242 362q-6 -107 12 -169q54 109 171.5 362t172.5 358q-14 7 -27 7q-42 0 -86.5 -53t-78.5 -130t-58 -146t-35 -118q-1 -6 -22.5 0t-30.5 14q-14 -55 -18 -125zM330 96q6 -2 22 -2 q52 0 98.5 52.5t77 128.5t54 166.5t34.5 159.5t15 116q-85 -160 -301 -621z" />
<glyph unicode="&#xf9;" horiz-adv-x="897" d="M12 250q0 120 35.5 302t89.5 324t99 142q58 0 109 -22.5t65 -45.5q-67 -207 -109.5 -414t-32.5 -348l27 -8q93 123 183.5 388t121.5 446q3 26 59 26q36 0 80.5 -17t74 -40.5t28.5 -40.5q-2 -21 -48.5 -290.5t-48.5 -352.5q-2 -34 4 -67t25.5 -59t48.5 -26q24 0 46.5 20.5 t37 50.5t26 59.5t16.5 50.5l5 20q107 0 107 -80q0 -50 -38 -114.5t-108.5 -115t-148.5 -50.5q-56 0 -97.5 18t-65 45.5t-36.5 65.5t-16 73t0 74l-16 2q-15 -44 -36 -88t-52 -96t-71.5 -84.5t-82.5 -32.5q-57 0 -123 41.5t-112 109.5t-46 134zM301 1479q-14 20 -8.5 41 t29.5 28q25 6 54.5 10t68 -0.5t51.5 -23.5q6 -10 145 -277q10 -17 2.5 -34.5t-25.5 -22.5q-98 -30 -126 10z" />
<glyph unicode="&#xfa;" horiz-adv-x="897" d="M12 250q0 120 35.5 302t89.5 324t99 142q58 0 109 -22.5t65 -45.5q-67 -207 -109.5 -414t-32.5 -348l27 -8q93 123 183.5 388t121.5 446q3 26 59 26q36 0 80.5 -17t74 -40.5t28.5 -40.5q-2 -21 -48.5 -290.5t-48.5 -352.5q-2 -34 4 -67t25.5 -59t48.5 -26q24 0 46.5 20.5 t37 50.5t26 59.5t16.5 50.5l5 20q107 0 107 -80q0 -50 -38 -114.5t-108.5 -115t-148.5 -50.5q-56 0 -97.5 18t-65 45.5t-36.5 65.5t-16 73t0 74l-16 2q-15 -44 -36 -88t-52 -96t-71.5 -84.5t-82.5 -32.5q-57 0 -123 41.5t-112 109.5t-46 134zM428 1272q22 26 68.5 90 t81.5 103t65 53q60 25 144 -17q58 -29 70 -61q5 -14 -5 -23q-188 -153 -260 -223q-16 -14 -61.5 0t-79.5 39.5t-23 38.5z" />
<glyph unicode="&#xfb;" horiz-adv-x="897" d="M12 250q0 120 35.5 302t89.5 324t99 142q58 0 109 -22.5t65 -45.5q-67 -207 -109.5 -414t-32.5 -348l27 -8q93 123 183.5 388t121.5 446q3 26 59 26q36 0 80.5 -17t74 -40.5t28.5 -40.5q-2 -21 -48.5 -290.5t-48.5 -352.5q-2 -34 4 -67t25.5 -59t48.5 -26q24 0 46.5 20.5 t37 50.5t26 59.5t16.5 50.5l5 20q107 0 107 -80q0 -50 -38 -114.5t-108.5 -115t-148.5 -50.5q-56 0 -97.5 18t-65 45.5t-36.5 65.5t-16 73t0 74l-16 2q-15 -44 -36 -88t-52 -96t-71.5 -84.5t-82.5 -32.5q-57 0 -123 41.5t-112 109.5t-46 134zM295 1257q-51 29 8 76 q12 9 70 55t104.5 81t81.5 59l100 -15q25 -32 69 -95t80.5 -117t39.5 -58q9 -18 1 -34t-24 -21q-79 -19 -108 10q-15 17 -59 77.5t-56 74.5q-14 -12 -65 -53.5t-82 -67.5q-43 -39 -80 -17z" />
<glyph unicode="&#xfc;" horiz-adv-x="897" d="M12 250q0 120 35.5 302t89.5 324t99 142q58 0 109 -22.5t65 -45.5q-67 -207 -109.5 -414t-32.5 -348l27 -8q93 123 183.5 388t121.5 446q3 26 59 26q36 0 80.5 -17t74 -40.5t28.5 -40.5q-2 -21 -48.5 -290.5t-48.5 -352.5q-2 -34 4 -67t25.5 -59t48.5 -26q24 0 46.5 20.5 t37 50.5t26 59.5t16.5 50.5l5 20q107 0 107 -80q0 -50 -38 -114.5t-108.5 -115t-148.5 -50.5q-56 0 -97.5 18t-65 45.5t-36.5 65.5t-16 73t0 74l-16 2q-15 -44 -36 -88t-52 -96t-71.5 -84.5t-82.5 -32.5q-57 0 -123 41.5t-112 109.5t-46 134zM215 1364q0 25 11.5 53 t35.5 56.5t68.5 47.5t101.5 19q38 0 72.5 -31.5t34.5 -89.5q0 -26 -6.5 -56.5t-23 -67.5t-52 -61t-84.5 -24q-42 0 -61.5 13.5t-18.5 50.5q-78 27 -78 90zM606 1339q0 24 11 51.5t33 56.5t65.5 47.5t99.5 18.5q39 0 77 -30t38 -88q0 -25 -7.5 -58t-24 -71t-50.5 -64t-78 -26 q-59 0 -111.5 55.5t-52.5 107.5z" />
<glyph unicode="&#xfd;" horiz-adv-x="788" d="M12 287q0 336 146 706q24 47 96 47q57 0 108 -29t54 -65q-45 -142 -70.5 -233t-50.5 -221t-29 -238q0 -98 41 -98t92.5 96t73.5 178q2 9 31 182.5t61 305t58 131.5q76 0 145.5 -29t69.5 -62q0 -85 -26 -194t-59.5 -217t-41.5 -160q-34 -182 -72.5 -436.5t-48.5 -388.5 q-4 -29 -14 -37t-31 -8q-22 0 -85 20.5t-100 36.5q-16 8 -21 17.5t-5 33.5q0 40 39.5 230t48.5 266q-28 -54 -75.5 -91.5t-108.5 -37.5q-66 0 -113 28t-70 75t-33 94t-10 98zM414 1266q21 25 68 89t82 103t65 53q60 25 144 -16q58 -29 70 -61q5 -14 -5 -23 q-188 -153 -260 -223q-16 -14 -61.5 0t-79.5 39.5t-23 38.5z" />
<glyph unicode="&#xfe;" horiz-adv-x="716" d="M-162 -414q-9 4 -11.5 28t2 68t12.5 96t21 124.5t25.5 140t28 155.5t27.5 160q71 398 153 775t113 380q37 4 87 -10.5t86 -37.5t36 -42q-127 -395 -158 -551q100 185 217 185q75 0 145.5 -54.5t112 -138.5t41.5 -168q0 -57 -12.5 -143.5t-44 -196.5t-77.5 -203t-122 -157 t-168 -64q-64 0 -127 35.5t-106 87.5q-11 -84 -28 -266.5t-21 -212.5q-4 -20 -13.5 -30.5t-15.5 -12t-21 -2.5q-15 -2 -85 19t-97 36zM182 256q-2 -58 22 -97.5t64 -39.5q50 0 92.5 47t69.5 120.5t48 155.5t31.5 160t15.5 124.5t5 57.5q2 21 1 42t-4 37.5t-13.5 27 t-28.5 10.5q-40 0 -81 -51t-71.5 -123.5t-52 -141.5t-28.5 -116q0 -4 -10 -4l-33 10l-5 -24q-5 -24 -12.5 -79.5t-9.5 -115.5z" />
<glyph unicode="&#xff;" horiz-adv-x="788" d="M12 287q0 336 146 706q24 47 96 47q57 0 108 -29t54 -65q-45 -142 -70.5 -233t-50.5 -221t-29 -238q0 -98 41 -98t92.5 96t73.5 178q2 9 31 182.5t61 305t58 131.5q76 0 145.5 -29t69.5 -62q0 -85 -26 -194t-59.5 -217t-41.5 -160q-34 -182 -72.5 -436.5t-48.5 -388.5 q-4 -29 -14 -37t-31 -8q-22 0 -85 20.5t-100 36.5q-16 8 -21 17.5t-5 33.5q0 40 39.5 230t48.5 266q-28 -54 -75.5 -91.5t-108.5 -37.5q-66 0 -113 28t-70 75t-33 94t-10 98zM211 1362q0 25 11.5 53t35.5 56.5t68.5 47.5t101.5 19q38 0 72.5 -31.5t34.5 -89.5 q0 -26 -6.5 -56.5t-23 -67.5t-52 -61t-84.5 -24q-42 0 -61.5 13.5t-18.5 50.5q-78 27 -78 90zM602 1337q0 24 11 51.5t33 56.5t65.5 47.5t99.5 18.5q39 0 77 -30t38 -88q0 -25 -7.5 -58t-24 -71t-50.5 -64t-78 -26q-59 0 -111.5 55.5t-52.5 107.5z" />
<glyph unicode="&#x152;" horiz-adv-x="1628" d="M25 555q0 145 41.5 299t107.5 277t152 210.5t170 106.5q10 -2 19 -5.5t14 -6t11.5 -8.5t8.5 -8t9 -10t9 -11q3 1 8 3.5t21 8.5t32 10.5t39 8.5t44 4q191 0 299 -103q148 34 292.5 59t231.5 33q10 1 32.5 4t34 4t31 2t32.5 -0.5t28.5 -5t28.5 -10.5t24 -18q8 -8 31.5 -59 t23.5 -62q0 -9 -66 -58t-92 -63q-37 -18 -75 -19.5t-39 15.5q0 11 4.5 27t9.5 27l4 10q-179 -14 -438 -64q29 -101 29 -225q0 -42 -7 -121q274 38 308 4q27 -25 53.5 -64.5t26.5 -52.5q0 -43 -35 -43q-159 -3 -379 -39q-54 -268 -152 -440q530 132 721 121q20 -1 57 -59 q50 -78 43 -118q-4 -20 -26 -20q-157 -3 -360 -35.5t-580 -107.5q-23 -3 -45 12q-107 -71 -236 -71q-104 0 -190 40t-142.5 105.5t-95.5 152.5t-56 178t-17 185zM291 473q-3 -110 14.5 -196t58.5 -138.5t101 -52.5q48 0 91 28.5t76 75.5t62 113.5t49.5 135t38.5 147.5 q-33 29 -51 69.5t0 53.5q17 12 82 32q29 191 33 299q0 45 -2 68q-27 11 -57 47t-40.5 65.5t5.5 39.5l20 6q-17 10 -39 10q-44 0 -82.5 -24.5t-65.5 -61.5t-49.5 -89.5t-36 -99t-24.5 -98.5q-2 -11 -14.5 -11.5t-27.5 6t-28 15t-18 13.5l-8 -19.5t-22 -60.5t-27.5 -92.5 t-24.5 -127t-14 -153.5z" />
<glyph unicode="&#x153;" horiz-adv-x="1286" d="M23 434q6 133 56.5 276.5t130 248.5t159.5 124q58 -23 67 -51q39 25 94 25q183 0 246 -146q103 197 240 197q40 0 81.5 -16t81.5 -47.5t65.5 -89t25.5 -130.5q0 -129 -34.5 -240t-95 -177t-132.5 -66q-30 0 -56 9.5t-42 23t-28 27t-17 22.5l-5 10q-41 -106 -41 -260 q0 -158 131 -158q62 0 119.5 39t96 97t63 119t28.5 110q10 20 41 20q50 0 83.5 -29t33.5 -81q0 -53 -15.5 -113t-50 -121t-82.5 -109.5t-119.5 -79t-154.5 -30.5q-113 0 -202 58.5t-132 166.5q-102 -141 -266 -141q-100 0 -176 47.5t-117.5 124.5t-60.5 163.5t-16 176.5z M254 362q-6 -114 21 -189t83 -75q51 0 95.5 54.5t72.5 132.5t49.5 170t31 160t11.5 110q0 4 1 13q2 22 2.5 35t0.5 38t-3 40.5t-9.5 32.5t-19 25.5t-29.5 8.5q-39 0 -80 -53t-71.5 -131.5t-50.5 -145t-31 -117.5q-1 -6 -24.5 1.5t-31.5 14.5q-14 -53 -18 -125zM885 547 q1 -5 4 -13.5t15.5 -22t29.5 -13.5q50 0 88.5 122t38.5 252q2 91 -23 91q-12 0 -28 -35q-92 -200 -125 -381z" />
<glyph unicode="&#x178;" horiz-adv-x="1013" d="M-45 1317q19 32 55 59t74 35t66 -20q74 -77 378 -623q67 129 116.5 220t108.5 190t104.5 159.5t90.5 100t80 39.5q51 0 118.5 -56.5t61.5 -87.5q-73 -61 -186.5 -237.5t-229.5 -394t-223.5 -429.5t-195.5 -383t-119 -215q-35 -2 -141.5 44t-102.5 71q9 63 33 144.5 t51 138.5q11 22 28.5 25t29 -3t18.5 2q92 156 240 445q-212 402 -301 542q-6 10 -26.5 3.5t-29.5 0.5q-26 33 -67 123.5t-31 106.5zM225 1698q0 25 11.5 53t35.5 56.5t68.5 47.5t101.5 19q38 0 72.5 -31.5t34.5 -89.5q0 -26 -6.5 -56.5t-23 -67.5t-52 -61t-84.5 -24 q-42 0 -61.5 13.5t-18.5 50.5q-78 27 -78 90zM616 1673q0 24 11 51.5t33 56.5t65.5 47.5t99.5 18.5q39 0 77 -30t38 -88q0 -25 -7.5 -58.5t-24 -71.5t-50.5 -64t-78 -26q-59 0 -111.5 56t-52.5 108z" />
<glyph unicode="&#x2c6;" horiz-adv-x="1126" d="M289 1272q-51 29 8 76q220 170 256 194l100 -14q25 -32 69 -95.5t80.5 -117.5t39.5 -58q9 -18 1 -34t-24 -21q-79 -19 -108 10q-15 17 -59 77.5t-56 74.5q-14 -12 -65 -53.5t-82 -67.5q-42 -38 -80 -16z" />
<glyph unicode="&#x2dc;" horiz-adv-x="1126" d="M283 1358q19 36 71.5 77.5t102.5 41.5q49 0 91 -20t74 -40t56 -20q30 0 71.5 29.5t55.5 29.5q22 0 36.5 -37t0.5 -69q-15 -36 -73 -76.5t-122 -40.5q-41 0 -84 19.5t-79 39t-60 19.5q-21 0 -52 -28t-42 -28q-25 0 -43 40t-4 63z" />
<glyph unicode="&#x2000;" horiz-adv-x="959" />
<glyph unicode="&#x2001;" horiz-adv-x="1918" />
<glyph unicode="&#x2002;" horiz-adv-x="959" />
<glyph unicode="&#x2003;" horiz-adv-x="1918" />
<glyph unicode="&#x2004;" horiz-adv-x="639" />
<glyph unicode="&#x2005;" horiz-adv-x="479" />
<glyph unicode="&#x2006;" horiz-adv-x="319" />
<glyph unicode="&#x2007;" horiz-adv-x="319" />
<glyph unicode="&#x2008;" horiz-adv-x="239" />
<glyph unicode="&#x2009;" horiz-adv-x="383" />
<glyph unicode="&#x200a;" horiz-adv-x="106" />
<glyph unicode="&#x2010;" horiz-adv-x="978" d="M117 633q128 38 349 61.5t318 18.5q19 -1 56 -70q50 -94 41 -140q-5 -21 -25 -22q-353 -6 -625 -55q-32 -6 -70.5 45t-50 99.5t6.5 62.5z" />
<glyph unicode="&#x2011;" horiz-adv-x="978" d="M117 633q128 38 349 61.5t318 18.5q19 -1 56 -70q50 -94 41 -140q-5 -21 -25 -22q-353 -6 -625 -55q-32 -6 -70.5 45t-50 99.5t6.5 62.5z" />
<glyph unicode="&#x2012;" horiz-adv-x="978" d="M117 633q128 38 349 61.5t318 18.5q19 -1 56 -70q50 -94 41 -140q-5 -21 -25 -22q-353 -6 -625 -55q-32 -6 -70.5 45t-50 99.5t6.5 62.5z" />
<glyph unicode="&#x2013;" horiz-adv-x="1208" d="M117 633q124 37 454 61.5t439 18.5q19 -1 54 -68q48 -89 39 -134q-4 -22 -26 -22q-215 -4 -470.5 -18.5t-379.5 -36.5q-31 -6 -68.5 43t-48.5 95.5t7 60.5z" />
<glyph unicode="&#x2014;" horiz-adv-x="1533" d="M117 633q122 36 608.5 61.5t609.5 18.5q19 -1 54 -68q49 -89 40 -134q-4 -22 -26 -22q-305 -5 -681 -19.5t-495 -35.5q-31 -6 -68.5 43t-48.5 95.5t7 60.5z" />
<glyph unicode="&#x2018;" horiz-adv-x="632" d="M180 956q0 164 66 292.5t166 185.5q73 42 136.5 13.5t67.5 -106.5q-93 -53 -154.5 -133t-64.5 -133q28 5 62 -4t63 -39t29 -76q0 -28 -10.5 -59t-33 -63t-68.5 -53t-107 -21q-59 0 -105.5 54t-46.5 142z" />
<glyph unicode="&#x2019;" horiz-adv-x="632" d="M168 877q93 53 154.5 133t64.5 133q-28 -5 -62 4t-63 39t-29 76q0 28 10.5 59t33.5 63t69 53t107 21q58 0 104.5 -53.5t46.5 -142.5q0 -164 -65.5 -292t-165.5 -186q-74 -41 -137 -12.5t-68 105.5z" />
<glyph unicode="&#x201a;" horiz-adv-x="632" d="M31 -270q93 53 154.5 133t66.5 133q-28 -5 -62.5 4t-64 39t-29.5 76q0 22 6 46t21.5 51.5t39.5 49t64 35.5t90 14q57 0 103.5 -54t46.5 -142q0 -164 -65 -291.5t-166 -185.5q-72 -41 -136.5 -12.5t-68.5 104.5z" />
<glyph unicode="&#x201c;" horiz-adv-x="1079" d="M180 956q0 164 66 292.5t166 185.5q73 42 136.5 13.5t67.5 -106.5q-93 -53 -154.5 -133t-64.5 -133q28 5 62 -4t63 -39t29 -76q0 -28 -10.5 -59t-33 -63t-68.5 -53t-107 -21q-59 0 -105.5 54t-46.5 142zM627 956q0 164 65 293t164 185q51 26 96 23.5t76.5 -34t34.5 -82.5 q-93 -53 -154.5 -133t-66.5 -133q28 5 62 -4t63.5 -39t29.5 -76q0 -22 -6 -46t-21.5 -51.5t-39.5 -49t-64 -35.5t-90 -14q-58 0 -103.5 53.5t-45.5 142.5z" />
<glyph unicode="&#x201d;" horiz-adv-x="1079" d="M168 877q93 53 154.5 133t64.5 133q-28 -5 -62 4t-63 39t-29 76q0 28 10.5 59t33.5 63t69 53t107 21q58 0 104.5 -53.5t46.5 -142.5q0 -164 -65.5 -292t-165.5 -186q-74 -41 -137 -12.5t-68 105.5zM612 877q93 53 155 133t67 133q-28 -5 -62.5 4t-64 39t-29.5 76 q0 22 6 46t21.5 51.5t39.5 49t64 35.5t90 14q58 0 104 -53.5t46 -142.5q0 -164 -65 -292t-165 -186q-73 -41 -138 -12t-69 105z" />
<glyph unicode="&#x201e;" horiz-adv-x="1079" d="M31 -270q93 53 154.5 133t66.5 133q-28 -5 -62.5 4t-64 39t-29.5 76q0 22 6 46t21.5 51.5t39.5 49t64 35.5t90 14q57 0 103.5 -54t46.5 -142q0 -164 -65 -291.5t-166 -185.5q-72 -41 -136.5 -12.5t-68.5 104.5zM477 -270q91 53 152.5 133t66.5 133q-28 -5 -61.5 4 t-62.5 39t-29 76q0 22 5.5 46t21 51.5t39 49t63.5 35.5t90 14q58 0 104.5 -53.5t46.5 -142.5q0 -164 -65.5 -291.5t-165.5 -185.5q-73 -41 -137 -12.5t-68 104.5z" />
<glyph unicode="&#x2022;" horiz-adv-x="815" d="M125 614q0 32 11.5 70.5t37.5 80.5t63 75.5t94.5 55.5t125.5 22q100 0 165.5 -59t65.5 -187q0 -50 -7 -95t-26.5 -90.5t-50 -78.5t-80.5 -53.5t-114 -20.5q-87 0 -142 30t-55 85q-48 33 -68 67t-20 98z" />
<glyph unicode="&#x2026;" horiz-adv-x="1589" d="M186 80q0 29 13.5 62.5t41 67t78.5 55.5t117 22q43 0 82 -37t39 -105q0 -30 -8.5 -69t-27.5 -83t-57 -74t-89 -30q-62 0 -88 18.5t-13 67.5q-88 30 -88 105zM666 100q0 20 7 43.5t24.5 50t42.5 47.5t65.5 34.5t89.5 13.5q38 0 74.5 -34t36.5 -95q0 -27 -8 -62.5t-25 -76 t-53 -68t-84 -27.5t-69 13t-50 57q-5 9 -20.5 26.5t-23 34.5t-7.5 43zM1124 23q0 23 5 52.5t18 66.5t32.5 67.5t53 51t74.5 20.5q9 0 30.5 0.5t28.5 0t23 -2t23.5 -5t19 -9.5t20 -16t16.5 -24q27 -46 27 -137q0 -39 -20 -85t-65 -84t-103 -38q-63 0 -123 47.5t-60 94.5z" />
<glyph unicode="&#x202f;" horiz-adv-x="383" />
<glyph unicode="&#x2039;" horiz-adv-x="794" d="M102 504l21 96q139 123 285.5 228.5t187.5 105.5q40 0 90 -67.5t37 -92.5q-63 -34 -170.5 -115t-190.5 -163q25 -33 51 -63.5t61 -64t51 -48.5t61.5 -55t52.5 -46q18 -20 15.5 -38.5t-19.5 -30.5l-43 -31q-43 -27 -88 10q-267 225 -402 375z" />
<glyph unicode="&#x203a;" horiz-adv-x="825" d="M186 276q95 50 326 277q-118 156 -240 281q-19 20 -17 37.5t19 29.5l45 31q44 30 89 -10q114 -94 362 -377l-18 -96q-84 -73 -137.5 -118.5t-122.5 -101.5t-113 -84t-64 -28q-27 0 -61.5 33.5t-54.5 72t-13 53.5z" />
<glyph unicode="&#x205f;" horiz-adv-x="479" />
<glyph unicode="&#x20ac;" horiz-adv-x="1298" d="M74 760q30 19 235 61q24 81 56 158t72.5 150.5t90 134t103.5 107t118 72t130 25.5q57 0 118 -24t112 -64.5t83.5 -99t32.5 -121.5q0 -107 -29.5 -171t-73.5 -64q-40 0 -89.5 32.5t-65.5 63.5q4 10 10.5 29t17.5 75t11 111q0 31 -20.5 49.5t-47.5 18.5q-65 0 -159.5 -126 t-166.5 -309q90 11 127 13q40 6 76 4.5t45 -19.5q7 -12 17.5 -14.5t26 -4t28.5 -11.5q10 -8 31.5 -40.5t21.5 -41.5q0 -31 -39 -31q-128 -2 -391 -37q-10 -38 -20 -94q8 1 22 3q54 6 81 8.5t66 1t69 -12.5t58 -33q10 -8 32 -41t22 -41q0 -31 -39 -31q-109 -2 -334 -26v-47 q0 -134 46.5 -207.5t131.5 -73.5q91 0 173.5 54.5t135 136.5t72.5 172q16 10 53 10q45 0 82 -46t37 -118q0 -101 -67 -196.5t-177.5 -154.5t-228.5 -59q-217 0 -352.5 132.5t-159.5 359.5l-72 -12q-19 -3 -40.5 6.5t-37 26t-27 35.5t-11.5 35t10 24q34 21 176 51 q1 13 3 28.5t5 34t4 29.5l-82 -14q-19 -3 -41 7t-38.5 27.5t-29 37.5t-13 36.5t9.5 24.5z" />
<glyph unicode="&#x2122;" horiz-adv-x="1593" d="M139 1348q0 16 13 16q98 31 264 57q14 43 30 80q31 6 79.5 -5.5t64.5 -25.5l8 -12q-4 -12 -4 -16q74 4 80 4q66 0 78 -12q20 -14 38.5 -45.5t18.5 -45.5q0 -20 -57 -20q-64 0 -195 -16q-57 -206 -76 -344h4q10 0 20.5 -4.5t10.5 -12.5q0 -27 -34 -85t-64 -58 q-26 0 -76.5 18.5t-56.5 26.5q24 184 92 434q-15 -2 -168 -27h-6q-13 0 -38.5 37t-25.5 56zM672 868q58 179 139.5 357t151.5 252q40 0 86 -15t63 -30q-10 -54 -10 -150q0 -108 2 -147q47 131 106.5 251.5t87.5 120.5q21 0 69 -12.5t60 -24.5q-8 -66 -8 -206 q0 -111 11.5 -194t37.5 -187q0 -5 -35.5 -16t-77 -15t-73.5 12q-6 3 -10.5 12.5t-7.5 26.5t-5 35t-3.5 45.5t-2 50.5t-0.5 57v58v61.5v59.5q-78 -179 -123 -352q-12 -23 -55 -23q-30 0 -63 12t-37 31q-4 28 -4.5 70.5t1 74t4 89t3.5 79.5q-48 -91 -84 -211t-47 -198 q-9 -18 -88 -0.5t-88 26.5z" />
</font>
</defs>
</svg>
